<?xml version="1.0" standalone="no"?>
<!DOCTYPE svg PUBLIC "-//W3C//DTD SVG 1.1//EN" "http://www.w3.org/Graphics/SVG/1.1/DTD/svg11.dtd" >
<svg xmlns="http://www.w3.org/2000/svg" xmlns:xlink="http://www.w3.org/1999/xlink" version="1.1">
<metadata>
Created by FontForge 20150318 at Fri Jul 31 17:18:11 2015
 By uniteet7
Spaced and kerned with iKern.
</metadata>
<defs>
<font id="MuseoSlab-500Italic" horiz-adv-x="574" >
  <font-face 
    font-family="Museo Slab 500"
    font-weight="400"
    font-style="italic"
    font-stretch="normal"
    units-per-em="1000"
    panose-1="2 0 0 0 0 0 0 0 0 0"
    ascent="750"
    descent="-250"
    x-height="506"
    cap-height="706"
    bbox="-190 -225 1072 897"
    underline-thickness="50"
    underline-position="-50"
    stemh="78"
    stemv="99"
    unicode-range="U+0020-FB04"
  />
<missing-glyph horiz-adv-x="510" 
d="M-54 0v700h500v-700h-500zM196 395l170 255h-340zM396 95v510l-170 -255zM-4 95l170 255l-170 255v-510zM26 50h340l-170 255z" />
    <glyph glyph-name="f_f" unicode="ff" horiz-adv-x="677" 
d="M57 0l83 431h-84l15 75h83l5 22c33 166 162 185 221 185c26 0 44 -3 44 -3l-17 -79s-12 2 -29 2c-34 0 -101 -8 -121 -103l-5 -24h229l4 22c33 166 162 185 222 185c25 0 43 -3 43 -3l-17 -79s-12 2 -29 2c-34 0 -101 -8 -121 -103l-5 -24h122l-14 -75h-122l-84 -431h-97
l83 431h-228l-84 -431h-97z" />
    <glyph glyph-name="fi" unicode="fi" horiz-adv-x="636" 
d="M57 0l84 431h-85l15 75h84l5 22c33 166 161 185 220 185c26 0 44 -3 44 -3l-17 -79s-12 2 -29 2c-34 0 -101 -8 -121 -103l-5 -24h313l-70 -358c-2 -11 -4 -22 -4 -31c0 -36 21 -44 46 -44c14 0 23 2 23 2l-14 -75s-23 -2 -40 -2c-50 0 -115 8 -115 97c0 12 2 27 5 44
l58 292h-216l-84 -431h-97zM485 607l20 99h102l-20 -99h-102z" />
    <glyph glyph-name="fl" unicode="fl" horiz-adv-x="642" 
d="M57 0l83 431h-84l14 75h84l4 18c33 162 154 198 264 198c104 0 184 -26 184 -26l-105 -543c-3 -12 -5 -26 -5 -34c0 -37 21 -42 46 -42c16 0 24 2 24 2l-16 -80s-20 -2 -39 -2c-50 0 -115 12 -115 101c0 13 2 29 5 46l96 492s-29 10 -84 10c-69 0 -138 -21 -157 -121
l-4 -19h122l-14 -75h-122l-84 -431h-97z" />
    <glyph glyph-name="f_f_i" unicode="ffi" horiz-adv-x="962" 
d="M57 0l83 431h-84l15 75h83l5 22c33 166 162 185 221 185c26 0 44 -3 44 -3l-17 -79s-12 2 -29 2c-34 0 -101 -8 -121 -103l-5 -24h229l4 22c33 166 162 185 222 185c25 0 43 -3 43 -3l-17 -79s-12 2 -29 2c-34 0 -101 -8 -121 -103l-5 -24h313l-70 -358
c-2 -11 -4 -22 -4 -31c0 -36 21 -44 46 -44c14 0 23 2 23 2l-14 -75s-23 -2 -40 -2c-49 0 -115 8 -115 97c0 12 2 27 5 44l58 292h-216l-84 -431h-97l83 431h-228l-84 -431h-97zM811 607l20 99h102l-20 -99h-102z" />
    <glyph glyph-name="f_f_l" unicode="ffl" horiz-adv-x="968" 
d="M57 0l83 431h-84l15 75h83l5 22c33 166 162 185 221 185c26 0 44 -3 44 -3l-17 -79s-12 2 -29 2c-34 0 -101 -8 -121 -103l-5 -24h229l3 18c33 162 154 198 265 198c103 0 183 -26 183 -26l-105 -543c-2 -12 -4 -26 -4 -34c0 -37 20 -42 45 -42c16 0 24 2 24 2l-16 -80
s-19 -2 -39 -2c-50 0 -115 12 -115 101c0 13 2 29 5 46l96 492s-29 10 -84 10c-69 0 -138 -21 -157 -121l-4 -19h122l-14 -75h-122l-84 -431h-97l83 431h-228l-84 -431h-97z" />
    <glyph glyph-name="f_j" unicode="fj" horiz-adv-x="611" 
d="M57 0l83 431h-84l15 75h83l5 22c33 166 162 185 221 185c26 0 44 -3 44 -3l-17 -79s-12 2 -29 2c-34 0 -101 -8 -121 -103l-5 -24h317l-101 -518c-32 -170 -157 -194 -218 -194c-28 0 -46 2 -46 2l16 78s8 -1 22 -1c37 0 110 12 129 111l86 447h-219l-84 -431h-97z
M490 607l19 99h100l-19 -99h-100z" />
    <glyph glyph-name=".notdef" horiz-adv-x="510" 
d="M-54 0v700h500v-700h-500zM196 395l170 255h-340zM396 95v510l-170 -255zM-4 95l170 255l-170 255v-510zM26 50h340l-170 255z" />
    <glyph glyph-name="space" unicode=" " horiz-adv-x="250" 
 />
    <glyph glyph-name="exclam" unicode="!" horiz-adv-x="251" 
d="M61 194l93 512h101l-107 -512h-87zM17 0l20 98h100l-19 -98h-101z" />
    <glyph glyph-name="quotedbl" unicode="&#x22;" horiz-adv-x="348" 
d="M245 506l42 212h76l-41 -212h-77zM105 506l41 212h76l-41 -212h-76z" />
    <glyph glyph-name="numbersign" unicode="#" horiz-adv-x="718" 
d="M80 0l70 191h-128l26 74h129l63 168h-128l27 73h128l74 200h83l-74 -200h155l74 200h83l-74 -200h128l-26 -73h-129l-63 -168h128l-27 -74h-128l-70 -191h-83l70 191h-155l-70 -191h-83zM260 265h155l63 168h-155z" />
    <glyph glyph-name="dollar" unicode="$" horiz-adv-x="543" 
d="M6 96l59 64s62 -69 160 -69c76 0 156 44 156 113c0 130 -287 112 -287 300c0 107 96 187 225 197l20 108h71l-20 -109c106 -12 156 -68 156 -68l-53 -71s-58 55 -148 55c-85 0 -151 -48 -151 -109c0 -127 287 -109 287 -294c0 -108 -95 -199 -229 -209l-19 -106h-71
l20 109c-124 15 -176 89 -176 89z" />
    <glyph glyph-name="percent" unicode="%" horiz-adv-x="764" 
d="M231 422c-82 0 -135 53 -135 131c0 84 84 165 173 165c81 0 135 -55 135 -132c0 -86 -85 -164 -173 -164zM10 0l667 706h100l-668 -706h-99zM238 496c45 0 88 40 88 88c0 35 -25 61 -63 61c-45 0 -89 -42 -89 -90c0 -34 25 -59 64 -59zM381 119c0 84 84 165 174 165
c81 0 135 -55 135 -132c0 -86 -86 -164 -174 -164c-81 0 -135 53 -135 131zM460 121c0 -34 24 -59 63 -59c46 0 88 40 88 88c0 35 -25 61 -63 61c-45 0 -88 -43 -88 -90z" />
    <glyph glyph-name="ampersand" unicode="&#x26;" horiz-adv-x="660" 
d="M29 174c0 89 67 179 166 206v2s-70 26 -70 121c0 135 117 215 244 215c52 0 95 -14 95 -14l-38 -77s-27 7 -55 7c-73 0 -146 -49 -146 -134c0 -42 19 -87 110 -87h131l20 98h97l-19 -98h93l-16 -82h-94l-18 -96c-33 -170 -134 -247 -277 -247c-142 0 -223 78 -223 186z
M132 183c0 -64 45 -107 123 -107c90 0 156 51 178 163l17 92h-134c-92 0 -184 -49 -184 -148z" />
    <glyph glyph-name="quotesingle" unicode="'" horiz-adv-x="208" 
d="M105 506l41 212h78l-42 -212h-77z" />
    <glyph glyph-name="parenleft" unicode="(" horiz-adv-x="319" 
d="M116 -95c-31 78 -51 170 -51 268c0 211 67 398 206 562h89c-137 -170 -209 -359 -209 -564c0 -92 16 -181 47 -266h-82z" />
    <glyph glyph-name="parenright" unicode=")" horiz-adv-x="321" 
d="M-30 -95c136 171 208 360 208 564c0 92 -15 181 -47 266h82c31 -77 51 -169 51 -268c0 -210 -67 -397 -206 -562h-88z" />
    <glyph glyph-name="asterisk" unicode="*" horiz-adv-x="483" 
d="M168 329l-65 53l111 112v2l-126 36l43 82l122 -50l21 142h91l-36 -142l144 50l12 -85l-148 -39v-2l66 -108l-76 -52l-57 119h-2z" />
    <glyph glyph-name="plus" unicode="+" horiz-adv-x="613" 
d="M207 0l48 246h-223l14 78h224l48 246h82l-48 -246h223l-15 -78h-223l-48 -246h-82z" />
    <glyph glyph-name="comma" unicode="," horiz-adv-x="267" 
d="M58 105h102l-137 -229h-80z" />
    <glyph glyph-name="hyphen" unicode="-" horiz-adv-x="477" 
d="M81 242l16 86h292l-16 -86h-292z" />
    <glyph glyph-name="period" unicode="." horiz-adv-x="258" 
d="M21 0l20 105h104l-20 -105h-104z" />
    <glyph glyph-name="slash" unicode="/" horiz-adv-x="431" 
d="M-24 -42l407 786h92l-407 -786h-92z" />
    <glyph glyph-name="zero" unicode="0" horiz-adv-x="627" 
d="M60 221c0 181 79 497 321 497c155 0 208 -95 208 -233c0 -181 -79 -497 -321 -497c-152 0 -208 95 -208 233zM161 223c0 -87 29 -146 109 -146c159 0 217 262 217 404c0 89 -28 148 -109 148c-152 0 -217 -250 -217 -406z" />
    <glyph glyph-name="one" unicode="1" horiz-adv-x="480" 
d="M-4 0l15 82h156l89 452c4 22 11 47 11 47h-2s-14 -17 -36 -35l-85 -71l-50 66l203 165h89l-122 -624h154l-17 -82h-405z" />
    <glyph glyph-name="two" unicode="2" horiz-adv-x="586" 
d="M3 0c5 308 442 335 442 532c0 60 -41 98 -107 98c-95 0 -165 -93 -165 -93l-66 53s94 128 240 128c121 0 203 -69 203 -176c0 -238 -394 -297 -428 -460h280l19 94h87l-35 -176h-470z" />
    <glyph glyph-name="three" unicode="3" horiz-adv-x="572" 
d="M2 82l58 68s62 -73 159 -73c94 0 177 69 177 158c0 71 -58 107 -134 107c-20 0 -44 -2 -44 -2l-13 52l210 209c13 13 30 24 30 24v2s-22 -3 -36 -3h-190l-18 -90h-87l34 172h431l-14 -69l-230 -226c67 -9 165 -49 165 -168c0 -132 -117 -255 -281 -255
c-141 0 -217 94 -217 94z" />
    <glyph glyph-name="four" unicode="4" horiz-adv-x="603" 
d="M7 189l12 62l411 455h117l-86 -437h96l-15 -80h-96l-37 -189h-98l37 189h-341zM135 269h229l54 277c4 24 15 54 15 54h-3s-16 -25 -35 -47l-260 -282v-2z" />
    <glyph glyph-name="five" unicode="5" horiz-adv-x="568" 
d="M6 80l58 65s55 -68 150 -68c97 0 188 73 188 169c0 75 -55 120 -136 120c-72 0 -128 -34 -128 -34l-56 22l105 352h364l-34 -172h-87l18 90h-191l-48 -156c-7 -24 -14 -40 -14 -40h2s40 20 97 20c122 0 211 -79 211 -200c0 -144 -136 -260 -294 -260
c-141 0 -205 92 -205 92z" />
    <glyph glyph-name="six" unicode="6" horiz-adv-x="603" 
d="M54 245c0 181 140 473 397 473c87 0 140 -30 140 -30l-42 -81s-41 23 -100 23c-133 0 -225 -121 -263 -240h2c37 41 102 67 162 67c122 0 194 -81 194 -191c0 -136 -102 -278 -265 -278c-135 0 -225 99 -225 257zM155 234c0 -78 48 -157 129 -157c91 0 159 84 159 183
c0 67 -41 114 -122 114c-78 0 -166 -57 -166 -140z" />
    <glyph glyph-name="seven" unicode="7" horiz-adv-x="549" 
d="M41 0l408 593c15 21 27 32 27 32v2s-18 -3 -41 -3h-243l-18 -90h-87l34 172h484l-13 -68l-443 -638h-108z" />
    <glyph glyph-name="eight" unicode="8" horiz-adv-x="606" 
d="M34 174c0 119 116 194 158 220c-39 29 -65 66 -65 119c0 100 92 205 247 205c126 0 203 -63 203 -161c0 -107 -104 -195 -126 -214c45 -30 78 -71 78 -130c0 -121 -118 -225 -274 -225c-131 0 -221 74 -221 186zM382 380c16 13 96 84 96 165c0 54 -41 87 -107 87
c-84 0 -145 -53 -145 -118c0 -69 82 -96 156 -134zM137 185c0 -69 53 -110 124 -110c79 0 165 51 165 135c0 74 -94 100 -170 141c-27 -17 -119 -76 -119 -166z" />
    <glyph glyph-name="nine" unicode="9" horiz-adv-x="604" 
d="M36 19l41 80s41 -22 98 -22c133 0 226 121 264 240h-2c-38 -41 -102 -66 -163 -66c-122 0 -194 81 -194 190c0 135 102 277 265 277c136 0 226 -98 226 -257c0 -180 -141 -473 -398 -473c-85 0 -137 31 -137 31zM302 334c77 0 168 57 168 138c0 78 -48 158 -128 158
c-92 0 -161 -84 -161 -184c0 -66 41 -112 121 -112z" />
    <glyph glyph-name="colon" unicode=":" horiz-adv-x="301" 
d="M119 401l20 105h104l-20 -105h-104zM41 0l20 105h104l-20 -105h-104z" />
    <glyph glyph-name="semicolon" unicode=";" horiz-adv-x="307" 
d="M127 401l20 105h102l-21 -105h-101zM-42 -124l111 229h106l-137 -229h-80z" />
    <glyph glyph-name="less" unicode="&#x3c;" horiz-adv-x="613" 
d="M49 252v66l466 208v-89l-357 -151v-2l357 -151v-89z" />
    <glyph glyph-name="equal" unicode="=" horiz-adv-x="613" 
d="M64 340v78h477v-78h-477zM64 151v78h477v-78h-477z" />
    <glyph glyph-name="greater" unicode="&#x3e;" horiz-adv-x="613" 
d="M97 44v89l357 151v2l-357 151v89l466 -208v-66z" />
    <glyph glyph-name="question" unicode="?" horiz-adv-x="473" 
d="M129 194l9 47c32 160 227 184 227 307c0 47 -37 81 -96 81c-65 0 -122 -42 -122 -42l-43 75s79 58 178 58c107 0 186 -61 186 -160c0 -178 -212 -207 -236 -325l-8 -41h-95zM90 0l19 98h101l-20 -98h-100z" />
    <glyph glyph-name="at" unicode="@" horiz-adv-x="793" 
d="M29 182c0 229 205 429 448 429c152 0 219 -76 219 -171c0 -15 -2 -31 -5 -46l-52 -269h72l-15 -73h-261c-117 0 -185 73 -185 162c0 110 99 214 251 214h104s1 10 1 18c0 46 -51 85 -139 85c-185 0 -340 -172 -340 -349c0 -133 87 -230 234 -230l-15 -77
c-185 0 -317 124 -317 307zM349 219c0 -55 36 -94 96 -94h101l46 236h-99c-78 0 -144 -69 -144 -142z" />
    <glyph glyph-name="A" unicode="A" horiz-adv-x="723" 
d="M-46 0l15 78h68l348 628h112l102 -628h69l-16 -78h-241l15 78h75l-24 157h-250l-86 -157h76l-16 -78h-247zM268 315h199l-38 245c-3 29 -2 54 -2 54h-3s-7 -25 -22 -54z" />
    <glyph glyph-name="B" unicode="B" horiz-adv-x="685" 
d="M-3 0l15 78h88l107 551h-89l16 77h305c47 0 86 -6 118 -20c53 -22 85 -73 85 -137c0 -81 -49 -145 -119 -176v-2c55 -21 86 -71 86 -141c0 -96 -57 -171 -134 -206c-39 -18 -83 -24 -130 -24h-348zM264 409h148c71 0 128 53 128 129c0 31 -9 55 -32 70
c-16 11 -40 16 -67 16h-135zM200 82h148c35 0 68 8 93 24c38 25 67 72 67 125c0 61 -38 96 -101 96h-159z" />
    <glyph glyph-name="C" unicode="C" horiz-adv-x="741" 
d="M57 296c0 233 199 422 426 422c85 0 272 -26 250 -139l-18 -87h-91l10 57c13 65 -92 83 -152 83c-181 0 -322 -159 -322 -330c0 -131 80 -227 216 -227c71 0 177 24 189 84l11 54h92l-16 -82c-20 -107 -179 -143 -280 -143c-191 0 -315 127 -315 308z" />
    <glyph glyph-name="D" unicode="D" horiz-adv-x="781" 
d="M-4 0l15 78h88l107 551h-88l15 77h292c64 0 112 -7 159 -23c104 -40 162 -126 162 -257c0 -165 -94 -325 -240 -390c-57 -26 -117 -36 -186 -36h-324zM199 82h115c60 0 109 10 155 32c105 54 175 174 175 304c0 95 -38 157 -105 186c-34 15 -73 20 -120 20h-114z" />
    <glyph glyph-name="E" unicode="E" horiz-adv-x="635" 
d="M-3 0l15 78h88l107 551h-89l16 77h511l-32 -164h-87l16 82h-236l-44 -227h250l-17 -82h-249l-46 -233h253l16 85h88l-33 -167h-527z" />
    <glyph glyph-name="F" unicode="F" horiz-adv-x="582" 
d="M-3 0l15 78h88l107 551h-89l16 77h489l-33 -167h-87l16 81h-214l-45 -234h244l-17 -82h-244l-43 -226h95l-15 -78h-283z" />
    <glyph glyph-name="G" unicode="G" horiz-adv-x="770" 
d="M56 295c0 230 192 423 433 423c109 0 277 -41 258 -139l-17 -87h-92l10 52c13 65 -91 88 -160 88c-190 0 -328 -163 -328 -332c0 -130 80 -225 229 -225c68 0 188 21 201 88l19 93h-139l16 78h230l-39 -198c-22 -111 -184 -148 -296 -148c-199 0 -325 125 -325 307z" />
    <glyph glyph-name="H" unicode="H" horiz-adv-x="850" 
d="M-4 0l15 78h88l107 551h-88l15 77h277l-15 -77h-88l-46 -235h365l46 235h-89l15 77h278l-15 -77h-89l-108 -551h89l-15 -78h-278l15 78h89l46 234h-365l-46 -234h89l-15 -78h-277z" />
    <glyph glyph-name="I" unicode="I" horiz-adv-x="384" 
d="M-4 0l15 78h88l107 551h-88l15 77h277l-15 -77h-89l-107 -551h89l-15 -78h-277z" />
    <glyph glyph-name="J" unicode="J" horiz-adv-x="553" 
d="M0 155c0 41 13 83 13 83h96s-11 -40 -11 -71c0 -56 26 -90 87 -90c54 0 115 32 132 125l83 427h-104l15 77h282l-15 -77h-78l-84 -434c-29 -149 -134 -207 -233 -207c-95 0 -183 51 -183 167z" />
    <glyph glyph-name="K" unicode="K" horiz-adv-x="693" 
d="M-4 0l15 78h88l107 551h-88l15 77h266l-15 -77h-78l-43 -222h86l197 222h-60l15 77h238l-15 -77h-68l-233 -259v-2s16 -10 28 -43l79 -203c10 -28 19 -46 57 -46c11 0 30 2 30 2l-15 -78c-8 -1 -34 -2 -48 -2c-81 0 -104 43 -123 94l-74 200c-8 23 -21 33 -51 33h-59
l-48 -247h87l-16 -78h-274z" />
    <glyph glyph-name="L" unicode="L" horiz-adv-x="603" 
d="M-2 0l15 78h87l107 546h-89l16 82h278l-16 -82h-89l-106 -542h246l23 114h87l-39 -196h-520z" />
    <glyph glyph-name="M" unicode="M" horiz-adv-x="958" 
d="M-18 0l15 78h87l150 551h-89l15 77h197l97 -430c6 -29 6 -51 6 -51h2s10 22 26 51l265 430h203l-16 -77h-88l-65 -551h88l-16 -78h-269l15 78h85l50 422c3 22 14 58 14 58h-3s-14 -34 -27 -54l-233 -371h-89l-90 371c-4 20 -5 54 -5 54h-2s-4 -36 -9 -58l-115 -422h85
l-15 -78h-269z" />
    <glyph glyph-name="N" unicode="N" horiz-adv-x="840" 
d="M-3 0l15 78h88l107 551h-89l16 77h184l249 -511c9 -19 14 -49 14 -49h3s2 33 7 55l84 428h-90l15 77h279l-15 -77h-89l-123 -629h-96l-250 511c-9 20 -14 49 -14 49h-3s-2 -33 -7 -55l-82 -427h90l-15 -78h-278z" />
    <glyph glyph-name="O" unicode="O" horiz-adv-x="824" 
d="M56 296c0 229 206 422 428 422c183 0 307 -125 307 -300c0 -233 -208 -430 -428 -430c-183 0 -307 129 -307 308zM157 300c0 -131 87 -223 213 -223c158 0 319 150 319 336c0 127 -87 217 -213 217c-161 0 -319 -148 -319 -330z" />
    <glyph glyph-name="P" unicode="P" horiz-adv-x="658" 
d="M-4 0l15 78h89l107 551h-89l16 77h321c38 0 74 -3 105 -15c61 -23 105 -82 105 -169c0 -103 -61 -198 -153 -237c-36 -15 -75 -20 -118 -20h-158l-36 -187h89l-15 -78h-278zM252 347h139c30 0 57 5 81 16c54 25 91 84 91 153c0 45 -16 78 -47 94c-18 9 -44 14 -74 14
h-136z" />
    <glyph glyph-name="Q" unicode="Q" horiz-adv-x="823" 
d="M56 296c0 229 206 422 422 422c188 0 314 -125 314 -300c0 -120 -54 -223 -131 -300l65 -78l-64 -58l-65 83c-65 -49 -141 -77 -227 -77c-189 0 -314 129 -314 308zM158 300c0 -131 87 -223 213 -223c59 0 118 21 168 56l-86 106l63 57l84 -105c54 58 90 137 90 222
c0 127 -87 217 -213 217c-162 0 -319 -148 -319 -330z" />
    <glyph glyph-name="R" unicode="R" horiz-adv-x="704" 
d="M-4 0l15 78h89l107 551h-89l16 77h311c46 0 91 -4 126 -22c48 -25 83 -74 83 -149c0 -105 -70 -205 -185 -230v-3s16 -19 24 -38l55 -142c11 -28 20 -46 57 -46c12 0 29 2 29 2l-15 -78c-8 -1 -32 -2 -47 -2c-80 0 -103 44 -122 94l-57 153c-12 33 -29 40 -63 40h-89
l-41 -207h86l-15 -78h-275zM256 367h139c83 0 157 62 157 155c0 41 -14 68 -38 83c-21 14 -54 19 -90 19h-118z" />
    <glyph glyph-name="S" unicode="S" horiz-adv-x="588" 
d="M29 145l14 70h92l-11 -55c-12 -62 64 -83 132 -83c93 0 159 53 159 129c0 148 -309 92 -309 303c0 137 128 209 269 209c83 0 213 -33 194 -124l-16 -76h-92l9 49c10 48 -58 63 -108 63c-85 0 -153 -44 -153 -115c0 -141 309 -84 309 -303c0 -140 -127 -224 -275 -224
c-91 0 -236 38 -214 157z" />
    <glyph glyph-name="T" unicode="T" horiz-adv-x="666" 
d="M135 0l15 78h88l107 546h-166l-21 -110h-88l38 192h606l-38 -192h-87l21 110h-165l-107 -546h89l-15 -78h-277z" />
    <glyph glyph-name="U" unicode="U" horiz-adv-x="801" 
d="M106 195c0 29 6 60 10 84l68 350h-88l15 77h277l-15 -77h-89l-68 -351c-4 -23 -9 -48 -9 -72c0 -80 55 -129 150 -129c54 0 102 15 139 45c37 31 62 75 72 131l74 376h-89l15 77h278l-15 -77h-89l-75 -384c-18 -89 -62 -161 -126 -205c-51 -34 -117 -52 -187 -52
c-143 0 -248 76 -248 207z" />
    <glyph glyph-name="V" unicode="V" horiz-adv-x="712" 
d="M245 0l-101 629h-68l15 77h248l-15 -77h-78l68 -465c3 -25 1 -55 1 -55h3s10 30 22 55l249 465h-78l16 77h254l-15 -77h-69l-346 -629h-106z" />
    <glyph glyph-name="W" unicode="W" horiz-adv-x="1008" 
d="M183 0l-35 629h-68l15 77h248l-15 -77h-84l20 -463c0 -25 -3 -53 -3 -53h4s8 28 20 53l253 540h85l42 -540c1 -25 0 -53 0 -53h3s8 28 18 53l200 463h-84l15 77h255l-15 -77h-68l-281 -629h-114l-40 501c-2 25 2 56 2 56h-4s-8 -31 -20 -56l-235 -501h-114z" />
    <glyph glyph-name="X" unicode="X" horiz-adv-x="670" 
d="M-28 0l15 78h66l238 284l-123 267h-68l15 77h241l-15 -77h-75l82 -187c8 -16 12 -28 12 -28h2s8 12 22 28l149 187h-71l16 77h241l-15 -77h-66l-239 -286l124 -265h69l-16 -78h-240l15 78h74l-82 184c-8 16 -13 30 -13 30h-2s-10 -15 -23 -30l-147 -184h72l-16 -78h-242z
" />
    <glyph glyph-name="Y" unicode="Y" horiz-adv-x="652" 
d="M129 0l15 78h89l43 221l-134 330h-67l15 77h239l-15 -77h-74l87 -222c6 -15 9 -30 9 -30h2s9 15 20 30l175 222h-73l15 77h245l-15 -77h-67l-262 -330l-43 -221h88l-15 -78h-277z" />
    <glyph glyph-name="Z" unicode="Z" horiz-adv-x="635" 
d="M-1 0l13 66l459 525c18 20 36 34 36 34v2s-20 -3 -40 -3h-256l-21 -110h-88l38 192h509l-13 -65l-461 -526c-18 -20 -36 -34 -36 -34v-2s20 3 40 3h271l23 114h87l-39 -196h-522z" />
    <glyph glyph-name="bracketleft" unicode="[" horiz-adv-x="316" 
d="M22 -95l162 830h165l-14 -73h-81l-132 -683h81l-15 -74h-166z" />
    <glyph glyph-name="backslash" unicode="\" horiz-adv-x="422" 
d="M231 -42l-101 786h82l101 -786h-82z" />
    <glyph glyph-name="bracketright" unicode="]" horiz-adv-x="316" 
d="M-11 -21h80l132 683h-80l15 73h166l-162 -830h-165z" />
    <glyph glyph-name="asciicircum" unicode="^" horiz-adv-x="613" 
d="M10 247l200 459h63l200 -459h-88l-144 352l-143 -352h-88z" />
    <glyph glyph-name="underscore" unicode="_" horiz-adv-x="558" 
d="M-48 0h537l-14 -78h-538z" />
    <glyph glyph-name="grave" unicode="`" horiz-adv-x="499" 
d="M202 755l-99 127h108l78 -127h-87z" />
    <glyph glyph-name="a" unicode="a" horiz-adv-x="557" 
d="M0 116c0 159 203 195 340 195h25s7 34 7 50c0 47 -27 77 -92 77c-79 0 -151 -48 -151 -48l-25 75s86 53 193 53c94 0 172 -40 172 -145c0 -59 -46 -212 -46 -256c0 -36 21 -44 46 -44c14 0 23 2 23 2l-14 -75s-18 -2 -46 -2c-57 0 -103 23 -104 92h-2
c1 0 -65 -102 -179 -102c-80 0 -147 44 -147 128zM97 132c0 -39 24 -69 79 -69c82 0 153 91 172 165l5 20h-26c-71 0 -230 -10 -230 -116z" />
    <glyph glyph-name="b" unicode="b" horiz-adv-x="612" 
d="M29 0l122 631h-85l15 75h181l-44 -229c-5 -24 -13 -46 -13 -46h2c36 51 102 87 169 87c120 0 189 -81 189 -208c0 -191 -136 -322 -276 -322c-69 0 -129 31 -154 92h-2s-1 -19 -5 -41l-8 -39h-91zM166 200c0 -70 34 -128 114 -128c86 0 186 86 186 231
c0 81 -43 130 -114 130c-105 0 -186 -112 -186 -233z" />
    <glyph glyph-name="c" unicode="c" horiz-adv-x="557" 
d="M28 210c0 164 143 308 322 308c73 0 194 -29 178 -119l-12 -58h-86l7 34c7 41 -49 59 -97 59c-110 0 -213 -100 -213 -217c0 -88 57 -145 151 -145c101 0 173 66 173 66l28 -75s-77 -75 -210 -75c-148 0 -241 90 -241 222z" />
    <glyph glyph-name="d" unicode="d" horiz-adv-x="640" 
d="M30 195c0 192 133 323 279 323c63 0 124 -26 147 -87h2s1 19 5 37l31 163h-84l15 75h181l-108 -558c-2 -11 -4 -22 -4 -31c0 -36 21 -44 46 -44c14 0 23 2 23 2l-14 -75s-22 -2 -42 -2c-64 0 -109 23 -107 91h-2c-34 -54 -102 -101 -178 -101c-122 0 -190 81 -190 207z
M129 202c0 -81 43 -130 114 -130c106 0 185 117 185 233c0 70 -34 128 -113 128c-87 0 -186 -86 -186 -231z" />
    <glyph glyph-name="e" unicode="e" horiz-adv-x="556" 
d="M30 204c0 168 125 314 295 314c130 0 192 -78 192 -187c0 -41 -16 -87 -16 -87h-368s-4 -17 -4 -36c0 -78 51 -136 144 -136c87 0 162 58 162 58l27 -76s-85 -66 -194 -66c-148 0 -238 90 -238 216zM147 306h270s3 17 3 33c0 68 -40 102 -98 102
c-74 0 -144 -49 -175 -135z" />
    <glyph glyph-name="f" unicode="f" horiz-adv-x="351" 
d="M57 0l83 431h-84l15 75h83l5 22c33 166 162 185 221 185c26 0 44 -3 44 -3l-17 -79s-12 2 -29 2c-34 0 -101 -8 -121 -103l-5 -24h122l-14 -75h-122l-84 -431h-97z" />
    <glyph glyph-name="g" unicode="g" horiz-adv-x="627" 
d="M43 -95c0 0 55 -33 135 -33c91 0 169 39 191 160c8 38 15 57 15 57h-2c-37 -52 -87 -83 -156 -83c-124 0 -193 85 -193 205c0 141 95 307 267 307c91 0 145 -42 156 -85h2s-1 7 2 21c6 32 26 52 67 52h109l-14 -75h-56c-13 0 -23 -7 -26 -20l-76 -395
c-33 -167 -160 -226 -280 -226c-94 0 -155 30 -182 45zM132 218c0 -78 41 -128 117 -128c118 0 175 133 175 235c0 83 -52 109 -116 109c-113 0 -176 -109 -176 -216z" />
    <glyph glyph-name="h" unicode="h" horiz-adv-x="643" 
d="M29 0l122 631h-81l14 75h179l-50 -261c-5 -24 -13 -45 -13 -45h2c15 30 91 118 208 118c88 0 142 -46 142 -133c0 -62 -44 -228 -44 -268c0 -38 20 -44 45 -44c14 0 24 2 24 2l-15 -75s-19 -2 -43 -2c-45 0 -111 9 -111 95c0 48 43 213 43 263c0 48 -27 73 -75 73
c-102 0 -185 -94 -206 -202l-45 -227h-96z" />
    <glyph glyph-name="i" unicode="i" horiz-adv-x="319" 
d="M167 607l20 99h102l-20 -99h-102zM73 95c0 12 2 27 5 44l58 292h-85l15 75h181l-70 -358c-2 -11 -4 -22 -4 -31c0 -36 21 -44 46 -44c14 0 23 2 23 2l-14 -75s-23 -2 -40 -2c-50 0 -115 8 -115 97z" />
    <glyph glyph-name="j" unicode="j" horiz-adv-x="298" 
d="M172 607l19 99h102l-19 -99h-102zM54 -16l86 447h-85l15 75h182l-101 -518c-32 -170 -157 -194 -218 -194c-28 0 -46 2 -46 2l16 78s8 -1 22 -1c37 0 110 12 129 111z" />
    <glyph glyph-name="k" unicode="k" horiz-adv-x="559" 
d="M28 0l123 631h-84l14 75h182l-77 -395h64l129 120h-63l14 75h226l-15 -75h-59l-163 -152v-2s14 -11 27 -40l55 -121c10 -24 21 -42 56 -42c7 0 28 1 28 1l-14 -75c-7 -1 -28 -2 -44 -2c-81 0 -96 40 -118 90l-56 125c-8 18 -18 24 -41 24h-40l-48 -237h-96z" />
    <glyph glyph-name="l" unicode="l" horiz-adv-x="295" 
d="M49 98c0 13 2 29 5 46l95 487h-85l15 75h181l-106 -553c-3 -12 -5 -26 -5 -34c0 -37 20 -42 46 -42c15 0 24 2 24 2l-16 -80s-20 -2 -40 -2c-49 0 -114 12 -114 101z" />
    <glyph glyph-name="m" unicode="m" horiz-adv-x="986" 
d="M57 0l80 410c2 13 -2 21 -18 21h-63l15 75h114c40 0 55 -15 55 -42c0 -12 -8 -51 -15 -69h2c24 45 106 123 201 123c81 0 122 -43 127 -123h2c39 69 115 123 199 123c86 0 139 -48 139 -134c0 -60 -44 -227 -44 -267c0 -38 20 -44 45 -44c14 0 24 2 24 2l-15 -75
s-19 -2 -43 -2c-45 0 -111 9 -111 95c0 47 43 216 43 264c0 44 -16 73 -74 73c-94 0 -166 -102 -184 -199l-45 -231h-97l59 303c3 20 7 40 7 57c0 41 -16 70 -72 70c-97 0 -170 -104 -190 -204l-44 -226h-97z" />
    <glyph glyph-name="n" unicode="n" horiz-adv-x="672" 
d="M57 0l80 409c2 13 -2 22 -18 22h-63l15 75h115c39 0 54 -15 54 -43c0 -11 -7 -49 -15 -68h2c15 31 90 123 214 123c86 0 140 -46 140 -133c0 -62 -44 -228 -44 -268c0 -38 20 -44 45 -44c14 0 24 2 24 2l-15 -75s-20 -2 -43 -2c-45 0 -111 9 -111 95c0 48 43 213 43 263
c0 48 -26 73 -76 73c-99 0 -185 -94 -206 -202l-44 -227h-97z" />
    <glyph glyph-name="o" unicode="o" horiz-adv-x="627" 
d="M29 211c0 174 154 307 319 307c137 0 233 -90 233 -221c0 -176 -155 -309 -319 -309c-137 0 -233 91 -233 223zM128 215c0 -85 58 -143 142 -143c105 0 212 95 212 220c0 84 -58 142 -142 142c-106 0 -212 -95 -212 -219z" />
    <glyph glyph-name="p" unicode="p" horiz-adv-x="642" 
d="M18 -200l118 609c2 13 -1 22 -17 22h-63l15 75h113c41 0 52 -16 52 -39c0 -10 -6 -32 -10 -46h2c35 55 98 97 177 97c120 0 189 -81 189 -208c0 -191 -135 -322 -275 -322c-67 0 -125 29 -151 88h-2s-1 -21 -6 -47l-45 -229h-97zM196 202c0 -71 35 -130 113 -130
c87 0 186 86 186 231c0 81 -42 130 -114 130c-103 0 -185 -113 -185 -231z" />
    <glyph glyph-name="q" unicode="q" horiz-adv-x="613" 
d="M30 194c0 193 134 324 279 324c72 0 128 -30 152 -90h2s0 14 4 35l8 43h92l-123 -633h85l-15 -73h-182l46 231c5 26 13 47 13 47h-2c-29 -43 -86 -90 -169 -90c-121 0 -190 81 -190 206zM129 202c0 -81 43 -130 114 -130c106 0 186 117 186 233c0 70 -35 128 -113 128
c-87 0 -187 -86 -187 -231z" />
    <glyph glyph-name="r" unicode="r" horiz-adv-x="409" 
d="M57 0l79 409c2 12 -1 22 -18 22h-63l16 75h114c39 0 54 -14 54 -43c0 -13 -10 -62 -18 -86h2c34 72 102 135 182 135c13 0 24 -1 30 -2l-19 -96c-5 1 -14 3 -27 3c-93 0 -177 -113 -199 -229l-36 -188h-97z" />
    <glyph glyph-name="s" unicode="s" horiz-adv-x="486" 
d="M5 113l9 50h85l-6 -33c-11 -55 69 -63 109 -63c64 0 115 28 115 74c0 96 -243 68 -243 222c0 103 107 155 215 155c84 0 172 -34 157 -108l-11 -55h-85l7 36c8 40 -47 49 -82 49c-54 0 -105 -24 -105 -70c0 -97 243 -65 243 -216c0 -98 -90 -166 -225 -166
c-86 0 -201 34 -183 125z" />
    <glyph glyph-name="t" unicode="t" horiz-adv-x="357" 
d="M75 144c0 15 2 32 6 51l46 236h-85l15 75h87l27 139h94l-27 -139h122l-15 -75h-122l-45 -236c-3 -14 -4 -29 -4 -39c0 -69 46 -80 84 -80c16 0 28 2 28 2l-16 -80s-16 -2 -32 -2c-78 0 -163 28 -163 148z" />
    <glyph glyph-name="u" unicode="u" horiz-adv-x="666" 
d="M74 121c0 19 2 41 7 64l47 246h-84l15 75h181l-58 -301c-5 -21 -8 -42 -8 -58c0 -44 19 -71 76 -71c101 0 183 104 201 200l30 155h-84l15 75h181l-70 -358c-2 -11 -3 -22 -3 -31c0 -36 20 -44 45 -44c15 0 24 2 24 2l-15 -75s-22 -2 -46 -2c-68 0 -108 35 -101 111h-2
c-33 -52 -103 -121 -209 -121c-77 0 -142 38 -142 133z" />
    <glyph glyph-name="v" unicode="v" horiz-adv-x="583" 
d="M179 0l-79 431h-64l14 75h224l-15 -75h-65l50 -295c4 -22 2 -47 2 -47h3s8 25 20 47l165 295h-65l15 75h229l-14 -75h-64l-247 -431h-109z" />
    <glyph glyph-name="w" unicode="w" horiz-adv-x="860" 
d="M147 0l-47 431h-63l15 75h223l-14 -75h-69l29 -294c2 -21 -1 -47 -1 -47h3s7 26 16 47l184 368h89l38 -368c2 -21 -1 -47 -1 -47h3s7 26 17 47l144 294h-68l14 75h230l-15 -75h-63l-214 -431h-109l-40 338c-2 23 0 48 0 48h-3s-7 -25 -18 -48l-172 -338h-108z" />
    <glyph glyph-name="x" unicode="x" horiz-adv-x="563" 
d="M-20 0l14 75h70l159 188l-67 150c-7 14 -13 18 -29 18h-60l15 75h94c30 0 40 -8 52 -36l47 -113c6 -15 11 -31 11 -31h2s9 16 23 32l119 148h134l-14 -75h-72l-151 -176l64 -139c12 -25 23 -42 60 -42c11 0 34 1 34 1l-15 -75c-7 -1 -27 -2 -43 -2c-83 0 -99 41 -120 90
l-30 75c-7 14 -12 31 -12 31h-2s-9 -15 -22 -32l-129 -162h-132z" />
    <glyph glyph-name="y" unicode="y" horiz-adv-x="592" 
d="M-15 -107c0 0 24 -22 67 -22s82 30 107 70l30 50l-91 440h-64l15 75h227l-14 -75h-67l54 -301c4 -22 1 -44 1 -44h3s8 22 21 44l170 301h-65l15 75h227l-15 -75h-62l-301 -511c-53 -91 -120 -130 -193 -130c-72 0 -110 33 -110 33z" />
    <glyph glyph-name="z" unicode="z" horiz-adv-x="530" 
d="M-11 0l12 64l331 328c20 21 42 39 42 39v2s-20 -2 -48 -2h-158l-15 -81h-85l31 156h413l-13 -64l-330 -328c-21 -21 -43 -40 -43 -39v-2s21 2 49 2h179l16 81h84l-30 -156h-435z" />
    <glyph glyph-name="braceleft" unicode="{" horiz-adv-x="341" 
d="M73 32c0 15 2 32 5 51l17 90c2 11 3 21 3 29c0 74 -66 80 -66 80l17 86s86 7 106 111l18 90c31 158 143 172 217 167l-14 -74c-30 3 -102 -6 -121 -105l-21 -110c-20 -100 -106 -121 -106 -121v-2s59 -25 59 -103c0 -9 -1 -18 -3 -29l-21 -107c-2 -13 -4 -26 -4 -37
c0 -68 57 -72 84 -70l-14 -74s-10 -2 -24 -2c-34 0 -132 15 -132 130z" />
    <glyph glyph-name="bar" unicode="|" horiz-adv-x="332" 
d="M126 -159v951h86v-951h-86z" />
    <glyph glyph-name="braceright" unicode="}" horiz-adv-x="341" 
d="M-41 -97l14 75c32 -4 102 6 121 105l23 119c20 103 106 124 106 124v2s-59 24 -59 100c0 10 1 19 3 30l19 99c3 13 4 25 4 35c0 68 -57 72 -84 70l15 74c52 7 156 -13 156 -128c0 -15 -2 -33 -6 -51l-15 -80c-2 -11 -3 -21 -3 -29c0 -75 67 -80 67 -80l-17 -86
s-86 -7 -107 -111l-19 -100c-31 -158 -144 -174 -218 -168z" />
    <glyph glyph-name="asciitilde" unicode="~" horiz-adv-x="599" 
d="M59 204c0 116 54 169 140 169c105 0 116 -98 192 -98c52 0 66 52 66 94h79c0 -117 -53 -169 -139 -169c-105 0 -116 97 -192 97c-52 0 -66 -52 -66 -93h-80z" />
    <glyph glyph-name="exclamdown" unicode="&#xa1;" horiz-adv-x="245" 
d="M92 408l20 98h101l-20 -98h-101zM-25 -200l107 512h87l-93 -512h-101z" />
    <glyph glyph-name="cent" unicode="&#xa2;" horiz-adv-x="565" 
d="M197 -13l17 88c-99 20 -164 98 -164 219c0 168 117 327 273 340l16 84h71l-17 -88c134 -24 155 -151 155 -151l-88 -33s-14 98 -116 98c-112 0 -194 -114 -194 -248c0 -79 39 -133 120 -133c100 0 155 97 155 97l83 -35s-71 -144 -224 -155l-16 -83h-71z" />
    <glyph glyph-name="sterling" unicode="&#xa3;" horiz-adv-x="616" 
d="M-11 0l15 80h86l47 239h-70l14 70h68l29 143c20 106 119 186 239 186c108 0 166 -68 166 -68l-64 -61s-40 40 -104 40c-74 0 -128 -48 -139 -108l-26 -132h180l-14 -70h-179l-47 -239h253l23 116h87l-38 -196h-526z" />
    <glyph glyph-name="yen" unicode="&#xa5;" horiz-adv-x="634" 
d="M205 0l40 199h-163l11 63h163l8 37l-18 48h-136l12 63h103l-107 296h107l76 -220c13 -47 26 -102 26 -102h2s30 54 61 101l160 221h118l-223 -296h102l-12 -63h-136l-35 -48l-8 -37h162l-12 -63h-161l-40 -199h-100z" />
    <glyph glyph-name="section" unicode="&#xa7;" horiz-adv-x="433" 
d="M101 111l6 385c-3 121 73 222 207 222c92 0 144 -54 144 -54l-54 -58s-33 31 -90 31c-84 0 -130 -61 -129 -141l-7 -385h-77zM-13 -8l54 59s33 -31 90 -31c84 0 130 60 129 140l7 385h77l-6 -385c2 -120 -74 -222 -208 -222c-91 0 -143 54 -143 54z" />
    <glyph glyph-name="dieresis" unicode="&#xa8;" horiz-adv-x="499" 
d="M243 781l21 101h86l-21 -101h-86zM43 781l20 101h87l-21 -101h-86z" />
    <glyph glyph-name="copyright" unicode="&#xa9;" horiz-adv-x="815" 
d="M61 353c0 203 159 365 355 365c200 0 359 -162 359 -365s-159 -365 -359 -365c-196 0 -355 162 -355 365zM135 353c0 -167 122 -297 281 -297c162 0 286 130 286 297s-124 297 -286 297c-159 0 -281 -130 -281 -297zM227 352c0 105 76 200 197 200c115 0 163 -99 163 -99
l-61 -33s-34 63 -100 63c-78 0 -124 -62 -124 -131c0 -71 44 -131 124 -131c67 0 100 63 100 63l61 -33s-49 -99 -163 -99c-122 0 -197 94 -197 200z" />
    <glyph glyph-name="ordfeminine" unicode="&#xaa;" horiz-adv-x="427" 
d="M202 382c-45 0 -94 28 -94 85c0 118 156 120 206 120h16s2 10 2 12c6 38 -12 59 -52 59c-44 0 -89 -27 -89 -27l-21 51s52 34 126 34c72 0 110 -33 110 -97c0 -10 -2 -24 -5 -37l-38 -193h-68l10 48h-2s-37 -55 -101 -55zM226 439c46 0 86 54 94 101h-11
c-40 0 -127 -6 -127 -65c0 -21 14 -36 44 -36zM68 265l11 57h275l-11 -57h-275z" />
    <glyph glyph-name="guillemotleft" unicode="&#xab;" horiz-adv-x="563" 
d="M367 77l-128 207l207 204h103l-217 -210l127 -201h-92zM168 77l-128 207l191 204h102l-200 -210l127 -201h-92z" />
    <glyph glyph-name="logicalnot" unicode="&#xac;" horiz-adv-x="632" 
d="M71 340v78h477v-267h-81v189h-396z" />
    <glyph glyph-name="registered" unicode="&#xae;" horiz-adv-x="815" 
d="M61 353c0 203 159 365 355 365c200 0 359 -162 359 -365s-159 -365 -359 -365c-196 0 -355 162 -355 365zM135 353c0 -167 122 -297 281 -297c162 0 286 130 286 297s-124 297 -286 297c-159 0 -281 -130 -281 -297zM294 166v377h146c71 0 118 -45 118 -115
c0 -58 -38 -92 -69 -100v-2s4 -4 13 -21l73 -139h-78l-70 146h-62v-146h-71zM365 364h60c38 0 61 24 61 64c0 39 -23 61 -60 61h-61v-125z" />
    <glyph glyph-name="macron" unicode="&#xaf;" horiz-adv-x="499" 
d="M63 784l13 71h254l-13 -71h-254z" />
    <glyph glyph-name="degree" unicode="&#xb0;" horiz-adv-x="394" 
d="M231 422c-81 0 -137 55 -137 130c0 87 85 166 171 166c80 0 137 -56 137 -130c0 -89 -87 -166 -171 -166zM236 496c45 0 88 40 88 87c0 36 -26 62 -63 62c-46 0 -89 -42 -89 -89c0 -35 25 -60 64 -60z" />
    <glyph glyph-name="plusminus" unicode="&#xb1;" horiz-adv-x="613" 
d="M40 246v78h224v246h82v-246h223v-78h-223v-246h-82v246h-224zM56 -95h497v-78h-497v78z" />
    <glyph glyph-name="twosuperior" unicode="&#xb2;" horiz-adv-x="379" 
d="M64 423c4 208 271 210 271 325c0 31 -24 53 -59 53c-51 0 -95 -48 -95 -48l-44 49s60 68 144 68c76 0 132 -44 132 -115c0 -155 -231 -170 -260 -270h159l10 51h63l-22 -113h-299z" />
    <glyph glyph-name="threesuperior" unicode="&#xb3;" horiz-adv-x="376" 
d="M215 413c-101 0 -149 66 -149 66l49 49s34 -46 100 -46c49 0 95 39 95 89c0 38 -37 58 -76 58h-31l-10 36l117 115c12 12 26 20 26 20v3s-14 -3 -30 -3h-98l-10 -53h-63l22 113h278l-9 -48l-135 -130c40 -9 95 -40 95 -110c0 -80 -73 -159 -171 -159z" />
    <glyph glyph-name="acute" unicode="&#xb4;" horiz-adv-x="499" 
d="M74 755l128 127h116l-148 -127h-96z" />
    <glyph glyph-name="mu" unicode="&#xb5;" horiz-adv-x="600" 
d="M90 -59l-27 -141h-86l137 706h97l-58 -298c-5 -22 -7 -42 -7 -58c0 -44 19 -72 77 -72c100 0 183 99 202 198l45 230h97l-99 -506h-94l11 59c5 24 13 48 13 48h-2c-28 -49 -102 -119 -205 -119c-36 0 -69 10 -90 33h-2s-3 -51 -9 -80z" />
    <glyph glyph-name="mu" unicode="&#x3bc;" horiz-adv-x="600" 
d="M90 -59l-27 -141h-86l137 706h97l-58 -298c-5 -22 -7 -42 -7 -58c0 -44 19 -72 77 -72c100 0 183 99 202 198l45 230h97l-99 -506h-94l11 59c5 24 13 48 13 48h-2c-28 -49 -102 -119 -205 -119c-36 0 -69 10 -90 33h-2s-3 -51 -9 -80z" />
    <glyph glyph-name="paragraph" unicode="&#xb6;" horiz-adv-x="601" 
d="M207 -50l57 291c-102 0 -196 85 -196 203c0 143 137 262 273 262h284l-16 -86h-197l-130 -670h-75zM344 -50l119 613h74l-118 -613h-75z" />
    <glyph glyph-name="periodcentered" unicode="&#xb7;" horiz-adv-x="280" 
d="M77 237l20 105h101l-20 -105h-101z" />
    <glyph glyph-name="cedilla" unicode="&#xb8;" horiz-adv-x="499" 
d="M125 -97l55 120l47 -10l-1 -8l-27 -61c37 -4 67 -28 67 -68c0 -67 -71 -93 -127 -93c-32 0 -56 7 -56 7l11 53s17 -6 42 -6c23 0 59 7 59 37c0 19 -22 29 -53 29h-17z" />
    <glyph glyph-name="onesuperior" unicode="&#xb9;" horiz-adv-x="336" 
d="M63 423l12 62h103l47 242c3 20 9 36 9 36h-2s-10 -14 -25 -25l-49 -40l-37 50l138 112h67l-73 -375h102l-12 -62h-280z" />
    <glyph glyph-name="ordmasculine" unicode="&#xba;" horiz-adv-x="473" 
d="M258 384c-88 0 -147 57 -147 139c0 109 97 194 199 194c88 0 148 -58 148 -140c0 -110 -100 -193 -200 -193zM264 449c59 0 121 52 121 124c0 47 -34 80 -81 80c-60 0 -120 -54 -120 -124c0 -49 33 -80 80 -80zM74 265l11 57h312l-11 -57h-312z" />
    <glyph glyph-name="guillemotright" unicode="&#xbb;" horiz-adv-x="564" 
d="M224 77l201 210l-128 201h92l129 -207l-192 -204h-102zM8 77l218 210l-128 201h92l129 -207l-208 -204h-103z" />
    <glyph glyph-name="onequarter" unicode="&#xbc;" horiz-adv-x="962" 
d="M732 0l21 109h-207l9 48l254 280h82l-52 -269h61l-11 -59h-62l-21 -109h-74zM635 168h130l28 146c4 20 13 45 13 45h-3s-13 -22 -29 -39l-139 -150v-2zM290 0h-80l473 706h79zM50 269l12 62h103l47 242c3 20 9 36 9 36h-2s-10 -14 -25 -25l-49 -40l-37 50l138 112h67
l-73 -375h102l-12 -62h-280z" />
    <glyph glyph-name="foursuperior" unicode="&#x2074;" horiz-adv-x="394" 
d="M254 423l21 109h-207l9 48l254 280h82l-52 -269h61l-11 -59h-62l-21 -109h-74zM157 591h130l28 146c4 20 13 45 13 45h-3s-13 -22 -29 -39l-139 -150v-2z" />
    <glyph glyph-name="fraction" unicode="&#x2044;" horiz-adv-x="149" 
d="M-110 0h-80l473 706h79z" />
    <glyph glyph-name="onehalf" unicode="&#xbd;" horiz-adv-x="946" 
d="M547 0c4 208 271 210 271 325c0 31 -24 53 -59 53c-51 0 -95 -48 -95 -48l-44 49s60 68 144 68c76 0 132 -44 132 -115c0 -155 -231 -170 -260 -270h159l10 51h63l-22 -113h-299zM285 0h-80l473 706h79zM44 269l12 62h103l47 242c3 20 9 36 9 36h-2s-10 -14 -25 -25
l-49 -40l-37 50l138 112h67l-73 -375h102l-12 -62h-280z" />
    <glyph glyph-name="threequarters" unicode="&#xbe;" horiz-adv-x="975" 
d="M742 0l21 109h-207l9 48l254 280h82l-52 -269h61l-11 -59h-62l-21 -109h-74zM645 168h130l28 146c4 20 13 45 13 45h-3s-13 -22 -29 -39l-139 -150v-2zM200 259c-101 0 -149 66 -149 66l49 49s34 -46 100 -46c49 0 95 39 95 89c0 38 -37 58 -76 58h-31l-10 36l117 115
c12 12 26 20 26 20v3s-14 -3 -30 -3h-98l-10 -53h-63l22 113h278l-9 -48l-135 -130c40 -9 95 -40 95 -110c0 -80 -73 -159 -171 -159zM300 0h-80l473 706h79z" />
    <glyph glyph-name="questiondown" unicode="&#xbf;" horiz-adv-x="475" 
d="M246 408l20 98h100l-19 -98h-101zM-12 -50c0 177 211 206 236 325l8 37h94l-8 -43c-33 -161 -227 -185 -227 -307c0 -47 37 -82 96 -82c66 0 122 43 122 43l43 -75s-79 -58 -178 -58c-107 0 -186 61 -186 160z" />
    <glyph glyph-name="Agrave" unicode="&#xc0;" horiz-adv-x="723" 
d="M-46 0l15 78h68l348 628h112l102 -628h69l-16 -78h-241l15 78h75l-24 157h-250l-86 -157h76l-16 -78h-247zM268 315h199l-38 245c-3 29 -2 54 -2 54h-3s-7 -25 -22 -54zM419 755l-99 127h108l78 -127h-87z" />
    <glyph glyph-name="Aacute" unicode="&#xc1;" horiz-adv-x="723" 
d="M-46 0l15 78h68l348 628h112l102 -628h69l-16 -78h-241l15 78h75l-24 157h-250l-86 -157h76l-16 -78h-247zM268 315h199l-38 245c-3 29 -2 54 -2 54h-3s-7 -25 -22 -54zM387 755l128 127h116l-148 -127h-96z" />
    <glyph glyph-name="Acircumflex" unicode="&#xc2;" horiz-adv-x="723" 
d="M-46 0l15 78h68l348 628h112l102 -628h69l-16 -78h-241l15 78h75l-24 157h-250l-86 -157h76l-16 -78h-247zM268 315h199l-38 245c-3 29 -2 54 -2 54h-3s-7 -25 -22 -54zM305 755l113 127h105l63 -127h-84l-36 80h-2l-68 -80h-91z" />
    <glyph glyph-name="circumflex" unicode="&#x2c6;" horiz-adv-x="499" 
d="M37 755l113 127h105l63 -127h-84l-36 80h-2l-68 -80h-91z" />
    <glyph glyph-name="Atilde" unicode="&#xc3;" horiz-adv-x="723" 
d="M-46 0l15 78h68l348 628h112l102 -628h69l-16 -78h-241l15 78h75l-24 157h-250l-86 -157h76l-16 -78h-247zM268 315h199l-38 245c-3 29 -2 54 -2 54h-3s-7 -25 -22 -54zM287 756c16 81 58 127 117 127c69 0 71 -67 111 -67c29 0 42 37 48 64h73
c-14 -81 -58 -127 -116 -127c-68 0 -72 67 -111 67c-29 0 -43 -34 -49 -64h-73z" />
    <glyph glyph-name="tilde" unicode="&#x2dc;" horiz-adv-x="499" 
d="M17 756c16 81 58 127 117 127c69 0 71 -67 111 -67c29 0 42 37 48 64h73c-14 -81 -58 -127 -116 -127c-68 0 -72 67 -111 67c-29 0 -43 -34 -49 -64h-73z" />
    <glyph glyph-name="Adieresis" unicode="&#xc4;" horiz-adv-x="723" 
d="M-46 0l15 78h68l348 628h112l102 -628h69l-16 -78h-241l15 78h75l-24 157h-250l-86 -157h76l-16 -78h-247zM268 315h199l-38 245c-3 29 -2 54 -2 54h-3s-7 -25 -22 -54zM511 781l21 101h86l-21 -101h-86zM311 781l20 101h87l-21 -101h-86z" />
    <glyph glyph-name="Aring" unicode="&#xc5;" horiz-adv-x="723" 
d="M-46 0l15 78h68l348 628h112l102 -628h69l-16 -78h-241l15 78h75l-24 157h-250l-86 -157h76l-16 -78h-247zM268 315h199l-38 245c-3 29 -2 54 -2 54h-3s-7 -25 -22 -54zM451 739c-44 0 -81 25 -81 68c0 55 54 90 101 90c45 0 82 -26 82 -70c0 -53 -53 -88 -102 -88z
M454 781c25 0 44 19 44 46c0 17 -11 28 -29 28c-22 0 -44 -19 -44 -47c0 -16 11 -27 29 -27z" />
    <glyph glyph-name="ring" unicode="&#x2da;" horiz-adv-x="500" 
d="M183 739c-44 0 -81 25 -81 68c0 55 54 90 101 90c45 0 82 -26 82 -70c0 -53 -53 -88 -102 -88zM186 781c25 0 44 19 44 46c0 17 -11 28 -29 28c-22 0 -44 -19 -44 -47c0 -16 11 -27 29 -27z" />
    <glyph glyph-name="AE" unicode="&#xc6;" horiz-adv-x="948" 
d="M-43 0l15 78h62l333 551h-76l16 77h651l-32 -164h-83l16 82h-237l-45 -227h248l-16 -82h-248l-45 -233h254l16 83h83l-32 -165h-523l15 78h86l47 238h-181l-143 -238h75l-15 -78h-241zM327 394h150l45 230h-57z" />
    <glyph glyph-name="Ccedilla" unicode="&#xc7;" horiz-adv-x="741" 
d="M273 -97l41 90c-158 22 -257 141 -257 303c0 233 199 422 426 422c85 0 272 -26 250 -139l-18 -87h-91l10 57c13 65 -92 83 -152 83c-181 0 -322 -159 -322 -330c0 -131 80 -227 216 -227c71 0 177 24 189 84l11 54h92l-16 -82c-20 -107 -179 -143 -280 -143h-6l-19 -44
c37 -4 67 -28 67 -68c0 -67 -71 -93 -127 -93c-32 0 -56 7 -56 7l11 53s18 -6 43 -6c22 0 58 7 58 37c0 19 -22 29 -53 29h-17z" />
    <glyph glyph-name="Egrave" unicode="&#xc8;" horiz-adv-x="635" 
d="M-3 0l15 78h88l107 551h-89l16 77h511l-32 -164h-87l16 82h-236l-44 -227h250l-17 -82h-249l-46 -233h253l16 85h88l-33 -167h-527zM386 755l-99 127h108l78 -127h-87z" />
    <glyph glyph-name="Eacute" unicode="&#xc9;" horiz-adv-x="635" 
d="M354 755l128 127h116l-148 -127h-96zM-3 0l15 78h88l107 551h-89l16 77h511l-32 -164h-87l16 82h-236l-44 -227h250l-17 -82h-249l-46 -233h253l16 85h88l-33 -167h-527z" />
    <glyph glyph-name="Ecircumflex" unicode="&#xca;" horiz-adv-x="635" 
d="M272 755l113 127h105l63 -127h-84l-36 80h-2l-68 -80h-91zM-3 0l15 78h88l107 551h-89l16 77h511l-32 -164h-87l16 82h-236l-44 -227h250l-17 -82h-249l-46 -233h253l16 85h88l-33 -167h-527z" />
    <glyph glyph-name="Edieresis" unicode="&#xcb;" horiz-adv-x="635" 
d="M478 781l21 101h86l-21 -101h-86zM278 781l20 101h87l-21 -101h-86zM-3 0l15 78h88l107 551h-89l16 77h511l-32 -164h-87l16 82h-236l-44 -227h250l-17 -82h-249l-46 -233h253l16 85h88l-33 -167h-527z" />
    <glyph glyph-name="Igrave" unicode="&#xcc;" horiz-adv-x="384" 
d="M-4 0l15 78h88l107 551h-88l15 77h277l-15 -77h-89l-107 -551h89l-15 -78h-277zM249 755l-99 127h108l78 -127h-87z" />
    <glyph glyph-name="Iacute" unicode="&#xcd;" horiz-adv-x="384" 
d="M-4 0l15 78h88l107 551h-88l15 77h277l-15 -77h-89l-107 -551h89l-15 -78h-277zM217 755l128 127h116l-148 -127h-96z" />
    <glyph glyph-name="Icircumflex" unicode="&#xce;" horiz-adv-x="384" 
d="M-4 0l15 78h88l107 551h-88l15 77h277l-15 -77h-89l-107 -551h89l-15 -78h-277zM135 755l113 127h105l63 -127h-84l-36 80h-2l-68 -80h-91z" />
    <glyph glyph-name="Idieresis" unicode="&#xcf;" horiz-adv-x="384" 
d="M-4 0l15 78h88l107 551h-88l15 77h277l-15 -77h-89l-107 -551h89l-15 -78h-277zM342 781l21 101h86l-21 -101h-86zM142 781l20 101h87l-21 -101h-86z" />
    <glyph glyph-name="Eth" unicode="&#xd0;" horiz-adv-x="786" 
d="M-4 0l15 78h88l46 234h-76l16 82h76l46 235h-89l15 77h305c195 0 313 -100 313 -275c0 -237 -172 -431 -417 -431h-338zM200 82h127c188 0 322 149 322 341c0 131 -82 201 -217 201h-126l-45 -230h154l-16 -82h-154z" />
    <glyph glyph-name="Ntilde" unicode="&#xd1;" horiz-adv-x="840" 
d="M-3 0l15 78h88l107 551h-89l16 77h184l249 -511c9 -19 14 -49 14 -49h3s2 33 7 55l84 428h-90l15 77h279l-15 -77h-89l-123 -629h-96l-250 511c-9 20 -14 49 -14 49h-3s-2 -33 -7 -55l-82 -427h90l-15 -78h-278zM351 756c16 81 58 127 117 127c69 0 71 -67 111 -67
c29 0 42 37 48 64h73c-14 -81 -58 -127 -116 -127c-68 0 -72 67 -111 67c-29 0 -43 -34 -49 -64h-73z" />
    <glyph glyph-name="Ograve" unicode="&#xd2;" horiz-adv-x="824" 
d="M56 296c0 229 206 422 428 422c183 0 307 -125 307 -300c0 -233 -208 -430 -428 -430c-183 0 -307 129 -307 308zM157 300c0 -131 87 -223 213 -223c158 0 319 150 319 336c0 127 -87 217 -213 217c-161 0 -319 -148 -319 -330zM471 755l-99 127h108l78 -127h-87z" />
    <glyph glyph-name="Oacute" unicode="&#xd3;" horiz-adv-x="824" 
d="M439 755l128 127h116l-148 -127h-96zM56 296c0 229 206 422 428 422c183 0 307 -125 307 -300c0 -233 -208 -430 -428 -430c-183 0 -307 129 -307 308zM157 300c0 -131 87 -223 213 -223c158 0 319 150 319 336c0 127 -87 217 -213 217c-161 0 -319 -148 -319 -330z" />
    <glyph glyph-name="Ocircumflex" unicode="&#xd4;" horiz-adv-x="824" 
d="M357 755l113 127h105l63 -127h-84l-36 80h-2l-68 -80h-91zM56 296c0 229 206 422 428 422c183 0 307 -125 307 -300c0 -233 -208 -430 -428 -430c-183 0 -307 129 -307 308zM157 300c0 -131 87 -223 213 -223c158 0 319 150 319 336c0 127 -87 217 -213 217
c-161 0 -319 -148 -319 -330z" />
    <glyph glyph-name="Otilde" unicode="&#xd5;" horiz-adv-x="824" 
d="M56 296c0 229 206 422 428 422c183 0 307 -125 307 -300c0 -233 -208 -430 -428 -430c-183 0 -307 129 -307 308zM157 300c0 -131 87 -223 213 -223c158 0 319 150 319 336c0 127 -87 217 -213 217c-161 0 -319 -148 -319 -330zM338 756c16 81 58 127 117 127
c69 0 71 -67 111 -67c29 0 42 37 48 64h73c-14 -81 -58 -127 -116 -127c-68 0 -72 67 -111 67c-29 0 -43 -34 -49 -64h-73z" />
    <glyph glyph-name="Odieresis" unicode="&#xd6;" horiz-adv-x="824" 
d="M563 781l21 101h86l-21 -101h-86zM363 781l20 101h87l-21 -101h-86zM56 296c0 229 206 422 428 422c183 0 307 -125 307 -300c0 -233 -208 -430 -428 -430c-183 0 -307 129 -307 308zM157 300c0 -131 87 -223 213 -223c158 0 319 150 319 336c0 127 -87 217 -213 217
c-161 0 -319 -148 -319 -330z" />
    <glyph glyph-name="multiply" unicode="&#xd7;" horiz-adv-x="613" 
d="M44 55l206 230l-206 230l55 55l204 -228l205 228l55 -55l-207 -230l207 -230l-55 -55l-205 227l-204 -227z" />
    <glyph glyph-name="Oslash" unicode="&#xd8;" horiz-adv-x="825" 
d="M65 12l67 73c-48 54 -76 127 -76 211c0 229 206 422 422 422c73 0 137 -19 188 -54l62 68l45 -38l-62 -67c51 -53 81 -126 81 -209c0 -233 -208 -430 -422 -430c-76 0 -142 21 -194 58l-64 -71zM203 161l395 431c-33 22 -75 35 -121 35c-162 0 -319 -146 -319 -327
c0 -55 16 -103 45 -139zM243 118c35 -25 78 -39 128 -39c158 0 319 150 319 334c0 55 -18 103 -48 139z" />
    <glyph glyph-name="Ugrave" unicode="&#xd9;" horiz-adv-x="801" 
d="M106 195c0 29 6 60 10 84l68 350h-88l15 77h277l-15 -77h-89l-68 -351c-4 -23 -9 -48 -9 -72c0 -80 55 -129 150 -129c54 0 102 15 139 45c37 31 62 75 72 131l74 376h-89l15 77h278l-15 -77h-89l-75 -384c-18 -89 -62 -161 -126 -205c-51 -34 -117 -52 -187 -52
c-143 0 -248 76 -248 207zM457 755l-99 127h108l78 -127h-87z" />
    <glyph glyph-name="Uacute" unicode="&#xda;" horiz-adv-x="801" 
d="M425 755l128 127h116l-148 -127h-96zM106 195c0 29 6 60 10 84l68 350h-88l15 77h277l-15 -77h-89l-68 -351c-4 -23 -9 -48 -9 -72c0 -80 55 -129 150 -129c54 0 102 15 139 45c37 31 62 75 72 131l74 376h-89l15 77h278l-15 -77h-89l-75 -384
c-18 -89 -62 -161 -126 -205c-51 -34 -117 -52 -187 -52c-143 0 -248 76 -248 207z" />
    <glyph glyph-name="Ucircumflex" unicode="&#xdb;" horiz-adv-x="801" 
d="M343 755l113 127h105l63 -127h-84l-36 80h-2l-68 -80h-91zM106 195c0 29 6 60 10 84l68 350h-88l15 77h277l-15 -77h-89l-68 -351c-4 -23 -9 -48 -9 -72c0 -80 55 -129 150 -129c54 0 102 15 139 45c37 31 62 75 72 131l74 376h-89l15 77h278l-15 -77h-89l-75 -384
c-18 -89 -62 -161 -126 -205c-51 -34 -117 -52 -187 -52c-143 0 -248 76 -248 207z" />
    <glyph glyph-name="Udieresis" unicode="&#xdc;" horiz-adv-x="801" 
d="M550 781l21 101h86l-21 -101h-86zM350 781l20 101h87l-21 -101h-86zM106 195c0 29 6 60 10 84l68 350h-88l15 77h277l-15 -77h-89l-68 -351c-4 -23 -9 -48 -9 -72c0 -80 55 -129 150 -129c54 0 102 15 139 45c37 31 62 75 72 131l74 376h-89l15 77h278l-15 -77h-89
l-75 -384c-18 -89 -62 -161 -126 -205c-51 -34 -117 -52 -187 -52c-143 0 -248 76 -248 207z" />
    <glyph glyph-name="Yacute" unicode="&#xdd;" horiz-adv-x="652" 
d="M129 0l15 78h89l43 221l-134 330h-67l15 77h239l-15 -77h-74l87 -222c6 -15 9 -30 9 -30h2s9 15 20 30l175 222h-73l15 77h245l-15 -77h-67l-262 -330l-43 -221h88l-15 -78h-277zM353 755l128 127h116l-148 -127h-96z" />
    <glyph glyph-name="Thorn" unicode="&#xde;" horiz-adv-x="654" 
d="M-3 0l15 78h88l107 551h-89l16 77h277l-15 -77h-91l-14 -72h163c115 0 186 -63 186 -163c0 -138 -116 -226 -253 -226h-171l-18 -90h90l-15 -78h-276zM231 246h146c91 0 161 53 161 146c0 58 -42 87 -114 87h-148z" />
    <glyph glyph-name="germandbls" unicode="&#xdf;" horiz-adv-x="598" 
d="M29 0l104 538c22 118 133 180 235 180c108 0 177 -60 177 -141c0 -119 -139 -147 -139 -213c0 -62 137 -99 137 -204c0 -93 -91 -167 -190 -167c-94 0 -148 29 -148 29l17 84s49 -29 124 -29c42 0 99 24 99 83c0 76 -140 111 -140 198c0 101 141 134 141 210
c0 35 -26 66 -82 66c-59 0 -122 -36 -137 -111l-102 -523h-96z" />
    <glyph glyph-name="agrave" unicode="&#xe0;" horiz-adv-x="557" 
d="M0 116c0 159 203 195 340 195h25s7 34 7 50c0 47 -27 77 -92 77c-79 0 -151 -48 -151 -48l-25 75s86 53 193 53c94 0 172 -40 172 -145c0 -59 -46 -212 -46 -256c0 -36 21 -44 46 -44c14 0 23 2 23 2l-14 -75s-18 -2 -46 -2c-57 0 -103 23 -104 92h-2
c1 0 -65 -102 -179 -102c-80 0 -147 44 -147 128zM97 132c0 -39 24 -69 79 -69c82 0 153 91 172 165l5 20h-26c-71 0 -230 -10 -230 -116zM288 579l-99 127h108l78 -127h-87z" />
    <glyph glyph-name="aacute" unicode="&#xe1;" horiz-adv-x="557" 
d="M0 116c0 159 203 195 340 195h25s7 34 7 50c0 47 -27 77 -92 77c-79 0 -151 -48 -151 -48l-25 75s86 53 193 53c94 0 172 -40 172 -145c0 -59 -46 -212 -46 -256c0 -36 21 -44 46 -44c14 0 23 2 23 2l-14 -75s-18 -2 -46 -2c-57 0 -103 23 -104 92h-2
c1 0 -65 -102 -179 -102c-80 0 -147 44 -147 128zM97 132c0 -39 24 -69 79 -69c82 0 153 91 172 165l5 20h-26c-71 0 -230 -10 -230 -116zM256 579l128 127h116l-148 -127h-96z" />
    <glyph glyph-name="acircumflex" unicode="&#xe2;" horiz-adv-x="557" 
d="M0 116c0 159 203 195 340 195h25s7 34 7 50c0 47 -27 77 -92 77c-79 0 -151 -48 -151 -48l-25 75s86 53 193 53c94 0 172 -40 172 -145c0 -59 -46 -212 -46 -256c0 -36 21 -44 46 -44c14 0 23 2 23 2l-14 -75s-18 -2 -46 -2c-57 0 -103 23 -104 92h-2
c1 0 -65 -102 -179 -102c-80 0 -147 44 -147 128zM97 132c0 -39 24 -69 79 -69c82 0 153 91 172 165l5 20h-26c-71 0 -230 -10 -230 -116zM174 579l113 127h105l63 -127h-84l-36 80h-2l-68 -80h-91z" />
    <glyph glyph-name="atilde" unicode="&#xe3;" horiz-adv-x="557" 
d="M0 116c0 159 203 195 340 195h25s7 34 7 50c0 47 -27 77 -92 77c-79 0 -151 -48 -151 -48l-25 75s86 53 193 53c94 0 172 -40 172 -145c0 -59 -46 -212 -46 -256c0 -36 21 -44 46 -44c14 0 23 2 23 2l-14 -75s-18 -2 -46 -2c-57 0 -103 23 -104 92h-2
c1 0 -65 -102 -179 -102c-80 0 -147 44 -147 128zM97 132c0 -39 24 -69 79 -69c82 0 153 91 172 165l5 20h-26c-71 0 -230 -10 -230 -116zM155 580c16 81 58 127 117 127c69 0 71 -67 111 -67c29 0 42 37 48 64h73c-14 -81 -58 -127 -116 -127c-68 0 -72 67 -111 67
c-29 0 -43 -34 -49 -64h-73z" />
    <glyph glyph-name="adieresis" unicode="&#xe4;" horiz-adv-x="557" 
d="M0 116c0 159 203 195 340 195h25s7 34 7 50c0 47 -27 77 -92 77c-79 0 -151 -48 -151 -48l-25 75s86 53 193 53c94 0 172 -40 172 -145c0 -59 -46 -212 -46 -256c0 -36 21 -44 46 -44c14 0 23 2 23 2l-14 -75s-18 -2 -46 -2c-57 0 -103 23 -104 92h-2
c1 0 -65 -102 -179 -102c-80 0 -147 44 -147 128zM97 132c0 -39 24 -69 79 -69c82 0 153 91 172 165l5 20h-26c-71 0 -230 -10 -230 -116zM380 605l21 101h86l-21 -101h-86zM180 605l20 101h87l-21 -101h-86z" />
    <glyph glyph-name="aring" unicode="&#xe5;" horiz-adv-x="557" 
d="M0 116c0 159 203 195 340 195h25s7 34 7 50c0 47 -27 77 -92 77c-79 0 -151 -48 -151 -48l-25 75s86 53 193 53c94 0 172 -40 172 -145c0 -59 -46 -212 -46 -256c0 -36 21 -44 46 -44c14 0 23 2 23 2l-14 -75s-18 -2 -46 -2c-57 0 -103 23 -104 92h-2
c1 0 -65 -102 -179 -102c-80 0 -147 44 -147 128zM97 132c0 -39 24 -69 79 -69c82 0 153 91 172 165l5 20h-26c-71 0 -230 -10 -230 -116zM320 563c-44 0 -81 25 -81 68c0 55 54 90 101 90c45 0 82 -26 82 -70c0 -53 -53 -88 -102 -88zM323 605c25 0 44 19 44 46
c0 17 -11 28 -29 28c-22 0 -44 -19 -44 -47c0 -16 11 -27 29 -27z" />
    <glyph glyph-name="ae" unicode="&#xe6;" horiz-adv-x="863" 
d="M2 121c0 160 194 187 315 187h46c4 27 6 39 6 50c0 53 -32 80 -96 80c-80 0 -147 -48 -147 -48l-26 75s85 53 188 53c87 0 133 -35 152 -85h2c50 57 117 85 188 85c130 0 194 -76 194 -188c0 -38 -15 -85 -15 -85h-364s-4 -17 -4 -36c0 -84 50 -139 140 -139
c87 0 160 58 160 58l28 -74s-85 -66 -193 -66c-106 0 -180 49 -208 125h-2c-11 -24 -75 -125 -207 -125c-84 0 -157 48 -157 133zM461 308h264s2 18 2 32c0 68 -43 101 -98 101c-75 0 -138 -47 -168 -133zM101 132c0 -36 26 -66 81 -66c82 0 149 87 165 161l4 18h-47
c-70 0 -203 -12 -203 -113z" />
    <glyph glyph-name="ccedilla" unicode="&#xe7;" horiz-adv-x="558" 
d="M169 -97l42 91c-113 20 -183 101 -183 216c0 164 144 308 322 308c74 0 195 -29 178 -119l-11 -58h-86l6 34c8 41 -49 59 -97 59c-110 0 -213 -100 -213 -217c0 -88 57 -145 152 -145c100 0 173 66 173 66l28 -75s-77 -75 -210 -75h-8l-18 -44c36 -4 67 -28 67 -68
c0 -67 -71 -93 -127 -93c-32 0 -56 7 -56 7l10 53s18 -6 43 -6c23 0 58 7 58 37c0 19 -21 29 -52 29h-18z" />
    <glyph glyph-name="egrave" unicode="&#xe8;" horiz-adv-x="556" 
d="M30 204c0 168 125 314 295 314c130 0 192 -78 192 -187c0 -41 -16 -87 -16 -87h-368s-4 -17 -4 -36c0 -78 51 -136 144 -136c87 0 162 58 162 58l27 -76s-85 -66 -194 -66c-148 0 -238 90 -238 216zM147 306h270s3 17 3 33c0 68 -40 102 -98 102
c-74 0 -144 -49 -175 -135zM320 579l-99 127h108l78 -127h-87z" />
    <glyph glyph-name="eacute" unicode="&#xe9;" horiz-adv-x="556" 
d="M288 579l128 127h116l-148 -127h-96zM30 204c0 168 125 314 295 314c130 0 192 -78 192 -187c0 -41 -16 -87 -16 -87h-368s-4 -17 -4 -36c0 -78 51 -136 144 -136c87 0 162 58 162 58l27 -76s-85 -66 -194 -66c-148 0 -238 90 -238 216zM147 306h270s3 17 3 33
c0 68 -40 102 -98 102c-74 0 -144 -49 -175 -135z" />
    <glyph glyph-name="ecircumflex" unicode="&#xea;" horiz-adv-x="556" 
d="M206 579l113 127h105l63 -127h-84l-36 80h-2l-68 -80h-91zM30 204c0 168 125 314 295 314c130 0 192 -78 192 -187c0 -41 -16 -87 -16 -87h-368s-4 -17 -4 -36c0 -78 51 -136 144 -136c87 0 162 58 162 58l27 -76s-85 -66 -194 -66c-148 0 -238 90 -238 216zM147 306h270
s3 17 3 33c0 68 -40 102 -98 102c-74 0 -144 -49 -175 -135z" />
    <glyph glyph-name="edieresis" unicode="&#xeb;" horiz-adv-x="556" 
d="M412 605l21 101h86l-21 -101h-86zM212 605l20 101h87l-21 -101h-86zM30 204c0 168 125 314 295 314c130 0 192 -78 192 -187c0 -41 -16 -87 -16 -87h-368s-4 -17 -4 -36c0 -78 51 -136 144 -136c87 0 162 58 162 58l27 -76s-85 -66 -194 -66c-148 0 -238 90 -238 216z
M147 306h270s3 17 3 33c0 68 -40 102 -98 102c-74 0 -144 -49 -175 -135z" />
    <glyph glyph-name="igrave" unicode="&#xec;" horiz-adv-x="319" 
d="M73 95c0 12 2 27 5 44l58 292h-85l15 75h181l-70 -358c-2 -11 -4 -22 -4 -31c0 -36 21 -44 46 -44c14 0 23 2 23 2l-14 -75s-23 -2 -40 -2c-50 0 -115 8 -115 97zM182 579l-99 127h108l78 -127h-87z" />
    <glyph glyph-name="dotlessi" unicode="&#x131;" horiz-adv-x="319" 
d="M73 95c0 12 2 27 5 44l58 292h-85l15 75h181l-70 -358c-2 -11 -4 -22 -4 -31c0 -36 21 -44 46 -44c14 0 23 2 23 2l-14 -75s-23 -2 -40 -2c-50 0 -115 8 -115 97z" />
    <glyph glyph-name="iacute" unicode="&#xed;" horiz-adv-x="319" 
d="M150 579l128 127h116l-148 -127h-96zM73 95c0 12 2 27 5 44l58 292h-85l15 75h181l-70 -358c-2 -11 -4 -22 -4 -31c0 -36 21 -44 46 -44c14 0 23 2 23 2l-14 -75s-23 -2 -40 -2c-50 0 -115 8 -115 97z" />
    <glyph glyph-name="icircumflex" unicode="&#xee;" horiz-adv-x="319" 
d="M68 579l113 127h105l63 -127h-84l-36 80h-2l-68 -80h-91zM73 95c0 12 2 27 5 44l58 292h-85l15 75h181l-70 -358c-2 -11 -4 -22 -4 -31c0 -36 21 -44 46 -44c14 0 23 2 23 2l-14 -75s-23 -2 -40 -2c-50 0 -115 8 -115 97z" />
    <glyph glyph-name="idieresis" unicode="&#xef;" horiz-adv-x="319" 
d="M73 95c0 12 2 27 5 44l58 292h-85l15 75h181l-70 -358c-2 -11 -4 -22 -4 -31c0 -36 21 -44 46 -44c14 0 23 2 23 2l-14 -75s-23 -2 -40 -2c-50 0 -115 8 -115 97zM261 605l21 101h86l-20 -101h-87zM88 605l21 101h86l-21 -101h-86z" />
    <glyph glyph-name="eth" unicode="&#xf0;" horiz-adv-x="595" 
d="M27 191c0 132 106 275 282 275c83 0 123 -46 123 -46h2c-11 58 -44 107 -88 142l-194 -78l1 54l142 58c-37 21 -83 40 -125 51l40 72c67 -18 135 -47 186 -84l155 62v-54l-112 -45c60 -60 100 -144 100 -247c0 -139 -85 -363 -300 -363c-142 0 -212 94 -212 203zM126 193
c0 -66 36 -121 114 -121c116 0 191 123 191 213c0 61 -44 103 -119 103c-107 0 -186 -91 -186 -195z" />
    <glyph glyph-name="ntilde" unicode="&#xf1;" horiz-adv-x="672" 
d="M57 0l80 409c2 13 -2 22 -18 22h-63l15 75h115c39 0 54 -15 54 -43c0 -11 -7 -49 -15 -68h2c15 31 90 123 214 123c86 0 140 -46 140 -133c0 -62 -44 -228 -44 -268c0 -38 20 -44 45 -44c14 0 24 2 24 2l-15 -75s-20 -2 -43 -2c-45 0 -111 9 -111 95c0 48 43 213 43 263
c0 48 -26 73 -76 73c-99 0 -185 -94 -206 -202l-44 -227h-97zM243 580c16 81 58 127 117 127c69 0 71 -67 111 -67c29 0 42 37 48 64h73c-14 -81 -58 -127 -116 -127c-68 0 -72 67 -111 67c-29 0 -43 -34 -49 -64h-73z" />
    <glyph glyph-name="ograve" unicode="&#xf2;" horiz-adv-x="627" 
d="M29 211c0 174 154 307 319 307c137 0 233 -90 233 -221c0 -176 -155 -309 -319 -309c-137 0 -233 91 -233 223zM128 215c0 -85 58 -143 142 -143c105 0 212 95 212 220c0 84 -58 142 -142 142c-106 0 -212 -95 -212 -219zM339 579l-99 127h108l78 -127h-87z" />
    <glyph glyph-name="oacute" unicode="&#xf3;" horiz-adv-x="627" 
d="M307 579l128 127h116l-148 -127h-96zM29 211c0 174 154 307 319 307c137 0 233 -90 233 -221c0 -176 -155 -309 -319 -309c-137 0 -233 91 -233 223zM128 215c0 -85 58 -143 142 -143c105 0 212 95 212 220c0 84 -58 142 -142 142c-106 0 -212 -95 -212 -219z" />
    <glyph glyph-name="ocircumflex" unicode="&#xf4;" horiz-adv-x="627" 
d="M225 579l113 127h105l63 -127h-84l-36 80h-2l-68 -80h-91zM29 211c0 174 154 307 319 307c137 0 233 -90 233 -221c0 -176 -155 -309 -319 -309c-137 0 -233 91 -233 223zM128 215c0 -85 58 -143 142 -143c105 0 212 95 212 220c0 84 -58 142 -142 142
c-106 0 -212 -95 -212 -219z" />
    <glyph glyph-name="otilde" unicode="&#xf5;" horiz-adv-x="627" 
d="M29 211c0 174 154 307 319 307c137 0 233 -90 233 -221c0 -176 -155 -309 -319 -309c-137 0 -233 91 -233 223zM128 215c0 -85 58 -143 142 -143c105 0 212 95 212 220c0 84 -58 142 -142 142c-106 0 -212 -95 -212 -219zM206 580c16 81 58 127 117 127
c69 0 71 -67 111 -67c29 0 42 37 48 64h73c-14 -81 -58 -127 -116 -127c-68 0 -72 67 -111 67c-29 0 -43 -34 -49 -64h-73z" />
    <glyph glyph-name="odieresis" unicode="&#xf6;" horiz-adv-x="627" 
d="M431 605l21 101h86l-21 -101h-86zM231 605l20 101h87l-21 -101h-86zM29 211c0 174 154 307 319 307c137 0 233 -90 233 -221c0 -176 -155 -309 -319 -309c-137 0 -233 91 -233 223zM128 215c0 -85 58 -143 142 -143c105 0 212 95 212 220c0 84 -58 142 -142 142
c-106 0 -212 -95 -212 -219z" />
    <glyph glyph-name="divide" unicode="&#xf7;" horiz-adv-x="613" 
d="M256 435v91h94v-91h-94zM50 246v78h506v-78h-506zM256 44v91h94v-91h-94z" />
    <glyph glyph-name="oslash" unicode="&#xf8;" horiz-adv-x="628" 
d="M40 -2l51 56c-38 40 -62 94 -62 157c0 174 154 307 312 307c54 0 104 -14 143 -38l54 58l39 -34l-54 -58c35 -38 58 -90 58 -149c0 -176 -155 -309 -312 -309c-51 0 -99 13 -136 34l-54 -58zM158 126l262 285c-21 14 -50 23 -80 23c-106 0 -212 -95 -212 -219
c0 -35 12 -66 30 -89zM197 91c20 -11 47 -19 73 -19c105 0 212 95 212 220c0 30 -12 59 -27 80z" />
    <glyph glyph-name="ugrave" unicode="&#xf9;" horiz-adv-x="666" 
d="M74 121c0 19 2 41 7 64l47 246h-84l15 75h181l-58 -301c-5 -21 -8 -42 -8 -58c0 -44 19 -71 76 -71c101 0 183 104 201 200l30 155h-84l15 75h181l-70 -358c-2 -11 -3 -22 -3 -31c0 -36 20 -44 45 -44c15 0 24 2 24 2l-15 -75s-22 -2 -46 -2c-68 0 -108 35 -101 111h-2
c-33 -52 -103 -121 -209 -121c-77 0 -142 38 -142 133zM335 579l-99 127h108l78 -127h-87z" />
    <glyph glyph-name="uacute" unicode="&#xfa;" horiz-adv-x="666" 
d="M303 579l128 127h116l-148 -127h-96zM74 121c0 19 2 41 7 64l47 246h-84l15 75h181l-58 -301c-5 -21 -8 -42 -8 -58c0 -44 19 -71 76 -71c101 0 183 104 201 200l30 155h-84l15 75h181l-70 -358c-2 -11 -3 -22 -3 -31c0 -36 20 -44 45 -44c15 0 24 2 24 2l-15 -75
s-22 -2 -46 -2c-68 0 -108 35 -101 111h-2c-33 -52 -103 -121 -209 -121c-77 0 -142 38 -142 133z" />
    <glyph glyph-name="ucircumflex" unicode="&#xfb;" horiz-adv-x="666" 
d="M221 579l113 127h105l63 -127h-84l-36 80h-2l-68 -80h-91zM74 121c0 19 2 41 7 64l47 246h-84l15 75h181l-58 -301c-5 -21 -8 -42 -8 -58c0 -44 19 -71 76 -71c101 0 183 104 201 200l30 155h-84l15 75h181l-70 -358c-2 -11 -3 -22 -3 -31c0 -36 20 -44 45 -44
c15 0 24 2 24 2l-15 -75s-22 -2 -46 -2c-68 0 -108 35 -101 111h-2c-33 -52 -103 -121 -209 -121c-77 0 -142 38 -142 133z" />
    <glyph glyph-name="udieresis" unicode="&#xfc;" horiz-adv-x="666" 
d="M428 605l21 101h86l-21 -101h-86zM228 605l20 101h87l-21 -101h-86zM74 121c0 19 2 41 7 64l47 246h-84l15 75h181l-58 -301c-5 -21 -8 -42 -8 -58c0 -44 19 -71 76 -71c101 0 183 104 201 200l30 155h-84l15 75h181l-70 -358c-2 -11 -3 -22 -3 -31c0 -36 20 -44 45 -44
c15 0 24 2 24 2l-15 -75s-22 -2 -46 -2c-68 0 -108 35 -101 111h-2c-33 -52 -103 -121 -209 -121c-77 0 -142 38 -142 133z" />
    <glyph glyph-name="yacute" unicode="&#xfd;" horiz-adv-x="592" 
d="M-15 -107c0 0 24 -22 67 -22s82 30 107 70l30 50l-91 440h-64l15 75h227l-14 -75h-67l54 -301c4 -22 1 -44 1 -44h3s8 22 21 44l170 301h-65l15 75h227l-15 -75h-62l-301 -511c-53 -91 -120 -130 -193 -130c-72 0 -110 33 -110 33zM289 579l128 127h116l-148 -127h-96z
" />
    <glyph glyph-name="thorn" unicode="&#xfe;" horiz-adv-x="614" 
d="M-10 -200l161 831h-82l14 75h179l-46 -235c-3 -20 -10 -40 -10 -40h2c33 47 93 87 168 87c121 0 190 -81 190 -208c0 -191 -136 -322 -275 -322c-64 0 -126 29 -151 88h-2s-2 -21 -7 -47l-45 -229h-96zM168 202c0 -71 35 -130 113 -130c87 0 186 86 186 231
c0 81 -43 130 -114 130c-104 0 -185 -113 -185 -231z" />
    <glyph glyph-name="ydieresis" unicode="&#xff;" horiz-adv-x="592" 
d="M-15 -107c0 0 24 -22 67 -22s82 30 107 70l30 50l-91 440h-64l15 75h227l-14 -75h-67l54 -301c4 -22 1 -44 1 -44h3s8 22 21 44l170 301h-65l15 75h227l-15 -75h-62l-301 -511c-53 -91 -120 -130 -193 -130c-72 0 -110 33 -110 33zM413 605l21 101h86l-21 -101h-86z
M213 605l20 101h87l-21 -101h-86z" />
    <glyph glyph-name="Amacron" unicode="&#x100;" horiz-adv-x="723" 
d="M-46 0l15 78h68l348 628h112l102 -628h69l-16 -78h-241l15 78h75l-24 157h-250l-86 -157h76l-16 -78h-247zM268 315h199l-38 245c-3 29 -2 54 -2 54h-3s-7 -25 -22 -54zM328 784l13 71h254l-13 -71h-254z" />
    <glyph glyph-name="amacron" unicode="&#x101;" horiz-adv-x="557" 
d="M0 116c0 159 203 195 340 195h25s7 34 7 50c0 47 -27 77 -92 77c-79 0 -151 -48 -151 -48l-25 75s86 53 193 53c94 0 172 -40 172 -145c0 -59 -46 -212 -46 -256c0 -36 21 -44 46 -44c14 0 23 2 23 2l-14 -75s-18 -2 -46 -2c-57 0 -103 23 -104 92h-2
c1 0 -65 -102 -179 -102c-80 0 -147 44 -147 128zM97 132c0 -39 24 -69 79 -69c82 0 153 91 172 165l5 20h-26c-71 0 -230 -10 -230 -116zM197 608l13 71h254l-13 -71h-254z" />
    <glyph glyph-name="Abreve" unicode="&#x102;" horiz-adv-x="723" 
d="M-46 0l15 78h68l348 628h112l102 -628h69l-16 -78h-241l15 78h75l-24 157h-250l-86 -157h76l-16 -78h-247zM268 315h199l-38 245c-3 29 -2 54 -2 54h-3s-7 -25 -22 -54zM457 751c-73 0 -133 45 -118 117l3 14h73l-2 -13c-8 -42 17 -60 47 -60s64 18 72 61l2 12h74l-3 -14
c-15 -82 -79 -117 -148 -117z" />
    <glyph glyph-name="breve" unicode="&#x2d8;" horiz-adv-x="499" 
d="M186 751c-73 0 -133 45 -118 117l3 14h73l-2 -13c-8 -42 17 -60 47 -60s64 18 72 61l2 12h74l-3 -14c-15 -82 -79 -117 -148 -117z" />
    <glyph glyph-name="abreve" unicode="&#x103;" horiz-adv-x="557" 
d="M0 116c0 159 203 195 340 195h25s7 34 7 50c0 47 -27 77 -92 77c-79 0 -151 -48 -151 -48l-25 75s86 53 193 53c94 0 172 -40 172 -145c0 -59 -46 -212 -46 -256c0 -36 21 -44 46 -44c14 0 23 2 23 2l-14 -75s-18 -2 -46 -2c-57 0 -103 23 -104 92h-2
c1 0 -65 -102 -179 -102c-80 0 -147 44 -147 128zM97 132c0 -39 24 -69 79 -69c82 0 153 91 172 165l5 20h-26c-71 0 -230 -10 -230 -116zM325 575c-73 0 -133 45 -118 117l3 14h73l-2 -13c-8 -42 17 -60 47 -60s64 18 72 61l2 12h74l-3 -14c-15 -82 -79 -117 -148 -117z
" />
    <glyph glyph-name="Aogonek" unicode="&#x104;" horiz-adv-x="723" 
d="M464 -134c0 56 43 102 91 134h-144l15 78h75l-24 157h-250l-86 -157h76l-16 -78h-247l15 78h68l348 628h112l102 -628h69l-16 -78h-4c-21 0 -103 -64 -103 -112c0 -32 38 -39 55 -40l-31 -68c-35 4 -105 24 -105 86zM268 315h199l-38 245c-3 29 -2 54 -2 54h-3
s-7 -25 -22 -54z" />
    <glyph glyph-name="aogonek" unicode="&#x105;" horiz-adv-x="557" 
d="M290 -134c0 58 45 104 95 136c-36 10 -58 39 -57 88h-2c1 0 -65 -102 -179 -102c-80 0 -147 44 -147 128c0 159 203 195 340 195h25s7 34 7 50c0 47 -27 77 -92 77c-79 0 -151 -48 -151 -48l-25 75s86 53 193 53c94 0 172 -40 172 -145c0 -59 -46 -212 -46 -256
c0 -36 21 -44 46 -44c14 0 23 2 23 2l-14 -75s-5 0 -11 -1c-27 -8 -96 -66 -96 -111c0 -32 38 -39 54 -40l-31 -68c-34 4 -104 24 -104 86zM97 132c0 -39 24 -69 79 -69c82 0 153 91 172 165l5 20h-26c-71 0 -230 -10 -230 -116z" />
    <glyph glyph-name="Cacute" unicode="&#x106;" horiz-adv-x="741" 
d="M425 755l128 127h116l-148 -127h-96zM57 296c0 233 199 422 426 422c85 0 272 -26 250 -139l-18 -87h-91l10 57c13 65 -92 83 -152 83c-181 0 -322 -159 -322 -330c0 -131 80 -227 216 -227c71 0 177 24 189 84l11 54h92l-16 -82c-20 -107 -179 -143 -280 -143
c-191 0 -315 127 -315 308z" />
    <glyph glyph-name="cacute" unicode="&#x107;" horiz-adv-x="557" 
d="M290 579l128 127h116l-148 -127h-96zM28 210c0 164 143 308 322 308c73 0 194 -29 178 -119l-12 -58h-86l7 34c7 41 -49 59 -97 59c-110 0 -213 -100 -213 -217c0 -88 57 -145 151 -145c101 0 173 66 173 66l28 -75s-77 -75 -210 -75c-148 0 -241 90 -241 222z" />
    <glyph glyph-name="Ccircumflex" unicode="&#x108;" horiz-adv-x="741" 
d="M343 755l113 127h105l63 -127h-84l-36 80h-2l-68 -80h-91zM57 296c0 233 199 422 426 422c85 0 272 -26 250 -139l-18 -87h-91l10 57c13 65 -92 83 -152 83c-181 0 -322 -159 -322 -330c0 -131 80 -227 216 -227c71 0 177 24 189 84l11 54h92l-16 -82
c-20 -107 -179 -143 -280 -143c-191 0 -315 127 -315 308z" />
    <glyph glyph-name="ccircumflex" unicode="&#x109;" horiz-adv-x="557" 
d="M208 579l113 127h105l63 -127h-84l-36 80h-2l-68 -80h-91zM28 210c0 164 143 308 322 308c73 0 194 -29 178 -119l-12 -58h-86l7 34c7 41 -49 59 -97 59c-110 0 -213 -100 -213 -217c0 -88 57 -145 151 -145c101 0 173 66 173 66l28 -75s-77 -75 -210 -75
c-148 0 -241 90 -241 222z" />
    <glyph glyph-name="Cdotaccent" unicode="&#x10a;" horiz-adv-x="741" 
d="M57 296c0 233 199 422 426 422c85 0 272 -26 250 -139l-18 -87h-91l10 57c13 65 -92 83 -152 83c-181 0 -322 -159 -322 -330c0 -131 80 -227 216 -227c71 0 177 24 189 84l11 54h92l-16 -82c-20 -107 -179 -143 -280 -143c-191 0 -315 127 -315 308zM448 784l19 98h92
l-20 -98h-91z" />
    <glyph glyph-name="dotaccent" unicode="&#x2d9;" horiz-adv-x="500" 
d="M142 784l19 98h92l-20 -98h-91z" />
    <glyph glyph-name="cdotaccent" unicode="&#x10b;" horiz-adv-x="557" 
d="M28 210c0 164 143 308 322 308c73 0 194 -29 178 -119l-12 -58h-86l7 34c7 41 -49 59 -97 59c-110 0 -213 -100 -213 -217c0 -88 57 -145 151 -145c101 0 173 66 173 66l28 -75s-77 -75 -210 -75c-148 0 -241 90 -241 222zM313 608l19 98h92l-20 -98h-91z" />
    <glyph glyph-name="Ccaron" unicode="&#x10c;" horiz-adv-x="741" 
d="M438 755l-62 127h83l36 -81h2l69 81h91l-113 -127h-106zM57 296c0 233 199 422 426 422c85 0 272 -26 250 -139l-18 -87h-91l10 57c13 65 -92 83 -152 83c-181 0 -322 -159 -322 -330c0 -131 80 -227 216 -227c71 0 177 24 189 84l11 54h92l-16 -82
c-20 -107 -179 -143 -280 -143c-191 0 -315 127 -315 308z" />
    <glyph glyph-name="caron" unicode="&#x2c7;" horiz-adv-x="499" 
d="M132 755l-62 127h83l36 -81h2l69 81h91l-113 -127h-106z" />
    <glyph glyph-name="ccaron" unicode="&#x10d;" horiz-adv-x="557" 
d="M303 579l-62 127h83l36 -81h2l69 81h91l-113 -127h-106zM28 210c0 164 143 308 322 308c73 0 194 -29 178 -119l-12 -58h-86l7 34c7 41 -49 59 -97 59c-110 0 -213 -100 -213 -217c0 -88 57 -145 151 -145c101 0 173 66 173 66l28 -75s-77 -75 -210 -75
c-148 0 -241 90 -241 222z" />
    <glyph glyph-name="Dcaron" unicode="&#x10e;" horiz-adv-x="781" 
d="M404 755l-62 127h83l36 -81h2l69 81h91l-113 -127h-106zM-4 0l15 78h88l107 551h-88l15 77h292c64 0 112 -7 159 -23c104 -40 162 -126 162 -257c0 -165 -94 -325 -240 -390c-57 -26 -117 -36 -186 -36h-324zM199 82h115c60 0 109 10 155 32c105 54 175 174 175 304
c0 95 -38 157 -105 186c-34 15 -73 20 -120 20h-114z" />
    <glyph glyph-name="dcaron" unicode="&#x10f;" horiz-adv-x="640" 
d="M672 706h85c1 -5 2 -14 2 -20c0 -65 -43 -119 -103 -147l-35 36c35 27 54 59 54 99c0 10 -1 21 -3 32zM30 195c0 192 133 323 279 323c63 0 124 -26 147 -87h2s1 19 5 37l31 163h-84l15 75h181l-108 -558c-2 -11 -4 -22 -4 -31c0 -36 21 -44 46 -44c14 0 23 2 23 2
l-14 -75s-22 -2 -42 -2c-64 0 -109 23 -107 91h-2c-34 -54 -102 -101 -178 -101c-122 0 -190 81 -190 207zM129 202c0 -81 43 -130 114 -130c106 0 185 117 185 233c0 70 -34 128 -113 128c-87 0 -186 -86 -186 -231z" />
    <glyph glyph-name="commaaccent" horiz-adv-x="335" 
d="M61 -58h85c1 -5 2 -14 2 -20c0 -65 -43 -119 -103 -147l-35 36c35 27 54 59 54 99c0 10 -1 21 -3 32z" />
    <glyph glyph-name="Dcroat" unicode="&#x110;" horiz-adv-x="786" 
d="M-4 0l15 78h88l46 234h-76l16 82h76l46 235h-89l15 77h305c195 0 313 -100 313 -275c0 -237 -172 -431 -417 -431h-338zM200 82h127c188 0 322 149 322 341c0 131 -82 201 -217 201h-126l-45 -230h154l-16 -82h-154z" />
    <glyph glyph-name="dcroat" unicode="&#x111;" horiz-adv-x="640" 
d="M30 195c0 192 133 323 279 323c63 0 124 -26 147 -87h2s1 19 5 37l19 97h-151l12 63h151l15 78h97l-15 -78h76l-13 -63h-75l-81 -417c-2 -11 -4 -22 -4 -31c0 -36 21 -44 46 -44c14 0 23 2 23 2l-14 -75s-22 -2 -42 -2c-64 0 -109 23 -107 91h-2
c-34 -54 -102 -101 -178 -101c-122 0 -190 81 -190 207zM129 202c0 -81 43 -130 114 -130c106 0 185 117 185 233c0 70 -34 128 -113 128c-87 0 -186 -86 -186 -231z" />
    <glyph glyph-name="Emacron" unicode="&#x112;" horiz-adv-x="635" 
d="M-3 0l15 78h88l107 551h-89l16 77h511l-32 -164h-87l16 82h-236l-44 -227h250l-17 -82h-249l-46 -233h253l16 85h88l-33 -167h-527zM295 784l13 71h254l-13 -71h-254z" />
    <glyph glyph-name="emacron" unicode="&#x113;" horiz-adv-x="556" 
d="M30 204c0 168 125 314 295 314c130 0 192 -78 192 -187c0 -41 -16 -87 -16 -87h-368s-4 -17 -4 -36c0 -78 51 -136 144 -136c87 0 162 58 162 58l27 -76s-85 -66 -194 -66c-148 0 -238 90 -238 216zM147 306h270s3 17 3 33c0 68 -40 102 -98 102
c-74 0 -144 -49 -175 -135zM229 608l13 71h254l-13 -71h-254z" />
    <glyph glyph-name="Ebreve" unicode="&#x114;" horiz-adv-x="635" 
d="M-3 0l15 78h88l107 551h-89l16 77h511l-32 -164h-87l16 82h-236l-44 -227h250l-17 -82h-249l-46 -233h253l16 85h88l-33 -167h-527zM424 751c-73 0 -133 45 -118 117l3 14h73l-2 -13c-8 -42 17 -60 47 -60s64 18 72 61l2 12h74l-3 -14c-15 -82 -79 -117 -148 -117z" />
    <glyph glyph-name="ebreve" unicode="&#x115;" horiz-adv-x="556" 
d="M30 204c0 168 125 314 295 314c130 0 192 -78 192 -187c0 -41 -16 -87 -16 -87h-368s-4 -17 -4 -36c0 -78 51 -136 144 -136c87 0 162 58 162 58l27 -76s-85 -66 -194 -66c-148 0 -238 90 -238 216zM147 306h270s3 17 3 33c0 68 -40 102 -98 102
c-74 0 -144 -49 -175 -135zM358 575c-73 0 -133 45 -118 117l3 14h73l-2 -13c-8 -42 17 -60 47 -60s64 18 72 61l2 12h74l-3 -14c-15 -82 -79 -117 -148 -117z" />
    <glyph glyph-name="Edotaccent" unicode="&#x116;" horiz-adv-x="635" 
d="M-3 0l15 78h88l107 551h-89l16 77h511l-32 -164h-87l16 82h-236l-44 -227h250l-17 -82h-249l-46 -233h253l16 85h88l-33 -167h-527zM377 784l19 98h92l-20 -98h-91z" />
    <glyph glyph-name="edotaccent" unicode="&#x117;" horiz-adv-x="556" 
d="M30 204c0 168 125 314 295 314c130 0 192 -78 192 -187c0 -41 -16 -87 -16 -87h-368s-4 -17 -4 -36c0 -78 51 -136 144 -136c87 0 162 58 162 58l27 -76s-85 -66 -194 -66c-148 0 -238 90 -238 216zM147 306h270s3 17 3 33c0 68 -40 102 -98 102
c-74 0 -144 -49 -175 -135zM311 608l19 98h92l-20 -98h-91z" />
    <glyph glyph-name="Eogonek" unicode="&#x118;" horiz-adv-x="635" 
d="M-3 0l15 78h88l107 551h-89l16 77h511l-32 -164h-87l16 82h-236l-44 -227h250l-17 -82h-249l-46 -233h253l16 85h88l-33 -167h-6c-21 0 -102 -64 -102 -112c0 -32 39 -39 55 -40l-31 -68c-35 4 -104 24 -104 86c0 56 43 102 90 134h-429z" />
    <glyph glyph-name="eogonek" unicode="&#x119;" horiz-adv-x="556" 
d="M30 204c0 168 124 314 294 314c131 0 193 -78 193 -187c0 -41 -16 -87 -16 -87h-368s-4 -17 -4 -36c0 -78 51 -136 144 -136c87 0 162 58 162 58l27 -76s-40 -28 -98 -51c-30 -13 -97 -65 -97 -115c0 -32 38 -39 55 -40l-31 -68c-35 4 -105 24 -105 86c0 51 34 91 75 122
c-144 4 -231 93 -231 216zM147 306h270s3 17 3 33c0 68 -40 102 -98 102c-74 0 -144 -49 -175 -135z" />
    <glyph glyph-name="Ecaron" unicode="&#x11a;" horiz-adv-x="635" 
d="M367 755l-62 127h83l36 -81h2l69 81h91l-113 -127h-106zM-3 0l15 78h88l107 551h-89l16 77h511l-32 -164h-87l16 82h-236l-44 -227h250l-17 -82h-249l-46 -233h253l16 85h88l-33 -167h-527z" />
    <glyph glyph-name="ecaron" unicode="&#x11b;" horiz-adv-x="556" 
d="M301 579l-62 127h83l36 -81h2l69 81h91l-113 -127h-106zM30 204c0 168 125 314 295 314c130 0 192 -78 192 -187c0 -41 -16 -87 -16 -87h-368s-4 -17 -4 -36c0 -78 51 -136 144 -136c87 0 162 58 162 58l27 -76s-85 -66 -194 -66c-148 0 -238 90 -238 216zM147 306h270
s3 17 3 33c0 68 -40 102 -98 102c-74 0 -144 -49 -175 -135z" />
    <glyph glyph-name="Gcircumflex" unicode="&#x11c;" horiz-adv-x="770" 
d="M352 755l113 127h105l63 -127h-84l-36 80h-2l-68 -80h-91zM56 295c0 230 192 423 433 423c109 0 277 -41 258 -139l-17 -87h-92l10 52c13 65 -91 88 -160 88c-190 0 -328 -163 -328 -332c0 -130 80 -225 229 -225c68 0 188 21 201 88l19 93h-139l16 78h230l-39 -198
c-22 -111 -184 -148 -296 -148c-199 0 -325 125 -325 307z" />
    <glyph glyph-name="gcircumflex" unicode="&#x11d;" horiz-adv-x="627" 
d="M211 579l113 127h105l63 -127h-84l-36 80h-2l-68 -80h-91zM43 -95c0 0 55 -33 135 -33c91 0 169 39 191 160c8 38 15 57 15 57h-2c-37 -52 -87 -83 -156 -83c-124 0 -193 85 -193 205c0 141 95 307 267 307c91 0 145 -42 156 -85h2s-1 7 2 21c6 32 26 52 67 52h109
l-14 -75h-56c-13 0 -23 -7 -26 -20l-76 -395c-33 -167 -160 -226 -280 -226c-94 0 -155 30 -182 45zM132 218c0 -78 41 -128 117 -128c118 0 175 133 175 235c0 83 -52 109 -116 109c-113 0 -176 -109 -176 -216z" />
    <glyph glyph-name="Gbreve" unicode="&#x11e;" horiz-adv-x="770" 
d="M56 295c0 230 192 423 433 423c109 0 277 -41 258 -139l-17 -87h-92l10 52c13 65 -91 88 -160 88c-190 0 -328 -163 -328 -332c0 -130 80 -225 229 -225c68 0 188 21 201 88l19 93h-139l16 78h230l-39 -198c-22 -111 -184 -148 -296 -148c-199 0 -325 125 -325 307z
M504 751c-73 0 -133 45 -118 117l3 14h73l-2 -13c-8 -42 17 -60 47 -60s64 18 72 61l2 12h74l-3 -14c-15 -82 -79 -117 -148 -117z" />
    <glyph glyph-name="gbreve" unicode="&#x11f;" horiz-adv-x="627" 
d="M43 -95c0 0 55 -33 135 -33c91 0 169 39 191 160c8 38 15 57 15 57h-2c-37 -52 -87 -83 -156 -83c-124 0 -193 85 -193 205c0 141 95 307 267 307c91 0 145 -42 156 -85h2s-1 7 2 21c6 32 26 52 67 52h109l-14 -75h-56c-13 0 -23 -7 -26 -20l-76 -395
c-33 -167 -160 -226 -280 -226c-94 0 -155 30 -182 45zM132 218c0 -78 41 -128 117 -128c118 0 175 133 175 235c0 83 -52 109 -116 109c-113 0 -176 -109 -176 -216zM363 575c-73 0 -133 45 -118 117l3 14h73l-2 -13c-8 -42 17 -60 47 -60s64 18 72 61l2 12h74l-3 -14
c-15 -82 -79 -117 -148 -117z" />
    <glyph glyph-name="Gdotaccent" unicode="&#x120;" horiz-adv-x="770" 
d="M56 295c0 230 192 423 433 423c109 0 277 -41 258 -139l-17 -87h-92l10 52c13 65 -91 88 -160 88c-190 0 -328 -163 -328 -332c0 -130 80 -225 229 -225c68 0 188 21 201 88l19 93h-139l16 78h230l-39 -198c-22 -111 -184 -148 -296 -148c-199 0 -325 125 -325 307z
M457 784l19 98h92l-20 -98h-91z" />
    <glyph glyph-name="gdotaccent" unicode="&#x121;" horiz-adv-x="627" 
d="M43 -95c0 0 55 -33 135 -33c91 0 169 39 191 160c8 38 15 57 15 57h-2c-37 -52 -87 -83 -156 -83c-124 0 -193 85 -193 205c0 141 95 307 267 307c91 0 145 -42 156 -85h2s-1 7 2 21c6 32 26 52 67 52h109l-14 -75h-56c-13 0 -23 -7 -26 -20l-76 -395
c-33 -167 -160 -226 -280 -226c-94 0 -155 30 -182 45zM132 218c0 -78 41 -128 117 -128c118 0 175 133 175 235c0 83 -52 109 -116 109c-113 0 -176 -109 -176 -216zM316 608l19 98h92l-20 -98h-91z" />
    <glyph glyph-name="Gcommaaccent" unicode="&#x122;" horiz-adv-x="770" 
d="M291 -58h85c1 -5 2 -14 2 -20c0 -65 -43 -119 -103 -147l-35 36c35 27 54 59 54 99c0 10 -1 21 -3 32zM56 295c0 230 192 423 433 423c109 0 277 -41 258 -139l-17 -87h-92l10 52c13 65 -91 88 -160 88c-190 0 -328 -163 -328 -332c0 -130 80 -225 229 -225
c68 0 188 21 201 88l19 93h-139l16 78h230l-39 -198c-22 -111 -184 -148 -296 -148c-199 0 -325 125 -325 307z" />
    <glyph glyph-name="gcommaaccent" unicode="&#x123;" horiz-adv-x="627" 
d="M388 576h-85c-1 5 -2 14 -2 20c0 65 43 119 103 147l35 -36c-35 -27 -54 -59 -54 -99c0 -10 1 -21 3 -32zM43 -95c0 0 55 -33 135 -33c91 0 169 39 191 160c8 38 15 57 15 57h-2c-37 -52 -87 -83 -156 -83c-124 0 -193 85 -193 205c0 141 95 307 267 307
c91 0 145 -42 156 -85h2s-1 7 2 21c6 32 26 52 67 52h109l-14 -75h-56c-13 0 -23 -7 -26 -20l-76 -395c-33 -167 -160 -226 -280 -226c-94 0 -155 30 -182 45zM132 218c0 -78 41 -128 117 -128c118 0 175 133 175 235c0 83 -52 109 -116 109c-113 0 -176 -109 -176 -216z
" />
    <glyph glyph-name="Hcircumflex" unicode="&#x124;" horiz-adv-x="850" 
d="M370 755l113 127h105l63 -127h-84l-36 80h-2l-68 -80h-91zM-4 0l15 78h88l107 551h-88l15 77h277l-15 -77h-88l-46 -235h365l46 235h-89l15 77h278l-15 -77h-89l-108 -551h89l-15 -78h-278l15 78h89l46 234h-365l-46 -234h89l-15 -78h-277z" />
    <glyph glyph-name="hcircumflex" unicode="&#x125;" horiz-adv-x="643" 
d="M79 755l113 127h105l63 -127h-84l-36 80h-2l-68 -80h-91zM29 0l122 631h-81l14 75h179l-50 -261c-5 -24 -13 -45 -13 -45h2c15 30 91 118 208 118c88 0 142 -46 142 -133c0 -62 -44 -228 -44 -268c0 -38 20 -44 45 -44c14 0 24 2 24 2l-15 -75s-19 -2 -43 -2
c-45 0 -111 9 -111 95c0 48 43 213 43 263c0 48 -27 73 -75 73c-102 0 -185 -94 -206 -202l-45 -227h-96z" />
    <glyph glyph-name="Hbar" unicode="&#x126;" horiz-adv-x="850" 
d="M-3 0l15 78h88l78 404h-82l11 57h83l17 90h-89l16 77h277l-15 -77h-89l-17 -90h365l17 90h-88l15 77h277l-15 -77h-89l-17 -90h83l-11 -57h-83l-79 -404h89l-16 -78h-277l15 78h89l45 230h-366l-44 -230h88l-15 -78h-276zM258 377h366l20 105h-366z" />
    <glyph glyph-name="hbar" unicode="&#x127;" horiz-adv-x="642" 
d="M28 0l110 565h-72l13 62h71l15 79h97l-15 -79h153l-12 -62h-153l-23 -120c-5 -24 -13 -45 -13 -45h2c15 30 91 118 208 118c88 0 142 -46 142 -133c0 -62 -44 -228 -44 -268c0 -38 20 -44 45 -44c14 0 24 2 24 2l-15 -75s-19 -2 -43 -2c-45 0 -111 9 -111 95
c0 48 43 213 43 263c0 48 -27 73 -75 73c-102 0 -185 -94 -206 -202l-45 -227h-96z" />
    <glyph glyph-name="Itilde" unicode="&#x128;" horiz-adv-x="384" 
d="M-4 0l15 78h88l107 551h-88l15 77h277l-15 -77h-89l-107 -551h89l-15 -78h-277zM117 756c16 81 58 127 117 127c69 0 71 -67 111 -67c29 0 42 37 48 64h73c-14 -81 -58 -127 -116 -127c-68 0 -72 67 -111 67c-29 0 -43 -34 -49 -64h-73z" />
    <glyph glyph-name="itilde" unicode="&#x129;" horiz-adv-x="319" 
d="M73 95c0 12 2 27 5 44l58 292h-85l15 75h181l-70 -358c-2 -11 -4 -22 -4 -31c0 -36 21 -44 46 -44c14 0 23 2 23 2l-14 -75s-23 -2 -40 -2c-50 0 -115 8 -115 97zM50 580c16 81 58 127 117 127c69 0 71 -67 111 -67c29 0 42 37 48 64h73c-14 -81 -58 -127 -116 -127
c-68 0 -72 67 -111 67c-29 0 -43 -34 -49 -64h-73z" />
    <glyph glyph-name="Imacron" unicode="&#x12a;" horiz-adv-x="384" 
d="M-4 0l15 78h88l107 551h-88l15 77h277l-15 -77h-89l-107 -551h89l-15 -78h-277zM158 784l13 71h254l-13 -71h-254z" />
    <glyph glyph-name="imacron" unicode="&#x12b;" horiz-adv-x="319" 
d="M73 95c0 12 2 27 5 44l58 292h-85l15 75h181l-70 -358c-2 -11 -4 -22 -4 -31c0 -36 21 -44 46 -44c14 0 23 2 23 2l-14 -75s-23 -2 -40 -2c-50 0 -115 8 -115 97zM91 608l13 71h254l-13 -71h-254z" />
    <glyph glyph-name="Ibreve" unicode="&#x12c;" horiz-adv-x="384" 
d="M-4 0l15 78h88l107 551h-88l15 77h277l-15 -77h-89l-107 -551h89l-15 -78h-277zM287 751c-73 0 -133 45 -118 117l3 14h73l-2 -13c-8 -42 17 -60 47 -60s64 18 72 61l2 12h74l-3 -14c-15 -82 -79 -117 -148 -117z" />
    <glyph glyph-name="ibreve" unicode="&#x12d;" horiz-adv-x="319" 
d="M73 95c0 12 2 27 5 44l58 292h-85l15 75h181l-70 -358c-2 -11 -4 -22 -4 -31c0 -36 21 -44 46 -44c14 0 23 2 23 2l-14 -75s-23 -2 -40 -2c-50 0 -115 8 -115 97zM220 575c-73 0 -133 45 -118 117l3 14h73l-2 -13c-8 -42 17 -60 47 -60s64 18 72 61l2 12h74l-3 -14
c-15 -82 -79 -117 -148 -117z" />
    <glyph glyph-name="Iogonek" unicode="&#x12e;" horiz-adv-x="384" 
d="M-4 0l15 78h88l107 551h-88l15 77h277l-15 -77h-89l-107 -551h89l-15 -78h-5c-21 0 -103 -64 -103 -112c0 -32 38 -39 54 -40l-31 -68c-35 4 -104 24 -104 86c0 56 43 102 91 134h-179z" />
    <glyph glyph-name="iogonek" unicode="&#x12f;" horiz-adv-x="320" 
d="M41 -134c0 58 46 105 95 137c-34 9 -63 33 -63 92c0 12 3 27 6 44l57 292h-84l14 75h182l-71 -358c-2 -11 -3 -22 -3 -31c0 -36 20 -44 45 -44c15 0 24 2 24 2l-15 -75s-5 0 -10 -1c-24 -6 -97 -66 -97 -111c0 -32 39 -39 55 -40l-31 -68c-35 4 -104 24 -104 86zM168 607
l19 99h102l-19 -99h-102z" />
    <glyph glyph-name="Idotaccent" unicode="&#x130;" horiz-adv-x="384" 
d="M-4 0l15 78h88l107 551h-88l15 77h277l-15 -77h-89l-107 -551h89l-15 -78h-277zM240 784l19 98h92l-20 -98h-91z" />
    <glyph glyph-name="IJ" unicode="&#x132;" horiz-adv-x="735" 
d="M315 -3l16 83c58 -2 142 20 167 145l78 404h-93l15 77h278l-15 -77h-85l-77 -396c-40 -207 -163 -241 -284 -236zM-3 0l15 78h88l107 551h-89l16 77h277l-15 -77h-89l-107 -551h76l-15 -78h-264z" />
    <glyph glyph-name="ij" unicode="&#x133;" horiz-adv-x="601" 
d="M167 607l20 99h102l-20 -99h-102zM73 95c0 12 2 27 5 44l58 292h-85l15 75h181l-70 -358c-2 -11 -4 -22 -4 -31c0 -36 21 -44 46 -44c14 0 23 2 23 2l-14 -75s-23 -2 -40 -2c-50 0 -115 8 -115 97zM475 607l19 99h102l-19 -99h-102zM357 -16l86 447h-85l15 75h182
l-101 -518c-32 -170 -157 -194 -218 -194c-28 0 -46 2 -46 2l16 78s8 -1 22 -1c37 0 110 12 129 111z" />
    <glyph glyph-name="Jcircumflex" unicode="&#x134;" horiz-adv-x="553" 
d="M329 755l113 127h105l63 -127h-84l-36 80h-2l-68 -80h-91zM0 155c0 41 13 83 13 83h96s-11 -40 -11 -71c0 -56 26 -90 87 -90c54 0 115 32 132 125l83 427h-104l15 77h282l-15 -77h-78l-84 -434c-29 -149 -134 -207 -233 -207c-95 0 -183 51 -183 167z" />
    <glyph glyph-name="jcircumflex" unicode="&#x135;" horiz-adv-x="298" 
d="M56 579l114 127h105l62 -127h-83l-36 81h-2l-69 -81h-91zM54 -16l86 447h-85l15 75h182l-101 -518c-32 -170 -157 -194 -218 -194c-28 0 -46 2 -46 2l16 78s8 -1 22 -1c37 0 110 12 129 111z" />
    <glyph glyph-name="Kcommaaccent" unicode="&#x136;" horiz-adv-x="693" 
d="M245 -58h85c1 -5 2 -14 2 -20c0 -65 -43 -119 -103 -147l-35 36c35 27 54 59 54 99c0 10 -1 21 -3 32zM-4 0l15 78h88l107 551h-88l15 77h266l-15 -77h-78l-43 -222h86l197 222h-60l15 77h238l-15 -77h-68l-233 -259v-2s16 -10 28 -43l79 -203c10 -28 19 -46 57 -46
c11 0 30 2 30 2l-15 -78c-8 -1 -34 -2 -48 -2c-81 0 -104 43 -123 94l-74 200c-8 23 -21 33 -51 33h-59l-48 -247h87l-16 -78h-274z" />
    <glyph glyph-name="kcommaaccent" unicode="&#x137;" horiz-adv-x="559" 
d="M177 -58h85c1 -5 2 -14 2 -20c0 -65 -43 -119 -103 -147l-35 36c35 27 54 59 54 99c0 10 -1 21 -3 32zM28 0l123 631h-84l14 75h182l-77 -395h64l129 120h-63l14 75h226l-15 -75h-59l-163 -152v-2s14 -11 27 -40l55 -121c10 -24 21 -42 56 -42c7 0 28 1 28 1l-14 -75
c-7 -1 -28 -2 -44 -2c-81 0 -96 40 -118 90l-56 125c-8 18 -18 24 -41 24h-40l-48 -237h-96z" />
    <glyph glyph-name="kgreenlandic" unicode="&#x138;" horiz-adv-x="586" 
d="M57 0l83 431h-84l15 75h181l-37 -193h67l128 118h-64l15 75h221l-14 -75h-60l-163 -153v-2s17 -10 29 -39l55 -121c11 -24 22 -42 57 -42c7 0 28 1 28 1l-15 -75c-7 -1 -27 -2 -41 -2c-78 0 -96 40 -118 90l-55 125c-9 18 -20 23 -44 23h-41l-47 -236h-96z" />
    <glyph glyph-name="Lacute" unicode="&#x139;" horiz-adv-x="603" 
d="M217 755l128 127h116l-148 -127h-96zM-2 0l15 78h87l107 546h-89l16 82h278l-16 -82h-89l-106 -542h246l23 114h87l-39 -196h-520z" />
    <glyph glyph-name="lacute" unicode="&#x13a;" horiz-adv-x="295" 
d="M159 755l128 127h116l-148 -127h-96zM49 98c0 13 2 29 5 46l95 487h-85l15 75h181l-106 -553c-3 -12 -5 -26 -5 -34c0 -37 20 -42 46 -42c15 0 24 2 24 2l-16 -80s-20 -2 -40 -2c-49 0 -114 12 -114 101z" />
    <glyph glyph-name="Lcommaaccent" unicode="&#x13b;" horiz-adv-x="603" 
d="M227 -58h85c1 -5 2 -14 2 -20c0 -65 -43 -119 -103 -147l-35 36c35 27 54 59 54 99c0 10 -1 21 -3 32zM-2 0l15 78h87l107 546h-89l16 82h278l-16 -82h-89l-106 -542h246l23 114h87l-39 -196h-520z" />
    <glyph glyph-name="lcommaaccent" unicode="&#x13c;" horiz-adv-x="295" 
d="M60 -58h85c1 -5 2 -14 2 -20c0 -65 -43 -119 -103 -147l-35 36c35 27 54 59 54 99c0 10 -1 21 -3 32zM49 98c0 13 2 29 5 46l95 487h-85l15 75h181l-106 -553c-3 -12 -5 -26 -5 -34c0 -37 20 -42 46 -42c15 0 24 2 24 2l-16 -80s-20 -2 -40 -2c-49 0 -114 12 -114 101z
" />
    <glyph glyph-name="Lcaron" unicode="&#x13d;" horiz-adv-x="603" 
d="M227 -58h85c1 -5 2 -14 2 -20c0 -65 -43 -119 -103 -147l-35 36c35 27 54 59 54 99c0 10 -1 21 -3 32zM-2 0l15 78h87l107 546h-89l16 82h278l-16 -82h-89l-106 -542h246l23 114h87l-39 -196h-520z" />
    <glyph glyph-name="lcaron" unicode="&#x13e;" horiz-adv-x="295" 
d="M328 705h85c1 -5 2 -14 2 -20c0 -65 -43 -119 -103 -147l-35 36c35 27 54 59 54 99c0 10 -1 21 -3 32zM49 98c0 13 2 29 5 46l95 487h-85l15 75h181l-106 -553c-3 -12 -5 -26 -5 -34c0 -37 20 -42 46 -42c15 0 24 2 24 2l-16 -80s-20 -2 -40 -2c-49 0 -114 12 -114 101z
" />
    <glyph glyph-name="Ldot" unicode="&#x13f;" horiz-adv-x="603" 
d="M-2 0l15 78h87l107 546h-89l16 82h278l-16 -82h-89l-106 -542h246l23 114h87l-39 -196h-520zM365 327l20 105h101l-20 -105h-101z" />
    <glyph glyph-name="ldot" unicode="&#x140;" horiz-adv-x="369" 
d="M49 98c0 13 2 29 5 46l95 487h-85l15 75h181l-106 -553c-3 -12 -5 -26 -5 -34c0 -37 20 -42 46 -42c15 0 24 2 24 2l-16 -80s-20 -2 -40 -2c-49 0 -114 12 -114 101zM271 327l20 105h101l-20 -105h-101z" />
    <glyph glyph-name="Lslash" unicode="&#x141;" horiz-adv-x="602" 
d="M-3 0l15 78h88l38 198l-94 -44l17 88l94 45l51 259h-88l16 82h277l-16 -82h-89l-40 -206l224 106l-17 -89l-224 -106l-49 -247h250l23 114h83l-38 -196h-521z" />
    <glyph glyph-name="lslash" unicode="&#x142;" horiz-adv-x="294" 
d="M54 142l36 185l-88 -45l16 89l89 45l42 215h-84l15 75h181l-46 -236l101 52l-18 -89l-100 -52l-45 -231c-12 -62 9 -73 41 -73c9 0 17 1 17 1l-16 -80s-15 -2 -32 -2c-56 0 -133 18 -109 146z" />
    <glyph glyph-name="Nacute" unicode="&#x143;" horiz-adv-x="840" 
d="M451 755l128 127h116l-148 -127h-96zM-3 0l15 78h88l107 551h-89l16 77h184l249 -511c9 -19 14 -49 14 -49h3s2 33 7 55l84 428h-90l15 77h279l-15 -77h-89l-123 -629h-96l-250 511c-9 20 -14 49 -14 49h-3s-2 -33 -7 -55l-82 -427h90l-15 -78h-278z" />
    <glyph glyph-name="nacute" unicode="&#x144;" horiz-adv-x="672" 
d="M343 579l128 127h116l-148 -127h-96zM57 0l80 409c2 13 -2 22 -18 22h-63l15 75h115c39 0 54 -15 54 -43c0 -11 -7 -49 -15 -68h2c15 31 90 123 214 123c86 0 140 -46 140 -133c0 -62 -44 -228 -44 -268c0 -38 20 -44 45 -44c14 0 24 2 24 2l-15 -75s-20 -2 -43 -2
c-45 0 -111 9 -111 95c0 48 43 213 43 263c0 48 -26 73 -76 73c-99 0 -185 -94 -206 -202l-44 -227h-97z" />
    <glyph glyph-name="Ncommaaccent" unicode="&#x145;" horiz-adv-x="840" 
d="M310 -58h85c1 -5 2 -14 2 -20c0 -65 -43 -119 -103 -147l-35 36c35 27 54 59 54 99c0 10 -1 21 -3 32zM-3 0l15 78h88l107 551h-89l16 77h184l249 -511c9 -19 14 -49 14 -49h3s2 33 7 55l84 428h-90l15 77h279l-15 -77h-89l-123 -629h-96l-250 511c-9 20 -14 49 -14 49
h-3s-2 -33 -7 -55l-82 -427h90l-15 -78h-278z" />
    <glyph glyph-name="ncommaaccent" unicode="&#x146;" horiz-adv-x="672" 
d="M264 -58h85c1 -5 2 -14 2 -20c0 -65 -43 -119 -103 -147l-35 36c35 27 54 59 54 99c0 10 -1 21 -3 32zM57 0l80 409c2 13 -2 22 -18 22h-63l15 75h115c39 0 54 -15 54 -43c0 -11 -7 -49 -15 -68h2c15 31 90 123 214 123c86 0 140 -46 140 -133c0 -62 -44 -228 -44 -268
c0 -38 20 -44 45 -44c14 0 24 2 24 2l-15 -75s-20 -2 -43 -2c-45 0 -111 9 -111 95c0 48 43 213 43 263c0 48 -26 73 -76 73c-99 0 -185 -94 -206 -202l-44 -227h-97z" />
    <glyph glyph-name="Ncaron" unicode="&#x147;" horiz-adv-x="840" 
d="M464 755l-62 127h83l36 -81h2l69 81h91l-113 -127h-106zM-3 0l15 78h88l107 551h-89l16 77h184l249 -511c9 -19 14 -49 14 -49h3s2 33 7 55l84 428h-90l15 77h279l-15 -77h-89l-123 -629h-96l-250 511c-9 20 -14 49 -14 49h-3s-2 -33 -7 -55l-82 -427h90l-15 -78h-278z
" />
    <glyph glyph-name="ncaron" unicode="&#x148;" horiz-adv-x="672" 
d="M356 579l-62 127h83l36 -81h2l69 81h91l-113 -127h-106zM57 0l80 409c2 13 -2 22 -18 22h-63l15 75h115c39 0 54 -15 54 -43c0 -11 -7 -49 -15 -68h2c15 31 90 123 214 123c86 0 140 -46 140 -133c0 -62 -44 -228 -44 -268c0 -38 20 -44 45 -44c14 0 24 2 24 2l-15 -75
s-20 -2 -43 -2c-45 0 -111 9 -111 95c0 48 43 213 43 263c0 48 -26 73 -76 73c-99 0 -185 -94 -206 -202l-44 -227h-97z" />
    <glyph glyph-name="napostrophe" unicode="&#x149;" horiz-adv-x="672" 
d="M121 721h85c1 -5 2 -14 2 -20c0 -65 -43 -119 -103 -147l-35 36c35 27 54 59 54 99c0 10 -1 21 -3 32zM57 0l80 409c2 13 -2 22 -18 22h-63l15 75h115c39 0 54 -15 54 -43c0 -11 -7 -49 -15 -68h2c15 31 90 123 214 123c86 0 140 -46 140 -133c0 -62 -44 -228 -44 -268
c0 -38 20 -44 45 -44c14 0 24 2 24 2l-15 -75s-20 -2 -43 -2c-45 0 -111 9 -111 95c0 48 43 213 43 263c0 48 -26 73 -76 73c-99 0 -185 -94 -206 -202l-44 -227h-97z" />
    <glyph glyph-name="Eng" unicode="&#x14a;" horiz-adv-x="840" 
d="M-3 0l15 78h88l107 551h-89l16 77h185l248 -511c9 -19 14 -49 14 -49h3s3 33 7 55l84 428h-90l15 77h279l-15 -77h-89l-115 -590c-40 -205 -156 -244 -287 -244l17 86c66 0 141 22 164 121l-248 509c-9 20 -14 49 -14 49h-3s-2 -33 -7 -55l-82 -427h90l-15 -78h-278z" />
    <glyph glyph-name="eng" unicode="&#x14b;" horiz-adv-x="645" 
d="M57 0l80 409c2 13 -3 22 -18 22h-63l15 75h115c39 0 54 -15 54 -43c0 -11 -7 -49 -15 -68h2c15 31 90 123 214 123c86 0 140 -46 140 -133c0 -29 -8 -67 -15 -102l-57 -298c-33 -170 -158 -194 -219 -194c-27 0 -46 2 -46 2l16 78s8 -1 22 -1c37 0 110 12 129 112l57 292
c6 32 12 61 12 82c0 48 -26 73 -76 73c-99 0 -185 -94 -206 -202l-44 -227h-97z" />
    <glyph glyph-name="Omacron" unicode="&#x14c;" horiz-adv-x="824" 
d="M380 784l13 71h254l-13 -71h-254zM56 296c0 229 206 422 428 422c183 0 307 -125 307 -300c0 -233 -208 -430 -428 -430c-183 0 -307 129 -307 308zM157 300c0 -131 87 -223 213 -223c158 0 319 150 319 336c0 127 -87 217 -213 217c-161 0 -319 -148 -319 -330z" />
    <glyph glyph-name="omacron" unicode="&#x14d;" horiz-adv-x="627" 
d="M248 608l13 71h254l-13 -71h-254zM29 211c0 174 154 307 319 307c137 0 233 -90 233 -221c0 -176 -155 -309 -319 -309c-137 0 -233 91 -233 223zM128 215c0 -85 58 -143 142 -143c105 0 212 95 212 220c0 84 -58 142 -142 142c-106 0 -212 -95 -212 -219z" />
    <glyph glyph-name="Obreve" unicode="&#x14e;" horiz-adv-x="824" 
d="M56 296c0 229 206 422 428 422c183 0 307 -125 307 -300c0 -233 -208 -430 -428 -430c-183 0 -307 129 -307 308zM157 300c0 -131 87 -223 213 -223c158 0 319 150 319 336c0 127 -87 217 -213 217c-161 0 -319 -148 -319 -330zM508 751c-73 0 -133 45 -118 117l3 14h73
l-2 -13c-8 -42 17 -60 47 -60s64 18 72 61l2 12h74l-3 -14c-15 -82 -79 -117 -148 -117z" />
    <glyph glyph-name="obreve" unicode="&#x14f;" horiz-adv-x="627" 
d="M29 211c0 174 154 307 319 307c137 0 233 -90 233 -221c0 -176 -155 -309 -319 -309c-137 0 -233 91 -233 223zM128 215c0 -85 58 -143 142 -143c105 0 212 95 212 220c0 84 -58 142 -142 142c-106 0 -212 -95 -212 -219zM376 575c-73 0 -133 45 -118 117l3 14h73l-2 -13
c-8 -42 17 -60 47 -60s64 18 72 61l2 12h74l-3 -14c-15 -82 -79 -117 -148 -117z" />
    <glyph glyph-name="Ohungarumlaut" unicode="&#x150;" horiz-adv-x="824" 
d="M521 755l99 127h108l-121 -127h-86zM365 755l93 127h95l-96 -127h-92zM56 296c0 229 206 422 428 422c183 0 307 -125 307 -300c0 -233 -208 -430 -428 -430c-183 0 -307 129 -307 308zM157 300c0 -131 87 -223 213 -223c158 0 319 150 319 336c0 127 -87 217 -213 217
c-161 0 -319 -148 -319 -330z" />
    <glyph glyph-name="hungarumlaut" unicode="&#x2dd;" horiz-adv-x="499" 
d="M169 755l99 127h108l-121 -127h-86zM13 755l93 127h95l-96 -127h-92z" />
    <glyph glyph-name="ohungarumlaut" unicode="&#x151;" horiz-adv-x="627" 
d="M389 579l99 127h108l-121 -127h-86zM233 579l93 127h95l-96 -127h-92zM29 211c0 174 154 307 319 307c137 0 233 -90 233 -221c0 -176 -155 -309 -319 -309c-137 0 -233 91 -233 223zM128 215c0 -85 58 -143 142 -143c105 0 212 95 212 220c0 84 -58 142 -142 142
c-106 0 -212 -95 -212 -219z" />
    <glyph glyph-name="OE" unicode="&#x152;" horiz-adv-x="978" 
d="M56 292c0 230 201 423 422 423c58 0 99 -9 141 -9h369l-32 -164h-83l16 82h-237l-45 -228h248l-16 -81h-248l-45 -233h254l16 83h83l-32 -165h-373c-34 0 -76 -9 -124 -9c-190 0 -314 126 -314 301zM158 292c0 -127 82 -217 216 -217c40 0 73 8 73 8l104 541s-29 7 -69 7
c-174 0 -324 -153 -324 -339z" />
    <glyph glyph-name="oe" unicode="&#x153;" horiz-adv-x="1002" 
d="M29 211c0 174 152 307 314 307c96 0 167 -47 202 -120h2c50 72 129 120 222 120c131 0 193 -78 193 -187c0 -41 -15 -88 -15 -88h-369s-4 -16 -4 -36c0 -76 51 -135 145 -135c86 0 161 59 161 59l28 -77s-84 -66 -194 -66c-101 0 -175 46 -208 123h-2
c-56 -76 -147 -123 -237 -123c-141 0 -238 91 -238 223zM593 307h270s3 16 3 32c0 68 -41 102 -98 102c-75 0 -144 -49 -175 -134zM128 215c0 -85 58 -143 142 -143c105 0 212 95 212 220c0 84 -58 142 -142 142c-110 0 -212 -95 -212 -219z" />
    <glyph glyph-name="Racute" unicode="&#x154;" horiz-adv-x="704" 
d="M362 755l128 127h116l-148 -127h-96zM-4 0l15 78h89l107 551h-89l16 77h311c46 0 91 -4 126 -22c48 -25 83 -74 83 -149c0 -105 -70 -205 -185 -230v-3s16 -19 24 -38l55 -142c11 -28 20 -46 57 -46c12 0 29 2 29 2l-15 -78c-8 -1 -32 -2 -47 -2c-80 0 -103 44 -122 94
l-57 153c-12 33 -29 40 -63 40h-89l-41 -207h86l-15 -78h-275zM256 367h139c83 0 157 62 157 155c0 41 -14 68 -38 83c-21 14 -54 19 -90 19h-118z" />
    <glyph glyph-name="racute" unicode="&#x155;" horiz-adv-x="409" 
d="M207 579l128 127h116l-148 -127h-96zM57 0l79 409c2 12 -1 22 -18 22h-63l16 75h114c39 0 54 -14 54 -43c0 -13 -10 -62 -18 -86h2c34 72 102 135 182 135c13 0 24 -1 30 -2l-19 -96c-5 1 -14 3 -27 3c-93 0 -177 -113 -199 -229l-36 -188h-97z" />
    <glyph glyph-name="Rcommaaccent" unicode="&#x156;" horiz-adv-x="704" 
d="M261 -58h85c1 -5 2 -14 2 -20c0 -65 -43 -119 -103 -147l-35 36c35 27 54 59 54 99c0 10 -1 21 -3 32zM-4 0l15 78h89l107 551h-89l16 77h311c46 0 91 -4 126 -22c48 -25 83 -74 83 -149c0 -105 -70 -205 -185 -230v-3s16 -19 24 -38l55 -142c11 -28 20 -46 57 -46
c12 0 29 2 29 2l-15 -78c-8 -1 -32 -2 -47 -2c-80 0 -103 44 -122 94l-57 153c-12 33 -29 40 -63 40h-89l-41 -207h86l-15 -78h-275zM256 367h139c83 0 157 62 157 155c0 41 -14 68 -38 83c-21 14 -54 19 -90 19h-118z" />
    <glyph glyph-name="rcommaaccent" unicode="&#x157;" horiz-adv-x="409" 
d="M49 -58h85c1 -5 2 -14 2 -20c0 -65 -43 -119 -103 -147l-35 36c35 27 54 59 54 99c0 10 -1 21 -3 32zM57 0l79 409c2 12 -1 22 -18 22h-63l16 75h114c39 0 54 -14 54 -43c0 -13 -10 -62 -18 -86h2c34 72 102 135 182 135c13 0 24 -1 30 -2l-19 -96c-5 1 -14 3 -27 3
c-93 0 -177 -113 -199 -229l-36 -188h-97z" />
    <glyph glyph-name="Rcaron" unicode="&#x158;" horiz-adv-x="704" 
d="M375 755l-62 127h83l36 -81h2l69 81h91l-113 -127h-106zM-4 0l15 78h89l107 551h-89l16 77h311c46 0 91 -4 126 -22c48 -25 83 -74 83 -149c0 -105 -70 -205 -185 -230v-3s16 -19 24 -38l55 -142c11 -28 20 -46 57 -46c12 0 29 2 29 2l-15 -78c-8 -1 -32 -2 -47 -2
c-80 0 -103 44 -122 94l-57 153c-12 33 -29 40 -63 40h-89l-41 -207h86l-15 -78h-275zM256 367h139c83 0 157 62 157 155c0 41 -14 68 -38 83c-21 14 -54 19 -90 19h-118z" />
    <glyph glyph-name="rcaron" unicode="&#x159;" horiz-adv-x="409" 
d="M219 579l-62 127h83l36 -81h2l69 81h91l-113 -127h-106zM57 0l79 409c2 12 -1 22 -18 22h-63l16 75h114c39 0 54 -14 54 -43c0 -13 -10 -62 -18 -86h2c34 72 102 135 182 135c13 0 24 -1 30 -2l-19 -96c-5 1 -14 3 -27 3c-93 0 -177 -113 -199 -229l-36 -188h-97z" />
    <glyph glyph-name="Sacute" unicode="&#x15a;" horiz-adv-x="588" 
d="M316 755l128 127h116l-148 -127h-96zM29 145l14 70h92l-11 -55c-12 -62 64 -83 132 -83c93 0 159 53 159 129c0 148 -309 92 -309 303c0 137 128 209 269 209c83 0 213 -33 194 -124l-16 -76h-92l9 49c10 48 -58 63 -108 63c-85 0 -153 -44 -153 -115
c0 -141 309 -84 309 -303c0 -140 -127 -224 -275 -224c-91 0 -236 38 -214 157z" />
    <glyph glyph-name="sacute" unicode="&#x15b;" horiz-adv-x="486" 
d="M241 579l128 127h116l-148 -127h-96zM5 113l9 50h85l-6 -33c-11 -55 69 -63 109 -63c64 0 115 28 115 74c0 96 -243 68 -243 222c0 103 107 155 215 155c84 0 172 -34 157 -108l-11 -55h-85l7 36c8 40 -47 49 -82 49c-54 0 -105 -24 -105 -70c0 -97 243 -65 243 -216
c0 -98 -90 -166 -225 -166c-86 0 -201 34 -183 125z" />
    <glyph glyph-name="Scircumflex" unicode="&#x15c;" horiz-adv-x="588" 
d="M234 755l113 127h105l63 -127h-84l-36 80h-2l-68 -80h-91zM29 145l14 70h92l-11 -55c-12 -62 64 -83 132 -83c93 0 159 53 159 129c0 148 -309 92 -309 303c0 137 128 209 269 209c83 0 213 -33 194 -124l-16 -76h-92l9 49c10 48 -58 63 -108 63
c-85 0 -153 -44 -153 -115c0 -141 309 -84 309 -303c0 -140 -127 -224 -275 -224c-91 0 -236 38 -214 157z" />
    <glyph glyph-name="scircumflex" unicode="&#x15d;" horiz-adv-x="486" 
d="M159 579l113 127h105l63 -127h-84l-36 80h-2l-68 -80h-91zM5 113l9 50h85l-6 -33c-11 -55 69 -63 109 -63c64 0 115 28 115 74c0 96 -243 68 -243 222c0 103 107 155 215 155c84 0 172 -34 157 -108l-11 -55h-85l7 36c8 40 -47 49 -82 49c-54 0 -105 -24 -105 -70
c0 -97 243 -65 243 -216c0 -98 -90 -166 -225 -166c-86 0 -201 34 -183 125z" />
    <glyph glyph-name="Scedilla" unicode="&#x15e;" horiz-adv-x="588" 
d="M161 -97l40 88c-87 10 -191 51 -172 154l14 70h92l-11 -55c-12 -62 64 -83 132 -83c93 0 159 53 159 129c0 148 -309 92 -309 303c0 137 128 209 269 209c83 0 213 -33 194 -124l-16 -76h-92l9 49c10 48 -58 63 -108 63c-85 0 -153 -44 -153 -115
c0 -141 309 -84 309 -303c0 -136 -121 -219 -264 -224l-19 -44c37 -4 67 -28 67 -68c0 -67 -71 -93 -127 -93c-32 0 -56 7 -56 7l11 53s18 -6 43 -6c22 0 58 7 58 37c0 19 -22 29 -53 29h-17z" />
    <glyph glyph-name="scedilla" unicode="&#x15f;" horiz-adv-x="485" 
d="M115 -97l40 87c-81 8 -165 44 -150 123l9 50h85l-6 -33c-11 -55 69 -63 109 -63c64 0 115 28 115 74c0 96 -243 68 -243 222c0 103 107 155 215 155c84 0 172 -34 157 -108l-11 -55h-85l7 36c8 40 -47 49 -82 49c-54 0 -105 -24 -105 -70c0 -97 243 -65 243 -216
c0 -93 -81 -159 -204 -165l-20 -45c37 -4 68 -28 68 -68c0 -67 -72 -93 -127 -93c-32 0 -56 7 -56 7l10 53s18 -6 43 -6c23 0 58 7 58 37c0 19 -22 29 -52 29h-18z" />
    <glyph glyph-name="Scaron" unicode="&#x160;" horiz-adv-x="588" 
d="M329 755l-62 127h83l36 -81h2l69 81h91l-113 -127h-106zM29 145l14 70h92l-11 -55c-12 -62 64 -83 132 -83c93 0 159 53 159 129c0 148 -309 92 -309 303c0 137 128 209 269 209c83 0 213 -33 194 -124l-16 -76h-92l9 49c10 48 -58 63 -108 63c-85 0 -153 -44 -153 -115
c0 -141 309 -84 309 -303c0 -140 -127 -224 -275 -224c-91 0 -236 38 -214 157z" />
    <glyph glyph-name="scaron" unicode="&#x161;" horiz-adv-x="486" 
d="M254 579l-62 127h83l36 -81h2l69 81h91l-113 -127h-106zM5 113l9 50h85l-6 -33c-11 -55 69 -63 109 -63c64 0 115 28 115 74c0 96 -243 68 -243 222c0 103 107 155 215 155c84 0 172 -34 157 -108l-11 -55h-85l7 36c8 40 -47 49 -82 49c-54 0 -105 -24 -105 -70
c0 -97 243 -65 243 -216c0 -98 -90 -166 -225 -166c-86 0 -201 34 -183 125z" />
    <glyph glyph-name="Tcommaaccent" unicode="&#x162;" horiz-adv-x="666" 
d="M135 0l15 78h88l107 546h-166l-21 -110h-88l38 192h606l-38 -192h-87l21 110h-165l-107 -546h89l-15 -78h-114l-24 -56c37 -4 67 -28 67 -68c0 -67 -71 -93 -127 -93c-32 0 -56 7 -56 7l11 53s18 -6 43 -6c22 0 58 7 58 37c0 19 -22 29 -53 29h-17l44 97h-109z" />
    <glyph glyph-name="tcommaaccent" unicode="&#x163;" horiz-adv-x="359" 
d="M88 -97l53 115c-38 21 -64 59 -64 126c0 15 2 32 5 51l47 236h-85l15 75h87l27 139h94l-27 -139h122l-15 -75h-122l-45 -236c-3 -14 -4 -29 -4 -39c0 -69 46 -80 83 -80c17 0 29 2 29 2l-16 -80s-16 -2 -32 -2c-17 0 -36 1 -53 5l-25 -57c37 -4 67 -28 67 -68
c0 -67 -71 -93 -127 -93c-32 0 -56 7 -56 7l11 53s18 -6 43 -6c22 0 58 7 58 37c0 19 -22 29 -53 29h-17z" />
    <glyph glyph-name="Tcaron" unicode="&#x164;" horiz-adv-x="666" 
d="M370 755l-62 127h83l36 -81h2l69 81h91l-113 -127h-106zM135 0l15 78h88l107 546h-166l-21 -110h-88l38 192h606l-38 -192h-87l21 110h-165l-107 -546h89l-15 -78h-277z" />
    <glyph glyph-name="tcaron" unicode="&#x165;" horiz-adv-x="357" 
d="M368 720h85c1 -5 2 -14 2 -20c0 -65 -43 -119 -103 -147l-35 36c35 27 54 59 54 99c0 10 -1 21 -3 32zM75 144c0 15 2 32 6 51l46 236h-85l15 75h87l27 139h94l-27 -139h122l-15 -75h-122l-45 -236c-3 -14 -4 -29 -4 -39c0 -69 46 -80 84 -80c16 0 28 2 28 2l-16 -80
s-16 -2 -32 -2c-78 0 -163 28 -163 148z" />
    <glyph glyph-name="Tbar" unicode="&#x166;" horiz-adv-x="666" 
d="M135 0l15 78h88l46 235h-180l14 70h180l47 241h-166l-21 -110h-88l38 192h606l-38 -192h-87l22 110h-166l-47 -241h181l-14 -70h-181l-46 -235h89l-15 -78h-277z" />
    <glyph glyph-name="tbar" unicode="&#x167;" horiz-adv-x="357" 
d="M76 144c0 15 2 32 5 51l13 69h-80l14 70h80l20 101h-84l14 71h87l27 139h94l-27 -139h121l-14 -71h-121l-20 -101h116l-14 -70h-115l-13 -69c-3 -14 -4 -29 -4 -39c0 -69 46 -80 83 -80c17 0 28 2 28 2l-16 -80s-15 -2 -31 -2c-78 0 -163 28 -163 148z" />
    <glyph glyph-name="Utilde" unicode="&#x168;" horiz-adv-x="801" 
d="M106 195c0 29 6 60 10 84l68 350h-88l15 77h277l-15 -77h-89l-68 -351c-4 -23 -9 -48 -9 -72c0 -80 55 -129 150 -129c54 0 102 15 139 45c37 31 62 75 72 131l74 376h-89l15 77h278l-15 -77h-89l-75 -384c-18 -89 -62 -161 -126 -205c-51 -34 -117 -52 -187 -52
c-143 0 -248 76 -248 207zM325 756c16 81 58 127 117 127c69 0 71 -67 111 -67c29 0 42 37 48 64h73c-14 -81 -58 -127 -116 -127c-68 0 -72 67 -111 67c-29 0 -43 -34 -49 -64h-73z" />
    <glyph glyph-name="utilde" unicode="&#x169;" horiz-adv-x="666" 
d="M74 121c0 19 2 41 7 64l47 246h-84l15 75h181l-58 -301c-5 -21 -8 -42 -8 -58c0 -44 19 -71 76 -71c101 0 183 104 201 200l30 155h-84l15 75h181l-70 -358c-2 -11 -3 -22 -3 -31c0 -36 20 -44 45 -44c15 0 24 2 24 2l-15 -75s-22 -2 -46 -2c-68 0 -108 35 -101 111h-2
c-33 -52 -103 -121 -209 -121c-77 0 -142 38 -142 133zM203 580c16 81 58 127 117 127c69 0 71 -67 111 -67c29 0 42 37 48 64h73c-14 -81 -58 -127 -116 -127c-68 0 -72 67 -111 67c-29 0 -43 -34 -49 -64h-73z" />
    <glyph glyph-name="Umacron" unicode="&#x16a;" horiz-adv-x="801" 
d="M106 195c0 29 6 60 10 84l68 350h-88l15 77h277l-15 -77h-89l-68 -351c-4 -23 -9 -48 -9 -72c0 -80 55 -129 150 -129c54 0 102 15 139 45c37 31 62 75 72 131l74 376h-89l15 77h278l-15 -77h-89l-75 -384c-18 -89 -62 -161 -126 -205c-51 -34 -117 -52 -187 -52
c-143 0 -248 76 -248 207zM367 784l13 71h254l-13 -71h-254z" />
    <glyph glyph-name="umacron" unicode="&#x16b;" horiz-adv-x="666" 
d="M74 121c0 19 2 41 7 64l47 246h-84l15 75h181l-58 -301c-5 -21 -8 -42 -8 -58c0 -44 19 -71 76 -71c101 0 183 104 201 200l30 155h-84l15 75h181l-70 -358c-2 -11 -3 -22 -3 -31c0 -36 20 -44 45 -44c15 0 24 2 24 2l-15 -75s-22 -2 -46 -2c-68 0 -108 35 -101 111h-2
c-33 -52 -103 -121 -209 -121c-77 0 -142 38 -142 133zM244 608l13 71h254l-13 -71h-254z" />
    <glyph glyph-name="Ubreve" unicode="&#x16c;" horiz-adv-x="801" 
d="M106 195c0 29 6 60 10 84l68 350h-88l15 77h277l-15 -77h-89l-68 -351c-4 -23 -9 -48 -9 -72c0 -80 55 -129 150 -129c54 0 102 15 139 45c37 31 62 75 72 131l74 376h-89l15 77h278l-15 -77h-89l-75 -384c-18 -89 -62 -161 -126 -205c-51 -34 -117 -52 -187 -52
c-143 0 -248 76 -248 207zM495 751c-73 0 -133 45 -118 117l3 14h73l-2 -13c-8 -42 17 -60 47 -60s64 18 72 61l2 12h74l-3 -14c-15 -82 -79 -117 -148 -117z" />
    <glyph glyph-name="ubreve" unicode="&#x16d;" horiz-adv-x="666" 
d="M74 121c0 19 2 41 7 64l47 246h-84l15 75h181l-58 -301c-5 -21 -8 -42 -8 -58c0 -44 19 -71 76 -71c101 0 183 104 201 200l30 155h-84l15 75h181l-70 -358c-2 -11 -3 -22 -3 -31c0 -36 20 -44 45 -44c15 0 24 2 24 2l-15 -75s-22 -2 -46 -2c-68 0 -108 35 -101 111h-2
c-33 -52 -103 -121 -209 -121c-77 0 -142 38 -142 133zM373 575c-73 0 -133 45 -118 117l3 14h73l-2 -13c-8 -42 17 -60 47 -60s64 18 72 61l2 12h74l-3 -14c-15 -82 -79 -117 -148 -117z" />
    <glyph glyph-name="Uring" unicode="&#x16e;" horiz-adv-x="801" 
d="M490 739c-44 0 -81 25 -81 68c0 55 54 90 101 90c45 0 82 -26 82 -70c0 -53 -53 -88 -102 -88zM493 781c25 0 44 19 44 46c0 17 -11 28 -29 28c-22 0 -44 -19 -44 -47c0 -16 11 -27 29 -27zM106 195c0 29 6 60 10 84l68 350h-88l15 77h277l-15 -77h-89l-68 -351
c-4 -23 -9 -48 -9 -72c0 -80 55 -129 150 -129c54 0 102 15 139 45c37 31 62 75 72 131l74 376h-89l15 77h278l-15 -77h-89l-75 -384c-18 -89 -62 -161 -126 -205c-51 -34 -117 -52 -187 -52c-143 0 -248 76 -248 207z" />
    <glyph glyph-name="uring" unicode="&#x16f;" horiz-adv-x="666" 
d="M368 563c-44 0 -81 25 -81 68c0 55 54 90 101 90c45 0 82 -26 82 -70c0 -53 -53 -88 -102 -88zM371 605c25 0 44 19 44 46c0 17 -11 28 -29 28c-22 0 -44 -19 -44 -47c0 -16 11 -27 29 -27zM74 121c0 19 2 41 7 64l47 246h-84l15 75h181l-58 -301c-5 -21 -8 -42 -8 -58
c0 -44 19 -71 76 -71c101 0 183 104 201 200l30 155h-84l15 75h181l-70 -358c-2 -11 -3 -22 -3 -31c0 -36 20 -44 45 -44c15 0 24 2 24 2l-15 -75s-22 -2 -46 -2c-68 0 -108 35 -101 111h-2c-33 -52 -103 -121 -209 -121c-77 0 -142 38 -142 133z" />
    <glyph glyph-name="Uhungarumlaut" unicode="&#x170;" horiz-adv-x="801" 
d="M106 195c0 29 6 60 10 84l68 350h-88l15 77h277l-15 -77h-89l-68 -351c-4 -23 -9 -48 -9 -72c0 -80 55 -129 150 -129c54 0 102 15 139 45c37 31 62 75 72 131l74 376h-89l15 77h278l-15 -77h-89l-75 -384c-18 -89 -62 -161 -126 -205c-51 -34 -117 -52 -187 -52
c-143 0 -248 76 -248 207zM507 755l99 127h108l-121 -127h-86zM351 755l93 127h95l-96 -127h-92z" />
    <glyph glyph-name="uhungarumlaut" unicode="&#x171;" horiz-adv-x="666" 
d="M74 121c0 19 2 41 7 64l47 246h-84l15 75h181l-58 -301c-5 -21 -8 -42 -8 -58c0 -44 19 -71 76 -71c101 0 183 104 201 200l30 155h-84l15 75h181l-70 -358c-2 -11 -3 -22 -3 -31c0 -36 20 -44 45 -44c15 0 24 2 24 2l-15 -75s-22 -2 -46 -2c-68 0 -108 35 -101 111h-2
c-33 -52 -103 -121 -209 -121c-77 0 -142 38 -142 133zM385 579l99 127h108l-121 -127h-86zM229 579l93 127h95l-96 -127h-92z" />
    <glyph glyph-name="Uogonek" unicode="&#x172;" horiz-adv-x="801" 
d="M106 199c0 18 2 37 6 57l72 373h-88l15 77h277l-15 -77h-89l-73 -378c-3 -14 -4 -28 -4 -42c0 -85 55 -132 149 -132c109 0 190 64 212 176l74 376h-89l15 77h278l-15 -77h-89l-76 -389c-23 -118 -99 -198 -203 -238c-28 -11 -97 -62 -97 -114c0 -32 38 -39 55 -40
l-31 -68c-35 4 -105 24 -105 86c0 50 34 91 75 123c-126 -3 -254 55 -254 210z" />
    <glyph glyph-name="uogonek" unicode="&#x173;" horiz-adv-x="666" 
d="M386 -134c0 58 45 104 94 137c-42 12 -59 51 -53 106h-2c-33 -52 -103 -121 -209 -121c-77 0 -142 38 -142 133c0 19 2 41 7 64l47 246h-84l15 75h181l-58 -301c-5 -21 -8 -42 -8 -58c0 -44 19 -71 76 -71c101 0 183 104 201 200l30 155h-84l15 75h181l-70 -358
c-2 -11 -3 -22 -3 -31c0 -36 20 -44 45 -44c15 0 24 2 24 2l-15 -75s-5 0 -11 -1c-26 -6 -97 -67 -97 -111c0 -32 39 -39 55 -40l-31 -68c-35 4 -104 24 -104 86z" />
    <glyph glyph-name="Wcircumflex" unicode="&#x174;" horiz-adv-x="1008" 
d="M447 755l113 127h105l63 -127h-84l-36 80h-2l-68 -80h-91zM183 0l-35 629h-68l15 77h248l-15 -77h-84l20 -463c0 -25 -3 -53 -3 -53h4s8 28 20 53l253 540h85l42 -540c1 -25 0 -53 0 -53h3s8 28 18 53l200 463h-84l15 77h255l-15 -77h-68l-281 -629h-114l-40 501
c-2 25 2 56 2 56h-4s-8 -31 -20 -56l-235 -501h-114z" />
    <glyph glyph-name="wcircumflex" unicode="&#x175;" horiz-adv-x="860" 
d="M338 579l113 127h105l63 -127h-84l-36 80h-2l-68 -80h-91zM147 0l-47 431h-63l15 75h223l-14 -75h-69l29 -294c2 -21 -1 -47 -1 -47h3s7 26 16 47l184 368h89l38 -368c2 -21 -1 -47 -1 -47h3s7 26 17 47l144 294h-68l14 75h230l-15 -75h-63l-214 -431h-109l-40 338
c-2 23 0 48 0 48h-3s-7 -25 -18 -48l-172 -338h-108z" />
    <glyph glyph-name="Ycircumflex" unicode="&#x176;" horiz-adv-x="652" 
d="M129 0l15 78h89l43 221l-134 330h-67l15 77h239l-15 -77h-74l87 -222c6 -15 9 -30 9 -30h2s9 15 20 30l175 222h-73l15 77h245l-15 -77h-67l-262 -330l-43 -221h88l-15 -78h-277zM271 755l113 127h105l63 -127h-84l-36 80h-2l-68 -80h-91z" />
    <glyph glyph-name="ycircumflex" unicode="&#x177;" horiz-adv-x="592" 
d="M-15 -107c0 0 24 -22 67 -22s82 30 107 70l30 50l-91 440h-64l15 75h227l-14 -75h-67l54 -301c4 -22 1 -44 1 -44h3s8 22 21 44l170 301h-65l15 75h227l-15 -75h-62l-301 -511c-53 -91 -120 -130 -193 -130c-72 0 -110 33 -110 33zM207 579l113 127h105l63 -127h-84
l-36 80h-2l-68 -80h-91z" />
    <glyph glyph-name="Ydieresis" unicode="&#x178;" horiz-adv-x="652" 
d="M129 0l15 78h89l43 221l-134 330h-67l15 77h239l-15 -77h-74l87 -222c6 -15 9 -30 9 -30h2s9 15 20 30l175 222h-73l15 77h245l-15 -77h-67l-262 -330l-43 -221h88l-15 -78h-277zM477 781l21 101h86l-21 -101h-86zM277 781l20 101h87l-21 -101h-86z" />
    <glyph glyph-name="Zacute" unicode="&#x179;" horiz-adv-x="635" 
d="M337 755l128 127h116l-148 -127h-96zM-1 0l13 66l459 525c18 20 36 34 36 34v2s-20 -3 -40 -3h-256l-21 -110h-88l38 192h509l-13 -65l-461 -526c-18 -20 -36 -34 -36 -34v-2s20 3 40 3h271l23 114h87l-39 -196h-522z" />
    <glyph glyph-name="zacute" unicode="&#x17a;" horiz-adv-x="530" 
d="M251 579l128 127h116l-148 -127h-96zM-11 0l12 64l331 328c20 21 42 39 42 39v2s-20 -2 -48 -2h-158l-15 -81h-85l31 156h413l-13 -64l-330 -328c-21 -21 -43 -40 -43 -39v-2s21 2 49 2h179l16 81h84l-30 -156h-435z" />
    <glyph glyph-name="Zdotaccent" unicode="&#x17b;" horiz-adv-x="635" 
d="M-1 0l13 66l459 525c18 20 36 34 36 34v2s-20 -3 -40 -3h-256l-21 -110h-88l38 192h509l-13 -65l-461 -526c-18 -20 -36 -34 -36 -34v-2s20 3 40 3h271l23 114h87l-39 -196h-522zM360 784l19 98h92l-20 -98h-91z" />
    <glyph glyph-name="zdotaccent" unicode="&#x17c;" horiz-adv-x="530" 
d="M-11 0l12 64l331 328c20 21 42 39 42 39v2s-20 -2 -48 -2h-158l-15 -81h-85l31 156h413l-13 -64l-330 -328c-21 -21 -43 -40 -43 -39v-2s21 2 49 2h179l16 81h84l-30 -156h-435zM274 608l19 98h92l-20 -98h-91z" />
    <glyph glyph-name="Zcaron" unicode="&#x17d;" horiz-adv-x="635" 
d="M350 755l-62 127h83l36 -81h2l69 81h91l-113 -127h-106zM-1 0l13 66l459 525c18 20 36 34 36 34v2s-20 -3 -40 -3h-256l-21 -110h-88l38 192h509l-13 -65l-461 -526c-18 -20 -36 -34 -36 -34v-2s20 3 40 3h271l23 114h87l-39 -196h-522z" />
    <glyph glyph-name="zcaron" unicode="&#x17e;" horiz-adv-x="530" 
d="M264 579l-62 127h83l36 -81h2l69 81h91l-113 -127h-106zM-11 0l12 64l331 328c20 21 42 39 42 39v2s-20 -2 -48 -2h-158l-15 -81h-85l31 156h413l-13 -64l-330 -328c-21 -21 -43 -40 -43 -39v-2s21 2 49 2h179l16 81h84l-30 -156h-435z" />
    <glyph glyph-name="longs" unicode="&#x17f;" horiz-adv-x="298" 
d="M57 0l84 432h-85l15 74h84l5 22c33 166 161 185 220 185c26 0 44 -3 44 -3l-17 -79s-11 2 -29 2c-34 0 -102 -7 -121 -103l-103 -530h-97z" />
    <glyph glyph-name="florin" unicode="&#x192;" horiz-adv-x="516" 
d="M-73 -22c0 0 32 -5 63 -5c36 0 108 13 136 111l75 266h-82l15 78h89l32 111c45 160 166 179 229 179c43 0 95 -8 95 -8l-17 -83s-48 7 -78 7c-38 0 -107 -13 -135 -111l-28 -95h117l-15 -78h-124l-80 -284c-45 -159 -168 -177 -229 -177c-41 0 -80 7 -80 7z" />
    <glyph glyph-name="Scommaaccent" unicode="&#x218;" horiz-adv-x="588" 
d="M180 -58h85c1 -5 2 -14 2 -20c0 -65 -43 -119 -103 -147l-35 36c35 27 54 59 54 99c0 10 -1 21 -3 32zM29 145l14 70h92l-11 -55c-12 -62 64 -83 132 -83c93 0 159 53 159 129c0 148 -309 92 -309 303c0 137 128 209 269 209c83 0 213 -33 194 -124l-16 -76h-92l9 49
c10 48 -58 63 -108 63c-85 0 -153 -44 -153 -115c0 -141 309 -84 309 -303c0 -140 -127 -224 -275 -224c-91 0 -236 38 -214 157z" />
    <glyph glyph-name="scommaaccent" unicode="&#x219;" horiz-adv-x="486" 
d="M131 -58h85c1 -5 2 -14 2 -20c0 -65 -43 -119 -103 -147l-35 36c35 27 54 59 54 99c0 10 -1 21 -3 32zM5 113l9 50h85l-6 -33c-11 -55 69 -63 109 -63c64 0 115 28 115 74c0 96 -243 68 -243 222c0 103 107 155 215 155c84 0 172 -34 157 -108l-11 -55h-85l7 36
c8 40 -47 49 -82 49c-54 0 -105 -24 -105 -70c0 -97 243 -65 243 -216c0 -98 -90 -166 -225 -166c-86 0 -201 34 -183 125z" />
    <glyph glyph-name="uni021A" unicode="&#x21a;" horiz-adv-x="666" 
d="M218 -58h85c1 -5 2 -14 2 -20c0 -65 -43 -119 -103 -147l-35 36c35 27 54 59 54 99c0 10 -1 21 -3 32zM135 0l15 78h88l107 546h-166l-21 -110h-88l38 192h606l-38 -192h-87l21 110h-165l-107 -546h89l-15 -78h-277z" />
    <glyph glyph-name="uni021B" unicode="&#x21b;" horiz-adv-x="357" 
d="M105 -58h85c1 -5 2 -14 2 -20c0 -65 -43 -119 -103 -147l-35 36c35 27 54 59 54 99c0 10 -1 21 -3 32zM75 144c0 15 2 32 6 51l46 236h-85l15 75h87l27 139h94l-27 -139h122l-15 -75h-122l-45 -236c-3 -14 -4 -29 -4 -39c0 -69 46 -80 84 -80c16 0 28 2 28 2l-16 -80
s-16 -2 -32 -2c-78 0 -163 28 -163 148z" />
    <glyph glyph-name="ogonek" unicode="&#x2db;" horiz-adv-x="499" 
d="M102 -134c0 69 65 121 123 154h64l-3 -20c-21 0 -103 -64 -103 -112c0 -32 38 -39 54 -40l-31 -68c-34 4 -104 24 -104 86z" />
    <glyph glyph-name="uni1E9E" unicode="&#x1e9e;" horiz-adv-x="724" 
d="M-19 0l15 78h88l82 420c24 122 124 208 252 208h285l-13 -67l-170 -201c-10 -12 -21 -23 -21 -23v-2c83 -18 161 -74 161 -170c0 -132 -118 -251 -305 -251c-46 0 -83 7 -99 10l16 87c11 -3 44 -9 79 -9c138 0 206 74 206 157c0 62 -54 104 -176 110l12 59l156 189
c13 15 26 26 26 26v2s-15 -3 -30 -3h-139c-68 0 -127 -53 -140 -121l-97 -499h-188z" />
    <glyph glyph-name="endash" unicode="&#x2013;" horiz-adv-x="715" 
d="M84 246l14 78h527l-15 -78h-526z" />
    <glyph glyph-name="emdash" unicode="&#x2014;" horiz-adv-x="915" 
d="M84 246l14 78h727l-15 -78h-726z" />
    <glyph glyph-name="quoteleft" unicode="&#x2018;" horiz-adv-x="237" 
d="M87 499l113 218h75l-89 -218h-99z" />
    <glyph glyph-name="quoteright" unicode="&#x2019;" horiz-adv-x="232" 
d="M91 499l89 218h98l-112 -218h-75z" />
    <glyph glyph-name="quotesinglbase" unicode="&#x201a;" horiz-adv-x="258" 
d="M-37 -113l89 218h99l-113 -218h-75z" />
    <glyph glyph-name="quotedblleft" unicode="&#x201c;" horiz-adv-x="384" 
d="M234 499l113 218h75l-89 -218h-99zM87 499l113 218h75l-89 -218h-99z" />
    <glyph glyph-name="quotedblright" unicode="&#x201d;" horiz-adv-x="379" 
d="M238 499l89 218h98l-112 -218h-75zM91 499l89 218h98l-112 -218h-75z" />
    <glyph glyph-name="quotedblbase" unicode="&#x201e;" horiz-adv-x="405" 
d="M199 105h99l-113 -218h-75zM52 105h99l-113 -218h-75z" />
    <glyph glyph-name="dagger" unicode="&#x2020;" horiz-adv-x="425" 
d="M96 -50l93 479h-120l15 77h120l39 200h93l-38 -200h124l-15 -77h-124l-93 -479h-94z" />
    <glyph glyph-name="daggerdbl" unicode="&#x2021;" horiz-adv-x="436" 
d="M102 -50l42 221h-120l14 78h121l36 180h-121l15 77h121l38 200h94l-39 -200h124l-15 -77h-124l-35 -180h124l-15 -78h-124l-43 -221h-93z" />
    <glyph glyph-name="bullet" unicode="&#x2022;" horiz-adv-x="419" 
d="M207 136c-86 0 -155 69 -155 155s69 155 155 155s155 -69 155 -155s-69 -155 -155 -155z" />
    <glyph glyph-name="ellipsis" unicode="&#x2026;" horiz-adv-x="774" 
d="M540 0l20 105h102l-21 -105h-101zM280 0l21 105h101l-20 -105h-102zM21 0l20 105h102l-21 -105h-101z" />
    <glyph glyph-name="perthousand" unicode="&#x2030;" horiz-adv-x="1120" 
d="M239 422c-82 0 -134 53 -134 131c0 84 82 165 175 165c81 0 134 -55 134 -132c0 -86 -87 -164 -175 -164zM19 0l667 706h100l-667 -706h-100zM247 496c45 0 88 40 88 88c0 35 -25 61 -63 61c-45 0 -89 -42 -89 -90c0 -34 25 -59 64 -59zM746 119c0 84 82 165 175 165
c81 0 134 -55 134 -132c0 -86 -87 -164 -175 -164c-81 0 -134 53 -134 131zM390 119c0 84 83 165 175 165c81 0 134 -55 134 -132c0 -86 -87 -164 -174 -164c-82 0 -135 53 -135 131zM825 121c0 -34 25 -59 63 -59c46 0 88 40 88 88c0 35 -25 61 -63 61
c-44 0 -88 -43 -88 -90zM469 121c0 -34 25 -59 63 -59c46 0 88 40 88 88c0 35 -24 61 -62 61c-45 0 -89 -43 -89 -90z" />
    <glyph glyph-name="guilsinglleft" unicode="&#x2039;" horiz-adv-x="354" 
d="M168 77l-128 207l191 204h102l-200 -210l127 -201h-92z" />
    <glyph glyph-name="guilsinglright" unicode="&#x203a;" horiz-adv-x="357" 
d="M17 77l200 210l-127 201h92l128 -207l-191 -204h-102z" />
    <glyph glyph-name="Euro" unicode="&#x20ac;" horiz-adv-x="604" 
d="M37 250l12 61h55c2 29 8 64 14 92h-53l12 62h62c67 148 212 253 375 253c65 0 114 -16 114 -16l-39 -82s-37 10 -77 10c-112 0 -211 -66 -264 -165h282l-25 -62h-284c-7 -28 -13 -62 -15 -92h265l-25 -61h-234c10 -98 75 -173 197 -173c50 0 93 14 93 14l3 -88
s-44 -15 -104 -15c-165 0 -283 105 -295 262h-69z" />
    <glyph glyph-name="trademark" unicode="&#x2122;" horiz-adv-x="1035" 
d="M515 266l35 440h70l104 -230c8 -18 13 -42 13 -42h2s6 24 14 42l104 230h70l34 -440h-76l-20 263c-1 15 1 30 1 30h-2l-95 -212h-61l-95 212h-2s2 -15 1 -30l-21 -263h-76zM256 266v373h-153v67h381v-67h-153v-373h-75z" />
    <glyph glyph-name="minus" unicode="&#x2212;" horiz-adv-x="613" 
d="M44 246v78h517v-78h-517z" />
    <glyph glyph-name="infinity" unicode="&#x221e;" horiz-adv-x="499" 
d="M260 167c-100 0 -182 82 -182 182c0 101 82 181 182 181c101 0 181 -80 181 -181c0 -100 -80 -182 -181 -182z" />
    <glyph glyph-name="approxequal" unicode="&#x2248;" horiz-adv-x="613" 
d="M94 321l-41 59c34 36 90 73 151 73c94 0 127 -70 198 -70c41 0 83 26 110 55l41 -59c-34 -35 -90 -72 -151 -72c-94 0 -127 70 -198 70c-42 0 -83 -28 -110 -56zM94 133l-41 58c34 36 90 73 151 73c94 0 127 -70 198 -70c41 0 83 26 110 55l41 -59
c-34 -35 -90 -72 -151 -72c-94 0 -127 70 -198 70c-42 0 -83 -27 -110 -55z" />
    <glyph glyph-name="notequal" unicode="&#x2260;" horiz-adv-x="613" 
d="M119 73l55 78h-110v78h163l79 111h-242v78h295l81 115l51 -35l-57 -80h107v-78h-159l-80 -111h239v-78h-291l-79 -112z" />
    <glyph glyph-name="lessequal" unicode="&#x2264;" horiz-adv-x="613" 
d="M48 252v66l467 208v-89l-358 -151v-2l358 -151v-89zM50 -95h465v-78h-465v78z" />
    <glyph glyph-name="greaterequal" unicode="&#x2265;" horiz-adv-x="613" 
d="M97 44v89l357 151v2l-357 151v89l466 -208v-66zM97 -95h465v-78h-465v78z" />
    <glyph glyph-name="apple" horiz-adv-x="1130" 
d="M109 -5v152l-126 72v278l126 71v151l265 142l134 -71l132 71l265 -142v-151l124 -71v-278l-124 -72v-152l-265 -141l-132 71l-134 -71zM149 30l238 -126l121 66l118 -66l238 126v139l114 64v249l-114 66v136l-238 126l-118 -64l-121 64l-238 -126v-136l-114 -66v-249
l114 -64v-139zM183 64v121l-99 60v225l99 58v123l215 114l110 -59l107 59l214 -114v-123l100 -58v-225l-100 -60v-121l-214 -114l-107 58l-110 -58zM379 91h79v204h206v69h-206v165h151c20 0 24 -8 24 -26v-33h73v74c0 37 -13 53 -54 53h-331v-68h58v-438z" />
    <glyph glyph-name="zero.tnum" 
d="M33 221c0 181 79 497 321 497c155 0 208 -95 208 -233c0 -181 -79 -497 -321 -497c-152 0 -208 95 -208 233zM134 223c0 -87 29 -146 109 -146c159 0 217 262 217 404c0 89 -28 148 -109 148c-152 0 -217 -250 -217 -406z" />
    <glyph glyph-name="one.tnum" 
d="M43 0l15 82h156l89 452c4 22 11 47 11 47h-2s-14 -17 -36 -35l-85 -71l-50 66l203 165h89l-122 -624h154l-17 -82h-405z" />
    <glyph glyph-name="two.tnum" 
d="M-3 0c5 308 442 335 442 532c0 60 -41 98 -107 98c-95 0 -165 -93 -165 -93l-66 53s94 128 240 128c121 0 203 -69 203 -176c0 -238 -394 -297 -428 -460h280l19 94h87l-35 -176h-470z" />
    <glyph glyph-name="three.tnum" 
d="M3 82l58 68s62 -73 159 -73c94 0 177 69 177 158c0 71 -58 107 -134 107c-20 0 -44 -2 -44 -2l-13 52l210 209c13 13 30 24 30 24v2s-22 -3 -36 -3h-190l-18 -90h-87l34 172h431l-14 -69l-230 -226c67 -9 165 -49 165 -168c0 -132 -117 -255 -281 -255
c-141 0 -217 94 -217 94z" />
    <glyph glyph-name="four.tnum" 
d="M-8 189l12 62l411 455h117l-86 -437h96l-15 -80h-96l-37 -189h-98l37 189h-341zM120 269h229l54 277c4 24 15 54 15 54h-3s-16 -25 -35 -47l-260 -282v-2z" />
    <glyph glyph-name="five.tnum" 
d="M9 80l58 65s55 -68 150 -68c97 0 188 73 188 169c0 75 -55 120 -136 120c-72 0 -128 -34 -128 -34l-56 22l105 352h364l-34 -172h-87l18 90h-191l-48 -156c-7 -24 -14 -40 -14 -40h2s40 20 97 20c122 0 211 -79 211 -200c0 -144 -136 -260 -294 -260
c-141 0 -205 92 -205 92z" />
    <glyph glyph-name="six.tnum" 
d="M39 245c0 181 140 473 397 473c87 0 140 -30 140 -30l-42 -81s-41 23 -100 23c-133 0 -225 -121 -263 -240h2c37 41 102 67 162 67c122 0 194 -81 194 -191c0 -136 -102 -278 -265 -278c-135 0 -225 99 -225 257zM140 234c0 -78 48 -157 129 -157c91 0 159 84 159 183
c0 67 -41 114 -122 114c-78 0 -166 -57 -166 -140z" />
    <glyph glyph-name="seven.tnum" 
d="M53 0l408 593c15 21 27 32 27 32v2s-18 -3 -41 -3h-243l-18 -90h-87l34 172h484l-13 -68l-443 -638h-108z" />
    <glyph glyph-name="eight.tnum" 
d="M18 174c0 119 116 194 158 220c-39 29 -65 66 -65 119c0 100 92 205 247 205c126 0 203 -63 203 -161c0 -107 -104 -195 -126 -214c45 -30 78 -71 78 -130c0 -121 -118 -225 -274 -225c-131 0 -221 74 -221 186zM366 380c16 13 96 84 96 165c0 54 -41 87 -107 87
c-84 0 -145 -53 -145 -118c0 -69 82 -96 156 -134zM121 185c0 -69 53 -110 124 -110c79 0 165 51 165 135c0 74 -94 100 -170 141c-27 -17 -119 -76 -119 -166z" />
    <glyph glyph-name="nine.tnum" 
d="M21 19l41 80s41 -22 98 -22c133 0 226 121 264 240h-2c-38 -41 -102 -66 -163 -66c-122 0 -194 81 -194 190c0 135 102 277 265 277c136 0 226 -98 226 -257c0 -180 -141 -473 -398 -473c-85 0 -137 31 -137 31zM287 334c77 0 168 57 168 138c0 78 -48 158 -128 158
c-92 0 -161 -84 -161 -184c0 -66 41 -112 121 -112z" />
    <glyph glyph-name="hyphen.case" horiz-adv-x="468" 
d="M87 305l16 86h292l-16 -86h-292z" />
    <glyph glyph-name="parenleft.case" horiz-adv-x="321" 
d="M122 -65c-31 78 -51 170 -51 268c0 211 67 398 206 562h89c-137 -170 -209 -359 -209 -564c0 -92 16 -181 47 -266h-82z" />
    <glyph glyph-name="parenright.case" horiz-adv-x="320" 
d="M-24 -65c136 171 208 360 208 564c0 92 -15 181 -47 266h82c31 -77 51 -169 51 -268c0 -210 -67 -397 -206 -562h-88z" />
    <glyph glyph-name="bracketleft.case" horiz-adv-x="316" 
d="M28 -65l162 830h165l-14 -73h-81l-132 -683h81l-15 -74h-166z" />
    <glyph glyph-name="bracketright.case" horiz-adv-x="317" 
d="M-3 9h80l132 683h-81l15 73h166l-162 -830h-164z" />
    <glyph glyph-name="braceleft.case" horiz-adv-x="342" 
d="M80 63c0 15 2 32 5 51l17 89c2 12 3 21 3 30c0 74 -66 80 -66 80l17 86s86 7 106 110l18 91c31 157 143 172 217 167l-14 -75c-30 4 -102 -5 -121 -105l-21 -109c-20 -100 -106 -122 -106 -122v-2s59 -24 59 -102c0 -9 -1 -19 -3 -30l-21 -108c-3 -13 -4 -25 -4 -35
c0 -69 57 -72 84 -70l-14 -75s-10 -1 -24 -1c-34 0 -132 14 -132 130z" />
    <glyph glyph-name="braceright.case" horiz-adv-x="342" 
d="M-20 8c31 -4 102 6 120 105l24 119c19 103 106 124 106 124v2s-59 24 -59 100c0 10 1 19 3 30l19 99c2 13 4 25 4 35c0 68 -58 72 -85 70l15 74c53 8 156 -13 156 -128c0 -15 -2 -33 -6 -51l-15 -80c-2 -11 -3 -21 -3 -29c0 -75 67 -80 67 -80l-17 -86s-86 -7 -106 -111
l-20 -100c-31 -158 -139 -169 -195 -169c-12 0 -23 2 -23 2z" />
    <glyph glyph-name="at.case" horiz-adv-x="772" 
d="M48 293c0 229 205 429 448 429c152 0 219 -77 219 -171c0 -16 -2 -31 -5 -46l-52 -270h72l-15 -73h-261c-117 0 -185 74 -185 163c0 110 99 214 251 214h104s1 10 1 18c0 46 -51 85 -139 85c-185 0 -340 -172 -340 -349c0 -133 87 -230 234 -230l-15 -78
c-185 0 -317 124 -317 308zM368 330c0 -55 36 -95 96 -95h101l46 237h-99c-78 0 -144 -70 -144 -142z" />
    <glyph glyph-name="guillemotleft.case" horiz-adv-x="564" 
d="M378 137l-128 207l207 204h103l-217 -210l127 -201h-92zM179 137l-128 207l191 204h102l-200 -210l127 -201h-92z" />
    <glyph glyph-name="guillemotright.case" horiz-adv-x="566" 
d="M238 137l200 210l-128 201h92l129 -207l-191 -204h-102zM21 137l218 210l-128 201h92l129 -207l-207 -204h-104z" />
    <glyph glyph-name="guilsinglleft.case" horiz-adv-x="355" 
d="M179 137l-128 207l191 204h102l-200 -210l127 -201h-92z" />
    <glyph glyph-name="guilsinglright.case" horiz-adv-x="358" 
d="M30 137l200 210l-128 201h92l129 -207l-192 -204h-101z" />
    <glyph glyph-name="endash.case" horiz-adv-x="708" 
d="M90 306l15 78h526l-14 -78h-527z" />
    <glyph glyph-name="emdash.case" horiz-adv-x="908" 
d="M90 306l15 78h726l-14 -78h-727z" />
    <glyph glyph-name="periodcentered.case" horiz-adv-x="274" 
d="M84 293l20 106h101l-20 -106h-101z" />
    <glyph glyph-name="questiondown.case" horiz-adv-x="433" 
d="M265 608l20 98h101l-20 -98h-101zM6 148c0 177 212 206 236 325l8 39h95l-9 -45c-32 -161 -227 -185 -227 -307c0 -47 37 -82 96 -82c66 0 122 43 122 43l43 -75s-79 -58 -178 -58c-107 0 -186 61 -186 160z" />
    <glyph glyph-name="exclamdown.case" horiz-adv-x="303" 
d="M161 608l19 98h101l-20 -98h-100zM43 0l107 512h87l-93 -512h-101z" />
    <glyph glyph-name="bullet.case" horiz-adv-x="416" 
d="M216 198c-85 0 -154 70 -154 155c0 86 69 155 154 155c86 0 155 -69 155 -155c0 -85 -69 -155 -155 -155z" />
    <glyph glyph-name="zero.p_osf" horiz-adv-x="602" 
d="M48 205c0 160 105 353 289 353c147 0 207 -100 207 -219c0 -160 -104 -351 -289 -351c-149 0 -207 99 -207 217zM147 208c0 -75 33 -136 110 -136c119 0 188 149 188 264c0 75 -32 138 -110 138c-120 0 -188 -152 -188 -266z" />
    <glyph glyph-name="one.p_osf" horiz-adv-x="467" 
d="M4 0l16 79h152l59 305c5 27 12 59 12 59h-2s-18 -15 -44 -29l-99 -53l-33 72l206 113h86l-90 -467h137l-15 -79h-385z" />
    <glyph glyph-name="two.p_osf" horiz-adv-x="555" 
d="M10 0l13 67c212 124 369 229 369 330c0 54 -46 78 -99 78c-84 0 -165 -77 -165 -77l-42 67s94 93 220 93c117 0 186 -60 186 -150c0 -130 -129 -225 -321 -330v-2s21 3 60 3h227l-16 -79h-432z" />
    <glyph glyph-name="three.p_osf" horiz-adv-x="522" 
d="M-38 -39l57 63s49 -68 148 -68c84 0 169 60 169 148c0 59 -49 98 -139 98c-19 0 -40 -2 -40 -2l-11 51l197 191c18 18 37 30 37 30v2s-22 -3 -51 -3h-159l-16 -84h-83l31 159h407l-12 -63l-223 -212c65 -9 163 -48 163 -162c0 -129 -120 -237 -271 -237
c-142 0 -204 89 -204 89z" />
    <glyph glyph-name="four.p_osf" horiz-adv-x="585" 
d="M-23 36l11 59l397 451h116l-84 -433h102l-16 -77h-101l-29 -152h-95l29 152h-330zM102 113h220l52 264c5 29 17 68 17 68h-3s-22 -34 -45 -60l-241 -271v-1z" />
    <glyph glyph-name="five.p_osf" horiz-adv-x="521" 
d="M-35 -37l55 65s54 -65 143 -65c84 0 182 53 182 157c0 71 -59 109 -132 109c-66 0 -123 -31 -123 -31l-52 20l99 328h351l-31 -159h-85l16 84h-181l-45 -146c-7 -20 -14 -34 -14 -34h2s40 16 94 16c111 0 200 -64 200 -180c0 -152 -139 -249 -281 -249
c-131 0 -198 85 -198 85z" />
    <glyph glyph-name="six.p_osf" horiz-adv-x="593" 
d="M47 228c0 174 135 446 388 446c85 0 140 -30 140 -30l-44 -74s-40 20 -96 20c-132 0 -223 -114 -260 -227h2c39 41 103 64 164 64c119 0 194 -75 194 -181c0 -127 -105 -258 -265 -258c-134 0 -223 90 -223 240zM146 217c0 -70 45 -145 128 -145c91 0 162 73 162 168
c0 64 -43 107 -124 107c-84 0 -166 -56 -166 -130z" />
    <glyph glyph-name="seven.p_osf" horiz-adv-x="524" 
d="M6 -116l388 553c16 23 29 35 29 35v2s-19 -3 -42 -3h-226l-16 -84h-84l31 159h461l-12 -64l-421 -598h-108z" />
    <glyph glyph-name="eight.p_osf" horiz-adv-x="587" 
d="M28 166c0 112 122 186 150 204c-35 26 -61 62 -61 109c0 95 89 195 237 195c123 0 201 -57 201 -151c0 -96 -101 -187 -118 -203c43 -27 75 -65 75 -119c0 -110 -116 -213 -265 -213c-131 0 -219 71 -219 178zM368 358c16 13 90 74 90 153c0 50 -41 80 -107 80
c-81 0 -138 -50 -138 -108c0 -63 81 -90 155 -125zM127 174c0 -63 54 -102 122 -102c76 0 163 51 163 127c0 63 -89 91 -168 129c-28 -16 -117 -70 -117 -154z" />
    <glyph glyph-name="nine.p_osf" horiz-adv-x="592" 
d="M47 -25c0 0 40 -19 95 -19c131 0 222 114 259 227h-2c-39 -41 -103 -64 -164 -64c-117 0 -192 75 -192 180c0 128 105 259 264 259c134 0 222 -90 222 -240c0 -174 -134 -446 -387 -446c-84 0 -137 30 -137 30zM263 198c84 0 168 56 168 131c0 70 -45 145 -129 145
c-89 0 -160 -73 -160 -168c0 -65 43 -108 121 -108z" />
    <glyph glyph-name="zero.t_osf" 
d="M34 205c0 160 105 353 289 353c147 0 207 -100 207 -219c0 -160 -104 -351 -289 -351c-149 0 -207 99 -207 217zM133 208c0 -75 33 -136 110 -136c119 0 188 149 188 264c0 75 -32 138 -110 138c-120 0 -188 -152 -188 -266z" />
    <glyph glyph-name="one.t_osf" 
d="M57 0l16 79h152l59 305c5 27 12 59 12 59h-2s-18 -15 -44 -29l-99 -53l-33 72l206 113h86l-90 -467h137l-15 -79h-385z" />
    <glyph glyph-name="two.t_osf" 
d="M19 0l13 67c212 124 369 229 369 330c0 54 -46 78 -99 78c-84 0 -165 -77 -165 -77l-42 67s94 93 220 93c117 0 186 -60 186 -150c0 -130 -129 -225 -321 -330v-2s21 3 60 3h227l-16 -79h-432z" />
    <glyph glyph-name="three.t_osf" 
d="M-11 -38l57 63s49 -68 148 -68c84 0 168 60 168 148c0 59 -48 98 -138 98c-19 0 -40 -2 -40 -2l-11 51l196 190c18 18 37 30 37 30v2s-22 -3 -51 -3h-158l-16 -84h-83l31 159h406l-12 -63l-222 -211c64 -9 162 -48 162 -162c0 -129 -120 -237 -270 -237
c-142 0 -204 89 -204 89z" />
    <glyph glyph-name="four.t_osf" 
d="M-29 36l11 59l397 451h116l-84 -433h102l-16 -77h-101l-29 -152h-95l29 152h-330zM96 113h220l52 264c5 29 17 68 17 68h-3s-22 -34 -45 -60l-241 -271v-1z" />
    <glyph glyph-name="five.t_osf" 
d="M-9 -37l55 65s54 -65 143 -65c84 0 182 53 182 157c0 71 -59 109 -132 109c-66 0 -123 -31 -123 -31l-52 20l99 328h351l-31 -159h-85l16 84h-181l-45 -146c-7 -20 -14 -34 -14 -34h2s40 16 94 16c111 0 200 -64 200 -180c0 -152 -139 -249 -281 -249
c-131 0 -198 85 -198 85z" />
    <glyph glyph-name="six.t_osf" 
d="M37 228c0 174 135 446 388 446c85 0 140 -30 140 -30l-44 -74s-40 20 -96 20c-132 0 -223 -114 -260 -227h2c39 41 103 64 164 64c119 0 194 -75 194 -181c0 -127 -105 -258 -265 -258c-134 0 -223 90 -223 240zM136 217c0 -70 45 -145 128 -145c91 0 162 73 162 168
c0 64 -43 107 -124 107c-84 0 -166 -56 -166 -130z" />
    <glyph glyph-name="seven.t_osf" 
d="M31 -116l388 553c16 23 29 35 29 35v2s-19 -3 -42 -3h-226l-16 -84h-84l31 159h461l-12 -64l-421 -598h-108z" />
    <glyph glyph-name="eight.t_osf" 
d="M21 166c0 112 122 186 150 204c-35 26 -61 62 -61 109c0 95 89 195 237 195c123 0 201 -57 201 -151c0 -96 -101 -187 -118 -203c43 -27 75 -65 75 -119c0 -110 -116 -213 -265 -213c-131 0 -219 71 -219 178zM361 358c16 13 90 74 90 153c0 50 -41 80 -107 80
c-81 0 -138 -50 -138 -108c0 -63 81 -90 155 -125zM120 174c0 -63 54 -102 122 -102c76 0 163 51 163 127c0 63 -89 91 -168 129c-28 -16 -117 -70 -117 -154z" />
    <glyph glyph-name="nine.t_osf" 
d="M38 -25c0 0 40 -19 95 -19c131 0 222 114 259 227h-2c-39 -41 -103 -64 -164 -64c-117 0 -192 75 -192 180c0 128 105 259 264 259c134 0 222 -90 222 -240c0 -174 -134 -446 -387 -446c-84 0 -137 30 -137 30zM254 198c84 0 168 56 168 131c0 70 -45 145 -129 145
c-89 0 -160 -73 -160 -168c0 -65 43 -108 121 -108z" />
    <glyph glyph-name="dollar.osf" horiz-adv-x="495" 
d="M-8 91l53 63s61 -74 161 -68c59 0 123 28 123 80c0 95 -252 88 -252 245c0 90 82 158 199 169l18 95h71l-19 -96c90 -12 138 -62 138 -62l-52 -69s-47 47 -132 47c-55 0 -122 -23 -122 -81c0 -101 252 -83 252 -246c0 -90 -92 -162 -205 -168l-18 -102h-71l20 105
c-111 18 -164 88 -164 88z" />
    <glyph glyph-name="cent.osf" horiz-adv-x="532" 
d="M180 -27l17 85c-104 20 -168 97 -168 203c0 146 119 263 263 282l16 83h73l-17 -83c102 -12 152 -78 152 -78l-54 -65s-41 58 -131 58c-110 0 -203 -86 -203 -192c0 -74 54 -127 141 -127c88 0 153 62 153 62l33 -75s-74 -69 -186 -74l-16 -79h-73z" />
    <glyph glyph-name="sterling.osf" horiz-adv-x="587" 
d="M-13 0l16 83h79l31 158h-63l13 68h63l17 88c25 121 128 193 251 193c108 0 169 -58 169 -58l-54 -66s-45 37 -121 37c-77 0 -135 -49 -148 -109l-17 -85h217l-13 -68h-217l-30 -158h325l-16 -83h-502z" />
    <glyph glyph-name="yen.osf" horiz-adv-x="594" 
d="M50 140l13 64h165l4 22l-24 57h-130l12 64h94l-95 232h109l68 -184c14 -40 27 -90 27 -90h2s31 50 59 90l140 184h115l-184 -232h96l-13 -64h-133l-45 -57l-4 -22h167l-12 -64h-167l-27 -140h-98l27 140h-166z" />
    <glyph glyph-name="florin.osf" horiz-adv-x="572" 
d="M-56 -37c0 0 32 -6 63 -6c36 0 108 13 136 111l66 236h-82l15 78h90l31 113c46 161 164 180 227 180c43 0 95 -9 95 -9l-17 -82s-48 7 -78 7c-38 0 -107 -13 -135 -111l-28 -98h117l-16 -78h-124l-71 -253c-45 -159 -165 -178 -226 -178c-41 0 -80 8 -80 8z" />
    <glyph glyph-name="Euro.osf" horiz-adv-x="572" 
d="M23 192l11 57h66c1 27 6 51 13 77h-62l11 58h70c50 110 162 206 331 206c67 0 111 -16 111 -16l-35 -76s-35 10 -75 10c-108 0 -185 -55 -224 -124h251l-24 -58h-255c-9 -25 -13 -51 -14 -77h243l-23 -57h-210c13 -69 69 -121 175 -121c49 0 89 14 89 14l3 -83
s-43 -14 -95 -14c-170 0 -259 92 -276 204h-81z" />
    <glyph glyph-name="zero.numerator" horiz-adv-x="402" 
d="M205 259c-100 0 -134 59 -134 146c0 114 49 311 200 311c100 0 134 -60 134 -147c0 -114 -51 -310 -200 -310zM206 328c87 0 122 145 122 236c0 49 -15 82 -59 82c-88 0 -122 -146 -122 -238c0 -48 16 -80 59 -80z" />
    <glyph glyph-name="zerosuperior" unicode="&#x2070;" horiz-adv-x="404" 
d="M235 413c-100 0 -134 59 -134 146c0 114 49 311 200 311c100 0 134 -60 134 -147c0 -114 -51 -310 -200 -310zM236 482c87 0 122 145 122 236c0 49 -15 82 -59 82c-88 0 -122 -146 -122 -238c0 -48 16 -80 59 -80z" />
    <glyph glyph-name="one.numerator" horiz-adv-x="341" 
d="M37 269l12 62h103l47 242c3 20 9 36 9 36h-2s-10 -14 -25 -25l-49 -40l-37 50l138 112h67l-73 -375h102l-12 -62h-280z" />
    <glyph glyph-name="two.numerator" horiz-adv-x="379" 
d="M35 269c4 208 271 210 271 325c0 31 -24 53 -59 53c-51 0 -95 -48 -95 -48l-44 49s60 68 144 68c76 0 132 -44 132 -115c0 -155 -231 -170 -260 -270h159l10 51h63l-22 -113h-299z" />
    <glyph glyph-name="three.numerator" horiz-adv-x="376" 
d="M185 259c-101 0 -149 66 -149 66l49 49s34 -46 100 -46c49 0 95 39 95 89c0 38 -37 58 -76 58h-31l-10 36l117 115c12 12 26 20 26 20v3s-14 -3 -30 -3h-98l-10 -53h-63l22 113h278l-9 -48l-135 -130c40 -9 95 -40 95 -110c0 -80 -73 -159 -171 -159z" />
    <glyph glyph-name="four.numerator" horiz-adv-x="394" 
d="M224 269l21 109h-207l9 48l254 280h82l-52 -269h61l-11 -59h-62l-21 -109h-74zM127 437h130l28 146c4 20 13 45 13 45h-3s-13 -22 -29 -39l-139 -150v-2z" />
    <glyph glyph-name="five.numerator" horiz-adv-x="374" 
d="M178 259c-90 0 -144 63 -144 63l46 49s41 -45 98 -45c58 0 104 41 104 94c0 43 -30 72 -79 72c-43 0 -76 -21 -76 -21l-39 15l66 220h238l-22 -113h-62l10 53h-114l-25 -88c-3 -11 -8 -19 -8 -19l2 -1s22 10 55 10c80 0 131 -54 131 -125c0 -84 -77 -164 -181 -164z" />
    <glyph glyph-name="fivesuperior" unicode="&#x2075;" horiz-adv-x="374" 
d="M208 413c-90 0 -144 63 -144 63l46 49s41 -45 98 -45c58 0 104 41 104 94c0 43 -30 72 -79 72c-43 0 -76 -21 -76 -21l-39 15l66 220h238l-22 -113h-62l10 53h-114l-25 -88c-3 -11 -8 -19 -8 -19l2 -1s22 10 55 10c80 0 131 -54 131 -125c0 -84 -77 -164 -181 -164z" />
    <glyph glyph-name="six.numerator" horiz-adv-x="388" 
d="M209 259c-86 0 -142 60 -142 159c0 113 92 298 245 298c59 0 95 -23 95 -23l-32 -61s-27 14 -66 14c-63 0 -115 -56 -140 -125h2c21 18 54 31 85 31c72 0 121 -49 121 -120c0 -101 -80 -173 -168 -173zM212 328c54 0 89 50 89 101c0 37 -23 64 -66 64
c-47 0 -91 -35 -91 -78c0 -44 24 -87 68 -87z" />
    <glyph glyph-name="sixsuperior" unicode="&#x2076;" horiz-adv-x="388" 
d="M239 413c-86 0 -142 60 -142 159c0 113 92 298 245 298c59 0 95 -23 95 -23l-32 -61s-27 14 -66 14c-63 0 -115 -56 -140 -125h2c21 18 54 31 85 31c72 0 121 -49 121 -120c0 -101 -80 -173 -168 -173zM242 482c54 0 89 50 89 101c0 37 -23 64 -66 64
c-47 0 -91 -35 -91 -78c0 -44 24 -87 68 -87z" />
    <glyph glyph-name="seven.numerator" horiz-adv-x="359" 
d="M51 269l250 355c9 12 20 22 20 22v2s-14 -2 -27 -2h-131l-10 -53h-62l21 113h305l-9 -51l-274 -386h-83z" />
    <glyph glyph-name="sevensuperior" unicode="&#x2077;" horiz-adv-x="357" 
d="M80 423l250 355c9 12 20 22 20 22v2s-14 -2 -27 -2h-131l-10 -53h-62l21 113h305l-9 -51l-274 -386h-83z" />
    <glyph glyph-name="eight.numerator" horiz-adv-x="396" 
d="M200 259c-74 0 -145 41 -145 116c0 71 67 119 95 138c-22 18 -35 39 -35 71c0 88 85 132 160 132s129 -41 129 -103c0 -63 -57 -114 -79 -132c28 -19 48 -44 48 -82c0 -82 -86 -140 -173 -140zM273 509c15 12 57 50 57 94c0 33 -31 48 -62 48c-36 0 -80 -21 -80 -65
c0 -40 43 -55 85 -77zM203 324c43 0 94 30 94 74c0 43 -51 58 -98 83c-21 -14 -68 -48 -68 -97c0 -38 35 -60 72 -60z" />
    <glyph glyph-name="eightsuperior" unicode="&#x2078;" horiz-adv-x="396" 
d="M230 413c-74 0 -145 41 -145 116c0 71 67 119 95 138c-22 18 -35 39 -35 71c0 88 85 132 160 132s129 -41 129 -103c0 -63 -57 -114 -79 -132c28 -19 48 -44 48 -82c0 -82 -86 -140 -173 -140zM303 663c15 12 57 50 57 94c0 33 -31 48 -62 48c-36 0 -80 -21 -80 -65
c0 -40 43 -55 85 -77zM233 478c43 0 94 30 94 74c0 43 -51 58 -98 83c-21 -14 -68 -48 -68 -97c0 -38 35 -60 72 -60z" />
    <glyph glyph-name="nine.numerator" horiz-adv-x="389" 
d="M151 259c-59 0 -97 23 -97 23l34 60s26 -13 65 -13c63 0 115 56 140 125h-2c-22 -18 -54 -31 -85 -31c-72 0 -121 49 -121 120c0 101 80 173 168 173c86 0 142 -60 142 -159c0 -113 -92 -298 -244 -298zM227 482c47 0 91 35 91 78c0 44 -24 87 -68 87
c-54 0 -90 -50 -90 -102c0 -37 24 -63 67 -63z" />
    <glyph glyph-name="ninesuperior" unicode="&#x2079;" horiz-adv-x="389" 
d="M181 413c-59 0 -97 23 -97 23l34 60s26 -13 65 -13c63 0 115 56 140 125h-2c-22 -18 -54 -31 -85 -31c-72 0 -121 49 -121 120c0 101 80 173 168 173c86 0 142 -60 142 -159c0 -113 -92 -298 -244 -298zM257 636c47 0 91 35 91 78c0 44 -24 87 -68 87
c-54 0 -90 -50 -90 -102c0 -37 24 -63 67 -63z" />
    <glyph glyph-name="zeroinferior" unicode="&#x2080;" horiz-adv-x="404" 
d="M123 -167c-100 0 -134 59 -134 146c0 114 49 311 200 311c100 0 134 -60 134 -147c0 -114 -51 -310 -200 -310zM124 -98c87 0 122 145 122 236c0 49 -15 82 -59 82c-88 0 -122 -146 -122 -238c0 -48 16 -80 59 -80z" />
    <glyph glyph-name="oneinferior" unicode="&#x2081;" horiz-adv-x="336" 
d="M-50 -157l12 62h103l47 242c3 20 9 36 9 36h-2s-10 -14 -25 -25l-49 -40l-37 50l138 112h67l-73 -375h102l-12 -62h-280z" />
    <glyph glyph-name="twoinferior" unicode="&#x2082;" horiz-adv-x="379" 
d="M-48 -157c4 208 271 210 271 325c0 31 -24 53 -59 53c-51 0 -95 -48 -95 -48l-44 49s60 68 144 68c76 0 132 -44 132 -115c0 -155 -231 -170 -260 -270h159l10 51h63l-22 -113h-299z" />
    <glyph glyph-name="threeinferior" unicode="&#x2083;" horiz-adv-x="376" 
d="M102 -168c-101 0 -149 66 -149 66l49 49s34 -46 100 -46c49 0 95 39 95 89c0 38 -37 58 -76 58h-31l-10 36l117 115c12 12 26 20 26 20v3s-14 -3 -30 -3h-98l-10 -53h-63l22 113h278l-9 -48l-135 -130c40 -9 95 -40 95 -110c0 -80 -73 -159 -171 -159z" />
    <glyph glyph-name="fourinferior" unicode="&#x2084;" horiz-adv-x="394" 
d="M141 -157l21 109h-207l9 48l254 280h82l-52 -269h61l-11 -59h-62l-21 -109h-74zM44 11h130l28 146c4 20 13 45 13 45h-3s-13 -22 -29 -39l-139 -150v-2z" />
    <glyph glyph-name="fiveinferior" unicode="&#x2085;" horiz-adv-x="373" 
d="M95 -167c-90 0 -144 63 -144 63l46 49s41 -45 98 -45c58 0 104 41 104 94c0 43 -30 72 -79 72c-43 0 -76 -21 -76 -21l-39 15l66 220h238l-22 -113h-62l10 53h-114l-25 -88c-3 -11 -8 -19 -8 -19l2 -1s22 10 55 10c80 0 131 -54 131 -125c0 -84 -77 -164 -181 -164z" />
    <glyph glyph-name="sixinferior" unicode="&#x2086;" horiz-adv-x="388" 
d="M126 -167c-86 0 -142 60 -142 159c0 113 92 298 245 298c59 0 95 -23 95 -23l-32 -61s-27 14 -66 14c-63 0 -115 -56 -140 -125h2c21 18 54 31 85 31c72 0 121 -49 121 -120c0 -101 -80 -173 -168 -173zM129 -98c54 0 89 50 89 101c0 37 -23 64 -66 64
c-47 0 -91 -35 -91 -78c0 -44 24 -87 68 -87z" />
    <glyph glyph-name="seveninferior" unicode="&#x2087;" horiz-adv-x="358" 
d="M-33 -158l250 355c9 12 20 22 20 22v2s-14 -2 -27 -2h-131l-10 -53h-62l21 113h305l-9 -51l-274 -386h-83z" />
    <glyph glyph-name="eightinferior" unicode="&#x2088;" horiz-adv-x="396" 
d="M118 -166c-74 0 -145 41 -145 116c0 71 67 119 95 138c-22 18 -35 39 -35 71c0 88 85 132 160 132s129 -41 129 -103c0 -63 -57 -114 -79 -132c28 -19 48 -44 48 -82c0 -82 -86 -140 -173 -140zM191 84c15 12 57 50 57 94c0 33 -31 48 -62 48c-36 0 -80 -21 -80 -65
c0 -40 43 -55 85 -77zM121 -101c43 0 94 30 94 74c0 43 -51 58 -98 83c-21 -14 -68 -48 -68 -97c0 -38 35 -60 72 -60z" />
    <glyph glyph-name="nineinferior" unicode="&#x2089;" horiz-adv-x="389" 
d="M68 -167c-59 0 -97 23 -97 23l34 60s26 -13 65 -13c63 0 115 56 140 125h-2c-22 -18 -54 -31 -85 -31c-72 0 -121 49 -121 120c0 101 80 173 168 173c86 0 142 -60 142 -159c0 -113 -92 -298 -244 -298zM144 56c47 0 91 35 91 78c0 44 -24 87 -68 87
c-54 0 -90 -50 -90 -102c0 -37 24 -63 67 -63z" />
    <glyph glyph-name="zero.denominator" horiz-adv-x="404" 
d="M154 -10c-100 0 -134 59 -134 146c0 114 49 311 200 311c100 0 134 -60 134 -147c0 -114 -51 -310 -200 -310zM155 59c87 0 122 145 122 236c0 49 -15 82 -59 82c-88 0 -122 -146 -122 -238c0 -48 16 -80 59 -80z" />
    <glyph glyph-name="one.denominator" horiz-adv-x="336" 
d="M-20 0l12 62h103l47 242c3 20 9 36 9 36h-2s-10 -14 -25 -25l-49 -40l-37 50l138 112h67l-73 -375h102l-12 -62h-280z" />
    <glyph glyph-name="two.denominator" horiz-adv-x="379" 
d="M-18 0c4 208 271 210 271 325c0 31 -24 53 -59 53c-51 0 -95 -48 -95 -48l-44 49s60 68 144 68c76 0 132 -44 132 -115c0 -155 -231 -170 -260 -270h159l10 51h63l-22 -113h-299z" />
    <glyph glyph-name="three.denominator" horiz-adv-x="376" 
d="M133 -10c-101 0 -149 66 -149 66l49 49s34 -46 100 -46c49 0 95 39 95 89c0 38 -37 58 -76 58h-31l-10 36l117 115c12 12 26 20 26 20v3s-14 -3 -30 -3h-98l-10 -53h-63l22 113h278l-9 -48l-135 -130c40 -9 95 -40 95 -110c0 -80 -73 -159 -171 -159z" />
    <glyph glyph-name="four.denominator" horiz-adv-x="394" 
d="M172 0l21 109h-207l9 48l254 280h82l-52 -269h61l-11 -59h-62l-21 -109h-74zM75 168h130l28 146c4 20 13 45 13 45h-3s-13 -22 -29 -39l-139 -150v-2z" />
    <glyph glyph-name="five.denominator" horiz-adv-x="373" 
d="M125 -10c-90 0 -144 63 -144 63l46 49s41 -45 98 -45c58 0 104 41 104 94c0 43 -30 72 -79 72c-43 0 -76 -21 -76 -21l-39 15l66 220h238l-22 -113h-62l10 53h-114l-25 -88c-3 -11 -8 -19 -8 -19l2 -1s22 10 55 10c80 0 131 -54 131 -125c0 -84 -77 -164 -181 -164z" />
    <glyph glyph-name="six.denominator" horiz-adv-x="388" 
d="M157 -10c-86 0 -142 60 -142 159c0 113 92 298 245 298c59 0 95 -23 95 -23l-32 -61s-27 14 -66 14c-63 0 -115 -56 -140 -125h2c21 18 54 31 85 31c72 0 121 -49 121 -120c0 -101 -80 -173 -168 -173zM160 59c54 0 89 50 89 101c0 37 -23 64 -66 64
c-47 0 -91 -35 -91 -78c0 -44 24 -87 68 -87z" />
    <glyph glyph-name="seven.denominator" horiz-adv-x="357" 
d="M-2 0l250 355c9 12 20 22 20 22v2s-14 -2 -27 -2h-131l-10 -53h-62l21 113h305l-9 -51l-274 -386h-83z" />
    <glyph glyph-name="eight.denominator" horiz-adv-x="396" 
d="M148 -10c-74 0 -145 41 -145 116c0 71 67 119 95 138c-22 18 -35 39 -35 71c0 88 85 132 160 132s129 -41 129 -103c0 -63 -57 -114 -79 -132c28 -19 48 -44 48 -82c0 -82 -86 -140 -173 -140zM221 240c15 12 57 50 57 94c0 33 -31 48 -62 48c-36 0 -80 -21 -80 -65
c0 -40 43 -55 85 -77zM151 55c43 0 94 30 94 74c0 43 -51 58 -98 83c-21 -14 -68 -48 -68 -97c0 -38 35 -60 72 -60z" />
    <glyph glyph-name="nine.denominator" horiz-adv-x="388" 
d="M98 -10c-59 0 -97 23 -97 23l34 60s26 -13 65 -13c63 0 115 56 140 125h-2c-22 -18 -54 -31 -85 -31c-72 0 -121 49 -121 120c0 101 80 173 168 173c86 0 142 -60 142 -159c0 -113 -92 -298 -244 -298zM174 213c47 0 91 35 91 78c0 44 -24 87 -68 87
c-54 0 -90 -50 -90 -102c0 -37 24 -63 67 -63z" />
    <glyph glyph-name="thinspace" unicode="&#x2009;" horiz-adv-x="266" 
 />
    <glyph glyph-name="uni00AD" unicode="&#xad;" horiz-adv-x="477" 
d="M81 242l16 86h292l-16 -86h-292z" />
    <glyph glyph-name="uni00A0" unicode="&#xa0;" horiz-adv-x="266" 
 />
    </font>
</defs>
</svg>
